M48
;DRILL file {KiCad 4.0.1-stable} date 2016 September 18, Sunday 14:56:01
;FORMAT={-:-/ absolute / inch / decimal}
FMAT,2
INCH,TZ
T1C0.012
T2C0.016
T3C0.040
%
G90
G05
M72
T1
X5.2625Y-2.3525
X5.3125Y-2.6025
X5.63Y-2.35
T2
X4.6075Y-3.26
X4.61Y-2.1475
X4.61Y-2.63
X4.61Y-2.785
X4.6125Y-2.465
X4.615Y-2.305
X4.6175Y-2.9275
X4.6225Y-3.09
X5.0175Y-3.2125
X5.0825Y-2.355
X5.0825Y-2.6775
X5.1125Y-2.93
X5.1125Y-2.9775
X5.14Y-2.58
X5.1775Y-2.4375
X5.18Y-2.6275
X5.2075Y-2.7
X5.3046Y-2.8042
X5.4375Y-2.735
X5.47Y-2.43
X5.485Y-2.5075
X5.52Y-2.7425
X5.7025Y-2.4675
X5.71Y-2.58
X5.71Y-2.6175
X5.71Y-2.655
X5.7125Y-2.7825
X5.7125Y-2.8225
X5.7175Y-2.94
X6.005Y-2.2875
X6.02Y-2.6375
X6.025Y-2.145
X6.025Y-2.455
X6.035Y-2.7825
X6.04Y-2.8275
X6.04Y-2.94
T3
X5.12Y-2.2375
X5.22Y-2.2375
X5.32Y-2.2375
X5.42Y-2.2375
X5.52Y-2.2375
T0
M30
