G04 #@! TF.FileFunction,Legend,Top*
%FSLAX46Y46*%
G04 Gerber Fmt 4.6, Leading zero omitted, Abs format (unit mm)*
G04 Created by KiCad (PCBNEW 4.0.1-stable) date 2016 September 18, Sunday 15:01:05*
%MOMM*%
G01*
G04 APERTURE LIST*
%ADD10C,0.100000*%
%ADD11C,0.225000*%
%ADD12C,0.300000*%
%ADD13C,0.150000*%
G04 APERTURE END LIST*
D10*
D11*
X124692285Y-82766643D02*
X124178000Y-82766643D01*
X124435142Y-82766643D02*
X124435142Y-81866643D01*
X124349428Y-81995214D01*
X124263714Y-82080929D01*
X124178000Y-82123786D01*
X125463714Y-81866643D02*
X125292285Y-81866643D01*
X125206571Y-81909500D01*
X125163714Y-81952357D01*
X125078000Y-82080929D01*
X125035143Y-82252357D01*
X125035143Y-82595214D01*
X125078000Y-82680929D01*
X125120857Y-82723786D01*
X125206571Y-82766643D01*
X125378000Y-82766643D01*
X125463714Y-82723786D01*
X125506571Y-82680929D01*
X125549428Y-82595214D01*
X125549428Y-82380929D01*
X125506571Y-82295214D01*
X125463714Y-82252357D01*
X125378000Y-82209500D01*
X125206571Y-82209500D01*
X125120857Y-82252357D01*
X125078000Y-82295214D01*
X125035143Y-82380929D01*
X127049428Y-82766643D02*
X126620857Y-82766643D01*
X126620857Y-81866643D01*
X127349428Y-82295214D02*
X127649428Y-82295214D01*
X127777999Y-82766643D02*
X127349428Y-82766643D01*
X127349428Y-81866643D01*
X127777999Y-81866643D01*
X128163714Y-82766643D02*
X128163714Y-81866643D01*
X128377999Y-81866643D01*
X128506571Y-81909500D01*
X128592285Y-81995214D01*
X128635142Y-82080929D01*
X128677999Y-82252357D01*
X128677999Y-82380929D01*
X128635142Y-82552357D01*
X128592285Y-82638071D01*
X128506571Y-82723786D01*
X128377999Y-82766643D01*
X128163714Y-82766643D01*
X129749428Y-82766643D02*
X129749428Y-81866643D01*
X129749428Y-82209500D02*
X129835142Y-82166643D01*
X130006571Y-82166643D01*
X130092285Y-82209500D01*
X130135142Y-82252357D01*
X130177999Y-82338071D01*
X130177999Y-82595214D01*
X130135142Y-82680929D01*
X130092285Y-82723786D01*
X130006571Y-82766643D01*
X129835142Y-82766643D01*
X129749428Y-82723786D01*
X130692285Y-82766643D02*
X130606571Y-82723786D01*
X130563714Y-82680929D01*
X130520857Y-82595214D01*
X130520857Y-82338071D01*
X130563714Y-82252357D01*
X130606571Y-82209500D01*
X130692285Y-82166643D01*
X130820857Y-82166643D01*
X130906571Y-82209500D01*
X130949428Y-82252357D01*
X130992285Y-82338071D01*
X130992285Y-82595214D01*
X130949428Y-82680929D01*
X130906571Y-82723786D01*
X130820857Y-82766643D01*
X130692285Y-82766643D01*
X131763714Y-82766643D02*
X131763714Y-82295214D01*
X131720857Y-82209500D01*
X131635143Y-82166643D01*
X131463714Y-82166643D01*
X131378000Y-82209500D01*
X131763714Y-82723786D02*
X131678000Y-82766643D01*
X131463714Y-82766643D01*
X131378000Y-82723786D01*
X131335143Y-82638071D01*
X131335143Y-82552357D01*
X131378000Y-82466643D01*
X131463714Y-82423786D01*
X131678000Y-82423786D01*
X131763714Y-82380929D01*
X132192286Y-82766643D02*
X132192286Y-82166643D01*
X132192286Y-82338071D02*
X132235143Y-82252357D01*
X132278000Y-82209500D01*
X132363714Y-82166643D01*
X132449429Y-82166643D01*
X133135143Y-82766643D02*
X133135143Y-81866643D01*
X133135143Y-82723786D02*
X133049429Y-82766643D01*
X132878000Y-82766643D01*
X132792286Y-82723786D01*
X132749429Y-82680929D01*
X132706572Y-82595214D01*
X132706572Y-82338071D01*
X132749429Y-82252357D01*
X132792286Y-82209500D01*
X132878000Y-82166643D01*
X133049429Y-82166643D01*
X133135143Y-82209500D01*
X134163714Y-82166643D02*
X134335143Y-82766643D01*
X134506572Y-82338071D01*
X134678000Y-82766643D01*
X134849429Y-82166643D01*
X135192286Y-82766643D02*
X135192286Y-82166643D01*
X135192286Y-81866643D02*
X135149429Y-81909500D01*
X135192286Y-81952357D01*
X135235143Y-81909500D01*
X135192286Y-81866643D01*
X135192286Y-81952357D01*
X135492285Y-82166643D02*
X135835142Y-82166643D01*
X135620857Y-81866643D02*
X135620857Y-82638071D01*
X135663714Y-82723786D01*
X135749428Y-82766643D01*
X135835142Y-82766643D01*
X136135143Y-82766643D02*
X136135143Y-81866643D01*
X136520857Y-82766643D02*
X136520857Y-82295214D01*
X136478000Y-82209500D01*
X136392286Y-82166643D01*
X136263714Y-82166643D01*
X136178000Y-82209500D01*
X136135143Y-82252357D01*
X137592286Y-82723786D02*
X137678000Y-82766643D01*
X137849428Y-82766643D01*
X137935143Y-82723786D01*
X137978000Y-82638071D01*
X137978000Y-82595214D01*
X137935143Y-82509500D01*
X137849428Y-82466643D01*
X137720857Y-82466643D01*
X137635143Y-82423786D01*
X137592286Y-82338071D01*
X137592286Y-82295214D01*
X137635143Y-82209500D01*
X137720857Y-82166643D01*
X137849428Y-82166643D01*
X137935143Y-82209500D01*
X138363714Y-82766643D02*
X138363714Y-81866643D01*
X138749428Y-82766643D02*
X138749428Y-82295214D01*
X138706571Y-82209500D01*
X138620857Y-82166643D01*
X138492285Y-82166643D01*
X138406571Y-82209500D01*
X138363714Y-82252357D01*
X139178000Y-82766643D02*
X139178000Y-82166643D01*
X139178000Y-81866643D02*
X139135143Y-81909500D01*
X139178000Y-81952357D01*
X139220857Y-81909500D01*
X139178000Y-81866643D01*
X139178000Y-81952357D01*
X139477999Y-82166643D02*
X139820856Y-82166643D01*
X139606571Y-82766643D02*
X139606571Y-81995214D01*
X139649428Y-81909500D01*
X139735142Y-81866643D01*
X139820856Y-81866643D01*
X139992285Y-82166643D02*
X140335142Y-82166643D01*
X140120857Y-81866643D02*
X140120857Y-82638071D01*
X140163714Y-82723786D01*
X140249428Y-82766643D01*
X140335142Y-82766643D01*
X141320857Y-82766643D02*
X141320857Y-82166643D01*
X141320857Y-82338071D02*
X141363714Y-82252357D01*
X141406571Y-82209500D01*
X141492285Y-82166643D01*
X141578000Y-82166643D01*
X142220857Y-82723786D02*
X142135143Y-82766643D01*
X141963714Y-82766643D01*
X141878000Y-82723786D01*
X141835143Y-82638071D01*
X141835143Y-82295214D01*
X141878000Y-82209500D01*
X141963714Y-82166643D01*
X142135143Y-82166643D01*
X142220857Y-82209500D01*
X142263714Y-82295214D01*
X142263714Y-82380929D01*
X141835143Y-82466643D01*
X143035143Y-82166643D02*
X143035143Y-82895214D01*
X142992286Y-82980929D01*
X142949429Y-83023786D01*
X142863714Y-83066643D01*
X142735143Y-83066643D01*
X142649429Y-83023786D01*
X143035143Y-82723786D02*
X142949429Y-82766643D01*
X142778000Y-82766643D01*
X142692286Y-82723786D01*
X142649429Y-82680929D01*
X142606572Y-82595214D01*
X142606572Y-82338071D01*
X142649429Y-82252357D01*
X142692286Y-82209500D01*
X142778000Y-82166643D01*
X142949429Y-82166643D01*
X143035143Y-82209500D01*
X143463715Y-82766643D02*
X143463715Y-82166643D01*
X143463715Y-81866643D02*
X143420858Y-81909500D01*
X143463715Y-81952357D01*
X143506572Y-81909500D01*
X143463715Y-81866643D01*
X143463715Y-81952357D01*
X143849429Y-82723786D02*
X143935143Y-82766643D01*
X144106571Y-82766643D01*
X144192286Y-82723786D01*
X144235143Y-82638071D01*
X144235143Y-82595214D01*
X144192286Y-82509500D01*
X144106571Y-82466643D01*
X143978000Y-82466643D01*
X143892286Y-82423786D01*
X143849429Y-82338071D01*
X143849429Y-82295214D01*
X143892286Y-82209500D01*
X143978000Y-82166643D01*
X144106571Y-82166643D01*
X144192286Y-82209500D01*
X144492285Y-82166643D02*
X144835142Y-82166643D01*
X144620857Y-81866643D02*
X144620857Y-82638071D01*
X144663714Y-82723786D01*
X144749428Y-82766643D01*
X144835142Y-82766643D01*
X145478000Y-82723786D02*
X145392286Y-82766643D01*
X145220857Y-82766643D01*
X145135143Y-82723786D01*
X145092286Y-82638071D01*
X145092286Y-82295214D01*
X145135143Y-82209500D01*
X145220857Y-82166643D01*
X145392286Y-82166643D01*
X145478000Y-82209500D01*
X145520857Y-82295214D01*
X145520857Y-82380929D01*
X145092286Y-82466643D01*
X145906572Y-82766643D02*
X145906572Y-82166643D01*
X145906572Y-82338071D02*
X145949429Y-82252357D01*
X145992286Y-82209500D01*
X146078000Y-82166643D01*
X146163715Y-82166643D01*
D12*
X130068500Y-52002500D02*
X130782786Y-52002500D01*
X129925643Y-52431071D02*
X130425643Y-50931071D01*
X130925643Y-52431071D01*
X131425643Y-52431071D02*
X131425643Y-51431071D01*
X131425643Y-51716786D02*
X131497071Y-51573929D01*
X131568500Y-51502500D01*
X131711357Y-51431071D01*
X131854214Y-51431071D01*
X132354214Y-52431071D02*
X132354214Y-51431071D01*
X132354214Y-51573929D02*
X132425642Y-51502500D01*
X132568500Y-51431071D01*
X132782785Y-51431071D01*
X132925642Y-51502500D01*
X132997071Y-51645357D01*
X132997071Y-52431071D01*
X132997071Y-51645357D02*
X133068500Y-51502500D01*
X133211357Y-51431071D01*
X133425642Y-51431071D01*
X133568500Y-51502500D01*
X133639928Y-51645357D01*
X133639928Y-52431071D01*
X135211357Y-52288214D02*
X135139928Y-52359643D01*
X134925642Y-52431071D01*
X134782785Y-52431071D01*
X134568500Y-52359643D01*
X134425642Y-52216786D01*
X134354214Y-52073929D01*
X134282785Y-51788214D01*
X134282785Y-51573929D01*
X134354214Y-51288214D01*
X134425642Y-51145357D01*
X134568500Y-51002500D01*
X134782785Y-50931071D01*
X134925642Y-50931071D01*
X135139928Y-51002500D01*
X135211357Y-51073929D01*
X136068500Y-52431071D02*
X135925642Y-52359643D01*
X135854214Y-52288214D01*
X135782785Y-52145357D01*
X135782785Y-51716786D01*
X135854214Y-51573929D01*
X135925642Y-51502500D01*
X136068500Y-51431071D01*
X136282785Y-51431071D01*
X136425642Y-51502500D01*
X136497071Y-51573929D01*
X136568500Y-51716786D01*
X136568500Y-52145357D01*
X136497071Y-52288214D01*
X136425642Y-52359643D01*
X136282785Y-52431071D01*
X136068500Y-52431071D01*
X137211357Y-52431071D02*
X137211357Y-51431071D01*
X137211357Y-51573929D02*
X137282785Y-51502500D01*
X137425643Y-51431071D01*
X137639928Y-51431071D01*
X137782785Y-51502500D01*
X137854214Y-51645357D01*
X137854214Y-52431071D01*
X137854214Y-51645357D02*
X137925643Y-51502500D01*
X138068500Y-51431071D01*
X138282785Y-51431071D01*
X138425643Y-51502500D01*
X138497071Y-51645357D01*
X138497071Y-52431071D01*
X139211357Y-52431071D02*
X139211357Y-51431071D01*
X139211357Y-51573929D02*
X139282785Y-51502500D01*
X139425643Y-51431071D01*
X139639928Y-51431071D01*
X139782785Y-51502500D01*
X139854214Y-51645357D01*
X139854214Y-52431071D01*
X139854214Y-51645357D02*
X139925643Y-51502500D01*
X140068500Y-51431071D01*
X140282785Y-51431071D01*
X140425643Y-51502500D01*
X140497071Y-51645357D01*
X140497071Y-52431071D01*
D13*
X139065000Y-72009000D02*
X139065000Y-71247000D01*
X139065000Y-71247000D02*
X140589000Y-71247000D01*
X140589000Y-71247000D02*
X140589000Y-72009000D01*
X137541000Y-60833000D02*
X142113000Y-60833000D01*
X142113000Y-60833000D02*
X142113000Y-72009000D01*
X142113000Y-72009000D02*
X137541000Y-72009000D01*
X137541000Y-72009000D02*
X137541000Y-60833000D01*
X132397500Y-76581000D02*
X132397500Y-78105000D01*
X132524500Y-78486000D02*
X132524500Y-76200000D01*
X132651500Y-75946000D02*
X132651500Y-78740000D01*
X132778500Y-78994000D02*
X132778500Y-75692000D01*
X132905500Y-75565000D02*
X132905500Y-79121000D01*
X132016500Y-74041000D02*
X132016500Y-80645000D01*
X132016500Y-80645000D02*
X137858500Y-80645000D01*
X137858500Y-80645000D02*
X138620500Y-79883000D01*
X138620500Y-79883000D02*
X138620500Y-74803000D01*
X138620500Y-74803000D02*
X137858500Y-74041000D01*
X137858500Y-74041000D02*
X132016500Y-74041000D01*
X137477500Y-77343000D02*
X136715500Y-77343000D01*
X137096500Y-76962000D02*
X137096500Y-77724000D01*
X138366500Y-77343000D02*
G75*
G03X138366500Y-77343000I-3048000J0D01*
G01*
X115621000Y-81395000D02*
X118321000Y-81395000D01*
X115621000Y-79895000D02*
X118321000Y-79895000D01*
X117121000Y-80795000D02*
X117121000Y-80545000D01*
X117121000Y-80545000D02*
X116971000Y-80695000D01*
X116871000Y-80295000D02*
X116871000Y-80995000D01*
X117221000Y-80645000D02*
X117571000Y-80645000D01*
X116871000Y-80645000D02*
X117221000Y-80295000D01*
X117221000Y-80295000D02*
X117221000Y-80995000D01*
X117221000Y-80995000D02*
X116871000Y-80645000D01*
X115621000Y-77331000D02*
X118321000Y-77331000D01*
X115621000Y-75831000D02*
X118321000Y-75831000D01*
X117121000Y-76731000D02*
X117121000Y-76481000D01*
X117121000Y-76481000D02*
X116971000Y-76631000D01*
X116871000Y-76231000D02*
X116871000Y-76931000D01*
X117221000Y-76581000D02*
X117571000Y-76581000D01*
X116871000Y-76581000D02*
X117221000Y-76231000D01*
X117221000Y-76231000D02*
X117221000Y-76931000D01*
X117221000Y-76931000D02*
X116871000Y-76581000D01*
X115621000Y-73267000D02*
X118321000Y-73267000D01*
X115621000Y-71767000D02*
X118321000Y-71767000D01*
X117121000Y-72667000D02*
X117121000Y-72417000D01*
X117121000Y-72417000D02*
X116971000Y-72567000D01*
X116871000Y-72167000D02*
X116871000Y-72867000D01*
X117221000Y-72517000D02*
X117571000Y-72517000D01*
X116871000Y-72517000D02*
X117221000Y-72167000D01*
X117221000Y-72167000D02*
X117221000Y-72867000D01*
X117221000Y-72867000D02*
X116871000Y-72517000D01*
X115621000Y-69711000D02*
X118321000Y-69711000D01*
X115621000Y-68211000D02*
X118321000Y-68211000D01*
X117121000Y-69111000D02*
X117121000Y-68861000D01*
X117121000Y-68861000D02*
X116971000Y-69011000D01*
X116871000Y-68611000D02*
X116871000Y-69311000D01*
X117221000Y-68961000D02*
X117571000Y-68961000D01*
X116871000Y-68961000D02*
X117221000Y-68611000D01*
X117221000Y-68611000D02*
X117221000Y-69311000D01*
X117221000Y-69311000D02*
X116871000Y-68961000D01*
X115621000Y-65647000D02*
X118321000Y-65647000D01*
X115621000Y-64147000D02*
X118321000Y-64147000D01*
X117121000Y-65047000D02*
X117121000Y-64797000D01*
X117121000Y-64797000D02*
X116971000Y-64947000D01*
X116871000Y-64547000D02*
X116871000Y-65247000D01*
X117221000Y-64897000D02*
X117571000Y-64897000D01*
X116871000Y-64897000D02*
X117221000Y-64547000D01*
X117221000Y-64547000D02*
X117221000Y-65247000D01*
X117221000Y-65247000D02*
X116871000Y-64897000D01*
X115621000Y-61583000D02*
X118321000Y-61583000D01*
X115621000Y-60083000D02*
X118321000Y-60083000D01*
X117121000Y-60983000D02*
X117121000Y-60733000D01*
X117121000Y-60733000D02*
X116971000Y-60883000D01*
X116871000Y-60483000D02*
X116871000Y-61183000D01*
X117221000Y-60833000D02*
X117571000Y-60833000D01*
X116871000Y-60833000D02*
X117221000Y-60483000D01*
X117221000Y-60483000D02*
X117221000Y-61183000D01*
X117221000Y-61183000D02*
X116871000Y-60833000D01*
X115621000Y-57519000D02*
X118321000Y-57519000D01*
X115621000Y-56019000D02*
X118321000Y-56019000D01*
X117121000Y-56919000D02*
X117121000Y-56669000D01*
X117121000Y-56669000D02*
X116971000Y-56819000D01*
X116871000Y-56419000D02*
X116871000Y-57119000D01*
X117221000Y-56769000D02*
X117571000Y-56769000D01*
X116871000Y-56769000D02*
X117221000Y-56419000D01*
X117221000Y-56419000D02*
X117221000Y-57119000D01*
X117221000Y-57119000D02*
X116871000Y-56769000D01*
X115621000Y-53709000D02*
X118321000Y-53709000D01*
X115621000Y-52209000D02*
X118321000Y-52209000D01*
X117121000Y-53109000D02*
X117121000Y-52859000D01*
X117121000Y-52859000D02*
X116971000Y-53009000D01*
X116871000Y-52609000D02*
X116871000Y-53309000D01*
X117221000Y-52959000D02*
X117571000Y-52959000D01*
X116871000Y-52959000D02*
X117221000Y-52609000D01*
X117221000Y-52609000D02*
X117221000Y-53309000D01*
X117221000Y-53309000D02*
X116871000Y-52959000D01*
X154889000Y-79768000D02*
X152189000Y-79768000D01*
X154889000Y-81268000D02*
X152189000Y-81268000D01*
X153389000Y-80368000D02*
X153389000Y-80618000D01*
X153389000Y-80618000D02*
X153539000Y-80468000D01*
X153639000Y-80868000D02*
X153639000Y-80168000D01*
X153289000Y-80518000D02*
X152939000Y-80518000D01*
X153639000Y-80518000D02*
X153289000Y-80868000D01*
X153289000Y-80868000D02*
X153289000Y-80168000D01*
X153289000Y-80168000D02*
X153639000Y-80518000D01*
X154889000Y-75958000D02*
X152189000Y-75958000D01*
X154889000Y-77458000D02*
X152189000Y-77458000D01*
X153389000Y-76558000D02*
X153389000Y-76808000D01*
X153389000Y-76808000D02*
X153539000Y-76658000D01*
X153639000Y-77058000D02*
X153639000Y-76358000D01*
X153289000Y-76708000D02*
X152939000Y-76708000D01*
X153639000Y-76708000D02*
X153289000Y-77058000D01*
X153289000Y-77058000D02*
X153289000Y-76358000D01*
X153289000Y-76358000D02*
X153639000Y-76708000D01*
X154889000Y-72148000D02*
X152189000Y-72148000D01*
X154889000Y-73648000D02*
X152189000Y-73648000D01*
X153389000Y-72748000D02*
X153389000Y-72998000D01*
X153389000Y-72998000D02*
X153539000Y-72848000D01*
X153639000Y-73248000D02*
X153639000Y-72548000D01*
X153289000Y-72898000D02*
X152939000Y-72898000D01*
X153639000Y-72898000D02*
X153289000Y-73248000D01*
X153289000Y-73248000D02*
X153289000Y-72548000D01*
X153289000Y-72548000D02*
X153639000Y-72898000D01*
X154889000Y-68084000D02*
X152189000Y-68084000D01*
X154889000Y-69584000D02*
X152189000Y-69584000D01*
X153389000Y-68684000D02*
X153389000Y-68934000D01*
X153389000Y-68934000D02*
X153539000Y-68784000D01*
X153639000Y-69184000D02*
X153639000Y-68484000D01*
X153289000Y-68834000D02*
X152939000Y-68834000D01*
X153639000Y-68834000D02*
X153289000Y-69184000D01*
X153289000Y-69184000D02*
X153289000Y-68484000D01*
X153289000Y-68484000D02*
X153639000Y-68834000D01*
X154635000Y-64020000D02*
X151935000Y-64020000D01*
X154635000Y-65520000D02*
X151935000Y-65520000D01*
X153135000Y-64620000D02*
X153135000Y-64870000D01*
X153135000Y-64870000D02*
X153285000Y-64720000D01*
X153385000Y-65120000D02*
X153385000Y-64420000D01*
X153035000Y-64770000D02*
X152685000Y-64770000D01*
X153385000Y-64770000D02*
X153035000Y-65120000D01*
X153035000Y-65120000D02*
X153035000Y-64420000D01*
X153035000Y-64420000D02*
X153385000Y-64770000D01*
X154635000Y-60210000D02*
X151935000Y-60210000D01*
X154635000Y-61710000D02*
X151935000Y-61710000D01*
X153135000Y-60810000D02*
X153135000Y-61060000D01*
X153135000Y-61060000D02*
X153285000Y-60910000D01*
X153385000Y-61310000D02*
X153385000Y-60610000D01*
X153035000Y-60960000D02*
X152685000Y-60960000D01*
X153385000Y-60960000D02*
X153035000Y-61310000D01*
X153035000Y-61310000D02*
X153035000Y-60610000D01*
X153035000Y-60610000D02*
X153385000Y-60960000D01*
X154635000Y-55892000D02*
X151935000Y-55892000D01*
X154635000Y-57392000D02*
X151935000Y-57392000D01*
X153135000Y-56492000D02*
X153135000Y-56742000D01*
X153135000Y-56742000D02*
X153285000Y-56592000D01*
X153385000Y-56992000D02*
X153385000Y-56292000D01*
X153035000Y-56642000D02*
X152685000Y-56642000D01*
X153385000Y-56642000D02*
X153035000Y-56992000D01*
X153035000Y-56992000D02*
X153035000Y-56292000D01*
X153035000Y-56292000D02*
X153385000Y-56642000D01*
X154635000Y-52082000D02*
X151935000Y-52082000D01*
X154635000Y-53582000D02*
X151935000Y-53582000D01*
X153135000Y-52682000D02*
X153135000Y-52932000D01*
X153135000Y-52932000D02*
X153285000Y-52782000D01*
X153385000Y-53182000D02*
X153385000Y-52482000D01*
X153035000Y-52832000D02*
X152685000Y-52832000D01*
X153385000Y-52832000D02*
X153035000Y-53182000D01*
X153035000Y-53182000D02*
X153035000Y-52482000D01*
X153035000Y-52482000D02*
X153385000Y-52832000D01*
X140208000Y-55282500D02*
X141758000Y-55282500D01*
X141758000Y-55282500D02*
X141758000Y-58382500D01*
X141758000Y-58382500D02*
X140208000Y-58382500D01*
X138938000Y-58102500D02*
X128778000Y-58102500D01*
X128778000Y-58102500D02*
X128778000Y-55562500D01*
X128778000Y-55562500D02*
X138938000Y-55562500D01*
X138938000Y-58102500D02*
X138938000Y-55562500D01*
X121701000Y-79770000D02*
X122901000Y-79770000D01*
X122901000Y-81520000D02*
X121701000Y-81520000D01*
X121701000Y-75706000D02*
X122901000Y-75706000D01*
X122901000Y-77456000D02*
X121701000Y-77456000D01*
X121701000Y-71642000D02*
X122901000Y-71642000D01*
X122901000Y-73392000D02*
X121701000Y-73392000D01*
X121701000Y-68086000D02*
X122901000Y-68086000D01*
X122901000Y-69836000D02*
X121701000Y-69836000D01*
X121701000Y-64022000D02*
X122901000Y-64022000D01*
X122901000Y-65772000D02*
X121701000Y-65772000D01*
X121701000Y-59958000D02*
X122901000Y-59958000D01*
X122901000Y-61708000D02*
X121701000Y-61708000D01*
X121701000Y-55894000D02*
X122901000Y-55894000D01*
X122901000Y-57644000D02*
X121701000Y-57644000D01*
X121701000Y-52084000D02*
X122901000Y-52084000D01*
X122901000Y-53834000D02*
X121701000Y-53834000D01*
X148555000Y-81393000D02*
X147355000Y-81393000D01*
X147355000Y-79643000D02*
X148555000Y-79643000D01*
X148555000Y-77583000D02*
X147355000Y-77583000D01*
X147355000Y-75833000D02*
X148555000Y-75833000D01*
X148555000Y-73773000D02*
X147355000Y-73773000D01*
X147355000Y-72023000D02*
X148555000Y-72023000D01*
X148555000Y-69709000D02*
X147355000Y-69709000D01*
X147355000Y-67959000D02*
X148555000Y-67959000D01*
X148555000Y-65645000D02*
X147355000Y-65645000D01*
X147355000Y-63895000D02*
X148555000Y-63895000D01*
X148555000Y-61835000D02*
X147355000Y-61835000D01*
X147355000Y-60085000D02*
X148555000Y-60085000D01*
X148555000Y-57517000D02*
X147355000Y-57517000D01*
X147355000Y-55767000D02*
X148555000Y-55767000D01*
X148555000Y-53707000D02*
X147355000Y-53707000D01*
X147355000Y-51957000D02*
X148555000Y-51957000D01*
X129730500Y-72072500D02*
X129730500Y-71310500D01*
X129730500Y-71310500D02*
X131254500Y-71310500D01*
X131254500Y-71310500D02*
X131254500Y-72072500D01*
X128206500Y-60896500D02*
X132778500Y-60896500D01*
X132778500Y-60896500D02*
X132778500Y-72072500D01*
X132778500Y-72072500D02*
X128206500Y-72072500D01*
X128206500Y-72072500D02*
X128206500Y-60896500D01*
X138009381Y-67055905D02*
X138818905Y-67055905D01*
X138914143Y-67008286D01*
X138961762Y-66960667D01*
X139009381Y-66865429D01*
X139009381Y-66674952D01*
X138961762Y-66579714D01*
X138914143Y-66532095D01*
X138818905Y-66484476D01*
X138009381Y-66484476D01*
X138104619Y-66055905D02*
X138057000Y-66008286D01*
X138009381Y-65913048D01*
X138009381Y-65674952D01*
X138057000Y-65579714D01*
X138104619Y-65532095D01*
X138199857Y-65484476D01*
X138295095Y-65484476D01*
X138437952Y-65532095D01*
X139009381Y-66103524D01*
X139009381Y-65484476D01*
X135151834Y-73255143D02*
X135104215Y-73302762D01*
X134961358Y-73350381D01*
X134866120Y-73350381D01*
X134723262Y-73302762D01*
X134628024Y-73207524D01*
X134580405Y-73112286D01*
X134532786Y-72921810D01*
X134532786Y-72778952D01*
X134580405Y-72588476D01*
X134628024Y-72493238D01*
X134723262Y-72398000D01*
X134866120Y-72350381D01*
X134961358Y-72350381D01*
X135104215Y-72398000D01*
X135151834Y-72445619D01*
X136104215Y-73350381D02*
X135532786Y-73350381D01*
X135818500Y-73350381D02*
X135818500Y-72350381D01*
X135723262Y-72493238D01*
X135628024Y-72588476D01*
X135532786Y-72636095D01*
X116482905Y-79347381D02*
X116482905Y-78347381D01*
X116721000Y-78347381D01*
X116863858Y-78395000D01*
X116959096Y-78490238D01*
X117006715Y-78585476D01*
X117054334Y-78775952D01*
X117054334Y-78918810D01*
X117006715Y-79109286D01*
X116959096Y-79204524D01*
X116863858Y-79299762D01*
X116721000Y-79347381D01*
X116482905Y-79347381D01*
X118006715Y-79347381D02*
X117435286Y-79347381D01*
X117721000Y-79347381D02*
X117721000Y-78347381D01*
X117625762Y-78490238D01*
X117530524Y-78585476D01*
X117435286Y-78633095D01*
X116482905Y-75283381D02*
X116482905Y-74283381D01*
X116721000Y-74283381D01*
X116863858Y-74331000D01*
X116959096Y-74426238D01*
X117006715Y-74521476D01*
X117054334Y-74711952D01*
X117054334Y-74854810D01*
X117006715Y-75045286D01*
X116959096Y-75140524D01*
X116863858Y-75235762D01*
X116721000Y-75283381D01*
X116482905Y-75283381D01*
X117435286Y-74378619D02*
X117482905Y-74331000D01*
X117578143Y-74283381D01*
X117816239Y-74283381D01*
X117911477Y-74331000D01*
X117959096Y-74378619D01*
X118006715Y-74473857D01*
X118006715Y-74569095D01*
X117959096Y-74711952D01*
X117387667Y-75283381D01*
X118006715Y-75283381D01*
X116482905Y-71219381D02*
X116482905Y-70219381D01*
X116721000Y-70219381D01*
X116863858Y-70267000D01*
X116959096Y-70362238D01*
X117006715Y-70457476D01*
X117054334Y-70647952D01*
X117054334Y-70790810D01*
X117006715Y-70981286D01*
X116959096Y-71076524D01*
X116863858Y-71171762D01*
X116721000Y-71219381D01*
X116482905Y-71219381D01*
X117387667Y-70219381D02*
X118006715Y-70219381D01*
X117673381Y-70600333D01*
X117816239Y-70600333D01*
X117911477Y-70647952D01*
X117959096Y-70695571D01*
X118006715Y-70790810D01*
X118006715Y-71028905D01*
X117959096Y-71124143D01*
X117911477Y-71171762D01*
X117816239Y-71219381D01*
X117530524Y-71219381D01*
X117435286Y-71171762D01*
X117387667Y-71124143D01*
X116482905Y-67663381D02*
X116482905Y-66663381D01*
X116721000Y-66663381D01*
X116863858Y-66711000D01*
X116959096Y-66806238D01*
X117006715Y-66901476D01*
X117054334Y-67091952D01*
X117054334Y-67234810D01*
X117006715Y-67425286D01*
X116959096Y-67520524D01*
X116863858Y-67615762D01*
X116721000Y-67663381D01*
X116482905Y-67663381D01*
X117911477Y-66996714D02*
X117911477Y-67663381D01*
X117673381Y-66615762D02*
X117435286Y-67330048D01*
X118054334Y-67330048D01*
X116482905Y-63599381D02*
X116482905Y-62599381D01*
X116721000Y-62599381D01*
X116863858Y-62647000D01*
X116959096Y-62742238D01*
X117006715Y-62837476D01*
X117054334Y-63027952D01*
X117054334Y-63170810D01*
X117006715Y-63361286D01*
X116959096Y-63456524D01*
X116863858Y-63551762D01*
X116721000Y-63599381D01*
X116482905Y-63599381D01*
X117959096Y-62599381D02*
X117482905Y-62599381D01*
X117435286Y-63075571D01*
X117482905Y-63027952D01*
X117578143Y-62980333D01*
X117816239Y-62980333D01*
X117911477Y-63027952D01*
X117959096Y-63075571D01*
X118006715Y-63170810D01*
X118006715Y-63408905D01*
X117959096Y-63504143D01*
X117911477Y-63551762D01*
X117816239Y-63599381D01*
X117578143Y-63599381D01*
X117482905Y-63551762D01*
X117435286Y-63504143D01*
X116482905Y-59535381D02*
X116482905Y-58535381D01*
X116721000Y-58535381D01*
X116863858Y-58583000D01*
X116959096Y-58678238D01*
X117006715Y-58773476D01*
X117054334Y-58963952D01*
X117054334Y-59106810D01*
X117006715Y-59297286D01*
X116959096Y-59392524D01*
X116863858Y-59487762D01*
X116721000Y-59535381D01*
X116482905Y-59535381D01*
X117911477Y-58535381D02*
X117721000Y-58535381D01*
X117625762Y-58583000D01*
X117578143Y-58630619D01*
X117482905Y-58773476D01*
X117435286Y-58963952D01*
X117435286Y-59344905D01*
X117482905Y-59440143D01*
X117530524Y-59487762D01*
X117625762Y-59535381D01*
X117816239Y-59535381D01*
X117911477Y-59487762D01*
X117959096Y-59440143D01*
X118006715Y-59344905D01*
X118006715Y-59106810D01*
X117959096Y-59011571D01*
X117911477Y-58963952D01*
X117816239Y-58916333D01*
X117625762Y-58916333D01*
X117530524Y-58963952D01*
X117482905Y-59011571D01*
X117435286Y-59106810D01*
X116482905Y-55471381D02*
X116482905Y-54471381D01*
X116721000Y-54471381D01*
X116863858Y-54519000D01*
X116959096Y-54614238D01*
X117006715Y-54709476D01*
X117054334Y-54899952D01*
X117054334Y-55042810D01*
X117006715Y-55233286D01*
X116959096Y-55328524D01*
X116863858Y-55423762D01*
X116721000Y-55471381D01*
X116482905Y-55471381D01*
X117387667Y-54471381D02*
X118054334Y-54471381D01*
X117625762Y-55471381D01*
X116482905Y-51661381D02*
X116482905Y-50661381D01*
X116721000Y-50661381D01*
X116863858Y-50709000D01*
X116959096Y-50804238D01*
X117006715Y-50899476D01*
X117054334Y-51089952D01*
X117054334Y-51232810D01*
X117006715Y-51423286D01*
X116959096Y-51518524D01*
X116863858Y-51613762D01*
X116721000Y-51661381D01*
X116482905Y-51661381D01*
X117625762Y-51089952D02*
X117530524Y-51042333D01*
X117482905Y-50994714D01*
X117435286Y-50899476D01*
X117435286Y-50851857D01*
X117482905Y-50756619D01*
X117530524Y-50709000D01*
X117625762Y-50661381D01*
X117816239Y-50661381D01*
X117911477Y-50709000D01*
X117959096Y-50756619D01*
X118006715Y-50851857D01*
X118006715Y-50899476D01*
X117959096Y-50994714D01*
X117911477Y-51042333D01*
X117816239Y-51089952D01*
X117625762Y-51089952D01*
X117530524Y-51137571D01*
X117482905Y-51185190D01*
X117435286Y-51280429D01*
X117435286Y-51470905D01*
X117482905Y-51566143D01*
X117530524Y-51613762D01*
X117625762Y-51661381D01*
X117816239Y-51661381D01*
X117911477Y-51613762D01*
X117959096Y-51566143D01*
X118006715Y-51470905D01*
X118006715Y-51280429D01*
X117959096Y-51185190D01*
X117911477Y-51137571D01*
X117816239Y-51089952D01*
X152550905Y-82720381D02*
X152550905Y-81720381D01*
X152789000Y-81720381D01*
X152931858Y-81768000D01*
X153027096Y-81863238D01*
X153074715Y-81958476D01*
X153122334Y-82148952D01*
X153122334Y-82291810D01*
X153074715Y-82482286D01*
X153027096Y-82577524D01*
X152931858Y-82672762D01*
X152789000Y-82720381D01*
X152550905Y-82720381D01*
X153598524Y-82720381D02*
X153789000Y-82720381D01*
X153884239Y-82672762D01*
X153931858Y-82625143D01*
X154027096Y-82482286D01*
X154074715Y-82291810D01*
X154074715Y-81910857D01*
X154027096Y-81815619D01*
X153979477Y-81768000D01*
X153884239Y-81720381D01*
X153693762Y-81720381D01*
X153598524Y-81768000D01*
X153550905Y-81815619D01*
X153503286Y-81910857D01*
X153503286Y-82148952D01*
X153550905Y-82244190D01*
X153598524Y-82291810D01*
X153693762Y-82339429D01*
X153884239Y-82339429D01*
X153979477Y-82291810D01*
X154027096Y-82244190D01*
X154074715Y-82148952D01*
X152074714Y-78910381D02*
X152074714Y-77910381D01*
X152312809Y-77910381D01*
X152455667Y-77958000D01*
X152550905Y-78053238D01*
X152598524Y-78148476D01*
X152646143Y-78338952D01*
X152646143Y-78481810D01*
X152598524Y-78672286D01*
X152550905Y-78767524D01*
X152455667Y-78862762D01*
X152312809Y-78910381D01*
X152074714Y-78910381D01*
X153598524Y-78910381D02*
X153027095Y-78910381D01*
X153312809Y-78910381D02*
X153312809Y-77910381D01*
X153217571Y-78053238D01*
X153122333Y-78148476D01*
X153027095Y-78196095D01*
X154217571Y-77910381D02*
X154312810Y-77910381D01*
X154408048Y-77958000D01*
X154455667Y-78005619D01*
X154503286Y-78100857D01*
X154550905Y-78291333D01*
X154550905Y-78529429D01*
X154503286Y-78719905D01*
X154455667Y-78815143D01*
X154408048Y-78862762D01*
X154312810Y-78910381D01*
X154217571Y-78910381D01*
X154122333Y-78862762D01*
X154074714Y-78815143D01*
X154027095Y-78719905D01*
X153979476Y-78529429D01*
X153979476Y-78291333D01*
X154027095Y-78100857D01*
X154074714Y-78005619D01*
X154122333Y-77958000D01*
X154217571Y-77910381D01*
X152074714Y-75100381D02*
X152074714Y-74100381D01*
X152312809Y-74100381D01*
X152455667Y-74148000D01*
X152550905Y-74243238D01*
X152598524Y-74338476D01*
X152646143Y-74528952D01*
X152646143Y-74671810D01*
X152598524Y-74862286D01*
X152550905Y-74957524D01*
X152455667Y-75052762D01*
X152312809Y-75100381D01*
X152074714Y-75100381D01*
X153598524Y-75100381D02*
X153027095Y-75100381D01*
X153312809Y-75100381D02*
X153312809Y-74100381D01*
X153217571Y-74243238D01*
X153122333Y-74338476D01*
X153027095Y-74386095D01*
X154550905Y-75100381D02*
X153979476Y-75100381D01*
X154265190Y-75100381D02*
X154265190Y-74100381D01*
X154169952Y-74243238D01*
X154074714Y-74338476D01*
X153979476Y-74386095D01*
X152074714Y-71036381D02*
X152074714Y-70036381D01*
X152312809Y-70036381D01*
X152455667Y-70084000D01*
X152550905Y-70179238D01*
X152598524Y-70274476D01*
X152646143Y-70464952D01*
X152646143Y-70607810D01*
X152598524Y-70798286D01*
X152550905Y-70893524D01*
X152455667Y-70988762D01*
X152312809Y-71036381D01*
X152074714Y-71036381D01*
X153598524Y-71036381D02*
X153027095Y-71036381D01*
X153312809Y-71036381D02*
X153312809Y-70036381D01*
X153217571Y-70179238D01*
X153122333Y-70274476D01*
X153027095Y-70322095D01*
X153979476Y-70131619D02*
X154027095Y-70084000D01*
X154122333Y-70036381D01*
X154360429Y-70036381D01*
X154455667Y-70084000D01*
X154503286Y-70131619D01*
X154550905Y-70226857D01*
X154550905Y-70322095D01*
X154503286Y-70464952D01*
X153931857Y-71036381D01*
X154550905Y-71036381D01*
X151820714Y-66972381D02*
X151820714Y-65972381D01*
X152058809Y-65972381D01*
X152201667Y-66020000D01*
X152296905Y-66115238D01*
X152344524Y-66210476D01*
X152392143Y-66400952D01*
X152392143Y-66543810D01*
X152344524Y-66734286D01*
X152296905Y-66829524D01*
X152201667Y-66924762D01*
X152058809Y-66972381D01*
X151820714Y-66972381D01*
X153344524Y-66972381D02*
X152773095Y-66972381D01*
X153058809Y-66972381D02*
X153058809Y-65972381D01*
X152963571Y-66115238D01*
X152868333Y-66210476D01*
X152773095Y-66258095D01*
X153677857Y-65972381D02*
X154296905Y-65972381D01*
X153963571Y-66353333D01*
X154106429Y-66353333D01*
X154201667Y-66400952D01*
X154249286Y-66448571D01*
X154296905Y-66543810D01*
X154296905Y-66781905D01*
X154249286Y-66877143D01*
X154201667Y-66924762D01*
X154106429Y-66972381D01*
X153820714Y-66972381D01*
X153725476Y-66924762D01*
X153677857Y-66877143D01*
X151820714Y-63162381D02*
X151820714Y-62162381D01*
X152058809Y-62162381D01*
X152201667Y-62210000D01*
X152296905Y-62305238D01*
X152344524Y-62400476D01*
X152392143Y-62590952D01*
X152392143Y-62733810D01*
X152344524Y-62924286D01*
X152296905Y-63019524D01*
X152201667Y-63114762D01*
X152058809Y-63162381D01*
X151820714Y-63162381D01*
X153344524Y-63162381D02*
X152773095Y-63162381D01*
X153058809Y-63162381D02*
X153058809Y-62162381D01*
X152963571Y-62305238D01*
X152868333Y-62400476D01*
X152773095Y-62448095D01*
X154201667Y-62495714D02*
X154201667Y-63162381D01*
X153963571Y-62114762D02*
X153725476Y-62829048D01*
X154344524Y-62829048D01*
X151820714Y-58844381D02*
X151820714Y-57844381D01*
X152058809Y-57844381D01*
X152201667Y-57892000D01*
X152296905Y-57987238D01*
X152344524Y-58082476D01*
X152392143Y-58272952D01*
X152392143Y-58415810D01*
X152344524Y-58606286D01*
X152296905Y-58701524D01*
X152201667Y-58796762D01*
X152058809Y-58844381D01*
X151820714Y-58844381D01*
X153344524Y-58844381D02*
X152773095Y-58844381D01*
X153058809Y-58844381D02*
X153058809Y-57844381D01*
X152963571Y-57987238D01*
X152868333Y-58082476D01*
X152773095Y-58130095D01*
X154249286Y-57844381D02*
X153773095Y-57844381D01*
X153725476Y-58320571D01*
X153773095Y-58272952D01*
X153868333Y-58225333D01*
X154106429Y-58225333D01*
X154201667Y-58272952D01*
X154249286Y-58320571D01*
X154296905Y-58415810D01*
X154296905Y-58653905D01*
X154249286Y-58749143D01*
X154201667Y-58796762D01*
X154106429Y-58844381D01*
X153868333Y-58844381D01*
X153773095Y-58796762D01*
X153725476Y-58749143D01*
X151820714Y-55034381D02*
X151820714Y-54034381D01*
X152058809Y-54034381D01*
X152201667Y-54082000D01*
X152296905Y-54177238D01*
X152344524Y-54272476D01*
X152392143Y-54462952D01*
X152392143Y-54605810D01*
X152344524Y-54796286D01*
X152296905Y-54891524D01*
X152201667Y-54986762D01*
X152058809Y-55034381D01*
X151820714Y-55034381D01*
X153344524Y-55034381D02*
X152773095Y-55034381D01*
X153058809Y-55034381D02*
X153058809Y-54034381D01*
X152963571Y-54177238D01*
X152868333Y-54272476D01*
X152773095Y-54320095D01*
X154201667Y-54034381D02*
X154011190Y-54034381D01*
X153915952Y-54082000D01*
X153868333Y-54129619D01*
X153773095Y-54272476D01*
X153725476Y-54462952D01*
X153725476Y-54843905D01*
X153773095Y-54939143D01*
X153820714Y-54986762D01*
X153915952Y-55034381D01*
X154106429Y-55034381D01*
X154201667Y-54986762D01*
X154249286Y-54939143D01*
X154296905Y-54843905D01*
X154296905Y-54605810D01*
X154249286Y-54510571D01*
X154201667Y-54462952D01*
X154106429Y-54415333D01*
X153915952Y-54415333D01*
X153820714Y-54462952D01*
X153773095Y-54510571D01*
X153725476Y-54605810D01*
X145760381Y-57570595D02*
X144760381Y-57570595D01*
X144760381Y-57189642D01*
X144808000Y-57094404D01*
X144855619Y-57046785D01*
X144950857Y-56999166D01*
X145093714Y-56999166D01*
X145188952Y-57046785D01*
X145236571Y-57094404D01*
X145284190Y-57189642D01*
X145284190Y-57570595D01*
X145760381Y-56046785D02*
X145760381Y-56618214D01*
X145760381Y-56332500D02*
X144760381Y-56332500D01*
X144903238Y-56427738D01*
X144998476Y-56522976D01*
X145046095Y-56618214D01*
X122134334Y-83197381D02*
X121801000Y-82721190D01*
X121562905Y-83197381D02*
X121562905Y-82197381D01*
X121943858Y-82197381D01*
X122039096Y-82245000D01*
X122086715Y-82292619D01*
X122134334Y-82387857D01*
X122134334Y-82530714D01*
X122086715Y-82625952D01*
X122039096Y-82673571D01*
X121943858Y-82721190D01*
X121562905Y-82721190D01*
X123086715Y-83197381D02*
X122515286Y-83197381D01*
X122801000Y-83197381D02*
X122801000Y-82197381D01*
X122705762Y-82340238D01*
X122610524Y-82435476D01*
X122515286Y-82483095D01*
X122134334Y-79133381D02*
X121801000Y-78657190D01*
X121562905Y-79133381D02*
X121562905Y-78133381D01*
X121943858Y-78133381D01*
X122039096Y-78181000D01*
X122086715Y-78228619D01*
X122134334Y-78323857D01*
X122134334Y-78466714D01*
X122086715Y-78561952D01*
X122039096Y-78609571D01*
X121943858Y-78657190D01*
X121562905Y-78657190D01*
X122515286Y-78228619D02*
X122562905Y-78181000D01*
X122658143Y-78133381D01*
X122896239Y-78133381D01*
X122991477Y-78181000D01*
X123039096Y-78228619D01*
X123086715Y-78323857D01*
X123086715Y-78419095D01*
X123039096Y-78561952D01*
X122467667Y-79133381D01*
X123086715Y-79133381D01*
X122134334Y-75069381D02*
X121801000Y-74593190D01*
X121562905Y-75069381D02*
X121562905Y-74069381D01*
X121943858Y-74069381D01*
X122039096Y-74117000D01*
X122086715Y-74164619D01*
X122134334Y-74259857D01*
X122134334Y-74402714D01*
X122086715Y-74497952D01*
X122039096Y-74545571D01*
X121943858Y-74593190D01*
X121562905Y-74593190D01*
X122467667Y-74069381D02*
X123086715Y-74069381D01*
X122753381Y-74450333D01*
X122896239Y-74450333D01*
X122991477Y-74497952D01*
X123039096Y-74545571D01*
X123086715Y-74640810D01*
X123086715Y-74878905D01*
X123039096Y-74974143D01*
X122991477Y-75021762D01*
X122896239Y-75069381D01*
X122610524Y-75069381D01*
X122515286Y-75021762D01*
X122467667Y-74974143D01*
X122134334Y-71513381D02*
X121801000Y-71037190D01*
X121562905Y-71513381D02*
X121562905Y-70513381D01*
X121943858Y-70513381D01*
X122039096Y-70561000D01*
X122086715Y-70608619D01*
X122134334Y-70703857D01*
X122134334Y-70846714D01*
X122086715Y-70941952D01*
X122039096Y-70989571D01*
X121943858Y-71037190D01*
X121562905Y-71037190D01*
X122991477Y-70846714D02*
X122991477Y-71513381D01*
X122753381Y-70465762D02*
X122515286Y-71180048D01*
X123134334Y-71180048D01*
X122134334Y-67449381D02*
X121801000Y-66973190D01*
X121562905Y-67449381D02*
X121562905Y-66449381D01*
X121943858Y-66449381D01*
X122039096Y-66497000D01*
X122086715Y-66544619D01*
X122134334Y-66639857D01*
X122134334Y-66782714D01*
X122086715Y-66877952D01*
X122039096Y-66925571D01*
X121943858Y-66973190D01*
X121562905Y-66973190D01*
X123039096Y-66449381D02*
X122562905Y-66449381D01*
X122515286Y-66925571D01*
X122562905Y-66877952D01*
X122658143Y-66830333D01*
X122896239Y-66830333D01*
X122991477Y-66877952D01*
X123039096Y-66925571D01*
X123086715Y-67020810D01*
X123086715Y-67258905D01*
X123039096Y-67354143D01*
X122991477Y-67401762D01*
X122896239Y-67449381D01*
X122658143Y-67449381D01*
X122562905Y-67401762D01*
X122515286Y-67354143D01*
X122134334Y-63385381D02*
X121801000Y-62909190D01*
X121562905Y-63385381D02*
X121562905Y-62385381D01*
X121943858Y-62385381D01*
X122039096Y-62433000D01*
X122086715Y-62480619D01*
X122134334Y-62575857D01*
X122134334Y-62718714D01*
X122086715Y-62813952D01*
X122039096Y-62861571D01*
X121943858Y-62909190D01*
X121562905Y-62909190D01*
X122991477Y-62385381D02*
X122801000Y-62385381D01*
X122705762Y-62433000D01*
X122658143Y-62480619D01*
X122562905Y-62623476D01*
X122515286Y-62813952D01*
X122515286Y-63194905D01*
X122562905Y-63290143D01*
X122610524Y-63337762D01*
X122705762Y-63385381D01*
X122896239Y-63385381D01*
X122991477Y-63337762D01*
X123039096Y-63290143D01*
X123086715Y-63194905D01*
X123086715Y-62956810D01*
X123039096Y-62861571D01*
X122991477Y-62813952D01*
X122896239Y-62766333D01*
X122705762Y-62766333D01*
X122610524Y-62813952D01*
X122562905Y-62861571D01*
X122515286Y-62956810D01*
X122134334Y-59321381D02*
X121801000Y-58845190D01*
X121562905Y-59321381D02*
X121562905Y-58321381D01*
X121943858Y-58321381D01*
X122039096Y-58369000D01*
X122086715Y-58416619D01*
X122134334Y-58511857D01*
X122134334Y-58654714D01*
X122086715Y-58749952D01*
X122039096Y-58797571D01*
X121943858Y-58845190D01*
X121562905Y-58845190D01*
X122467667Y-58321381D02*
X123134334Y-58321381D01*
X122705762Y-59321381D01*
X122134334Y-55511381D02*
X121801000Y-55035190D01*
X121562905Y-55511381D02*
X121562905Y-54511381D01*
X121943858Y-54511381D01*
X122039096Y-54559000D01*
X122086715Y-54606619D01*
X122134334Y-54701857D01*
X122134334Y-54844714D01*
X122086715Y-54939952D01*
X122039096Y-54987571D01*
X121943858Y-55035190D01*
X121562905Y-55035190D01*
X122705762Y-54939952D02*
X122610524Y-54892333D01*
X122562905Y-54844714D01*
X122515286Y-54749476D01*
X122515286Y-54701857D01*
X122562905Y-54606619D01*
X122610524Y-54559000D01*
X122705762Y-54511381D01*
X122896239Y-54511381D01*
X122991477Y-54559000D01*
X123039096Y-54606619D01*
X123086715Y-54701857D01*
X123086715Y-54749476D01*
X123039096Y-54844714D01*
X122991477Y-54892333D01*
X122896239Y-54939952D01*
X122705762Y-54939952D01*
X122610524Y-54987571D01*
X122562905Y-55035190D01*
X122515286Y-55130429D01*
X122515286Y-55320905D01*
X122562905Y-55416143D01*
X122610524Y-55463762D01*
X122705762Y-55511381D01*
X122896239Y-55511381D01*
X122991477Y-55463762D01*
X123039096Y-55416143D01*
X123086715Y-55320905D01*
X123086715Y-55130429D01*
X123039096Y-55035190D01*
X122991477Y-54987571D01*
X122896239Y-54939952D01*
X147788334Y-78870381D02*
X147455000Y-78394190D01*
X147216905Y-78870381D02*
X147216905Y-77870381D01*
X147597858Y-77870381D01*
X147693096Y-77918000D01*
X147740715Y-77965619D01*
X147788334Y-78060857D01*
X147788334Y-78203714D01*
X147740715Y-78298952D01*
X147693096Y-78346571D01*
X147597858Y-78394190D01*
X147216905Y-78394190D01*
X148264524Y-78870381D02*
X148455000Y-78870381D01*
X148550239Y-78822762D01*
X148597858Y-78775143D01*
X148693096Y-78632286D01*
X148740715Y-78441810D01*
X148740715Y-78060857D01*
X148693096Y-77965619D01*
X148645477Y-77918000D01*
X148550239Y-77870381D01*
X148359762Y-77870381D01*
X148264524Y-77918000D01*
X148216905Y-77965619D01*
X148169286Y-78060857D01*
X148169286Y-78298952D01*
X148216905Y-78394190D01*
X148264524Y-78441810D01*
X148359762Y-78489429D01*
X148550239Y-78489429D01*
X148645477Y-78441810D01*
X148693096Y-78394190D01*
X148740715Y-78298952D01*
X147312143Y-75060381D02*
X146978809Y-74584190D01*
X146740714Y-75060381D02*
X146740714Y-74060381D01*
X147121667Y-74060381D01*
X147216905Y-74108000D01*
X147264524Y-74155619D01*
X147312143Y-74250857D01*
X147312143Y-74393714D01*
X147264524Y-74488952D01*
X147216905Y-74536571D01*
X147121667Y-74584190D01*
X146740714Y-74584190D01*
X148264524Y-75060381D02*
X147693095Y-75060381D01*
X147978809Y-75060381D02*
X147978809Y-74060381D01*
X147883571Y-74203238D01*
X147788333Y-74298476D01*
X147693095Y-74346095D01*
X148883571Y-74060381D02*
X148978810Y-74060381D01*
X149074048Y-74108000D01*
X149121667Y-74155619D01*
X149169286Y-74250857D01*
X149216905Y-74441333D01*
X149216905Y-74679429D01*
X149169286Y-74869905D01*
X149121667Y-74965143D01*
X149074048Y-75012762D01*
X148978810Y-75060381D01*
X148883571Y-75060381D01*
X148788333Y-75012762D01*
X148740714Y-74965143D01*
X148693095Y-74869905D01*
X148645476Y-74679429D01*
X148645476Y-74441333D01*
X148693095Y-74250857D01*
X148740714Y-74155619D01*
X148788333Y-74108000D01*
X148883571Y-74060381D01*
X147312143Y-71250381D02*
X146978809Y-70774190D01*
X146740714Y-71250381D02*
X146740714Y-70250381D01*
X147121667Y-70250381D01*
X147216905Y-70298000D01*
X147264524Y-70345619D01*
X147312143Y-70440857D01*
X147312143Y-70583714D01*
X147264524Y-70678952D01*
X147216905Y-70726571D01*
X147121667Y-70774190D01*
X146740714Y-70774190D01*
X148264524Y-71250381D02*
X147693095Y-71250381D01*
X147978809Y-71250381D02*
X147978809Y-70250381D01*
X147883571Y-70393238D01*
X147788333Y-70488476D01*
X147693095Y-70536095D01*
X149216905Y-71250381D02*
X148645476Y-71250381D01*
X148931190Y-71250381D02*
X148931190Y-70250381D01*
X148835952Y-70393238D01*
X148740714Y-70488476D01*
X148645476Y-70536095D01*
X147312143Y-67186381D02*
X146978809Y-66710190D01*
X146740714Y-67186381D02*
X146740714Y-66186381D01*
X147121667Y-66186381D01*
X147216905Y-66234000D01*
X147264524Y-66281619D01*
X147312143Y-66376857D01*
X147312143Y-66519714D01*
X147264524Y-66614952D01*
X147216905Y-66662571D01*
X147121667Y-66710190D01*
X146740714Y-66710190D01*
X148264524Y-67186381D02*
X147693095Y-67186381D01*
X147978809Y-67186381D02*
X147978809Y-66186381D01*
X147883571Y-66329238D01*
X147788333Y-66424476D01*
X147693095Y-66472095D01*
X148645476Y-66281619D02*
X148693095Y-66234000D01*
X148788333Y-66186381D01*
X149026429Y-66186381D01*
X149121667Y-66234000D01*
X149169286Y-66281619D01*
X149216905Y-66376857D01*
X149216905Y-66472095D01*
X149169286Y-66614952D01*
X148597857Y-67186381D01*
X149216905Y-67186381D01*
X147312143Y-63122381D02*
X146978809Y-62646190D01*
X146740714Y-63122381D02*
X146740714Y-62122381D01*
X147121667Y-62122381D01*
X147216905Y-62170000D01*
X147264524Y-62217619D01*
X147312143Y-62312857D01*
X147312143Y-62455714D01*
X147264524Y-62550952D01*
X147216905Y-62598571D01*
X147121667Y-62646190D01*
X146740714Y-62646190D01*
X148264524Y-63122381D02*
X147693095Y-63122381D01*
X147978809Y-63122381D02*
X147978809Y-62122381D01*
X147883571Y-62265238D01*
X147788333Y-62360476D01*
X147693095Y-62408095D01*
X148597857Y-62122381D02*
X149216905Y-62122381D01*
X148883571Y-62503333D01*
X149026429Y-62503333D01*
X149121667Y-62550952D01*
X149169286Y-62598571D01*
X149216905Y-62693810D01*
X149216905Y-62931905D01*
X149169286Y-63027143D01*
X149121667Y-63074762D01*
X149026429Y-63122381D01*
X148740714Y-63122381D01*
X148645476Y-63074762D01*
X148597857Y-63027143D01*
X147312143Y-59312381D02*
X146978809Y-58836190D01*
X146740714Y-59312381D02*
X146740714Y-58312381D01*
X147121667Y-58312381D01*
X147216905Y-58360000D01*
X147264524Y-58407619D01*
X147312143Y-58502857D01*
X147312143Y-58645714D01*
X147264524Y-58740952D01*
X147216905Y-58788571D01*
X147121667Y-58836190D01*
X146740714Y-58836190D01*
X148264524Y-59312381D02*
X147693095Y-59312381D01*
X147978809Y-59312381D02*
X147978809Y-58312381D01*
X147883571Y-58455238D01*
X147788333Y-58550476D01*
X147693095Y-58598095D01*
X149121667Y-58645714D02*
X149121667Y-59312381D01*
X148883571Y-58264762D02*
X148645476Y-58979048D01*
X149264524Y-58979048D01*
X147312143Y-54994381D02*
X146978809Y-54518190D01*
X146740714Y-54994381D02*
X146740714Y-53994381D01*
X147121667Y-53994381D01*
X147216905Y-54042000D01*
X147264524Y-54089619D01*
X147312143Y-54184857D01*
X147312143Y-54327714D01*
X147264524Y-54422952D01*
X147216905Y-54470571D01*
X147121667Y-54518190D01*
X146740714Y-54518190D01*
X148264524Y-54994381D02*
X147693095Y-54994381D01*
X147978809Y-54994381D02*
X147978809Y-53994381D01*
X147883571Y-54137238D01*
X147788333Y-54232476D01*
X147693095Y-54280095D01*
X149169286Y-53994381D02*
X148693095Y-53994381D01*
X148645476Y-54470571D01*
X148693095Y-54422952D01*
X148788333Y-54375333D01*
X149026429Y-54375333D01*
X149121667Y-54422952D01*
X149169286Y-54470571D01*
X149216905Y-54565810D01*
X149216905Y-54803905D01*
X149169286Y-54899143D01*
X149121667Y-54946762D01*
X149026429Y-54994381D01*
X148788333Y-54994381D01*
X148693095Y-54946762D01*
X148645476Y-54899143D01*
X147312143Y-51184381D02*
X146978809Y-50708190D01*
X146740714Y-51184381D02*
X146740714Y-50184381D01*
X147121667Y-50184381D01*
X147216905Y-50232000D01*
X147264524Y-50279619D01*
X147312143Y-50374857D01*
X147312143Y-50517714D01*
X147264524Y-50612952D01*
X147216905Y-50660571D01*
X147121667Y-50708190D01*
X146740714Y-50708190D01*
X148264524Y-51184381D02*
X147693095Y-51184381D01*
X147978809Y-51184381D02*
X147978809Y-50184381D01*
X147883571Y-50327238D01*
X147788333Y-50422476D01*
X147693095Y-50470095D01*
X149121667Y-50184381D02*
X148931190Y-50184381D01*
X148835952Y-50232000D01*
X148788333Y-50279619D01*
X148693095Y-50422476D01*
X148645476Y-50612952D01*
X148645476Y-50993905D01*
X148693095Y-51089143D01*
X148740714Y-51136762D01*
X148835952Y-51184381D01*
X149026429Y-51184381D01*
X149121667Y-51136762D01*
X149169286Y-51089143D01*
X149216905Y-50993905D01*
X149216905Y-50755810D01*
X149169286Y-50660571D01*
X149121667Y-50612952D01*
X149026429Y-50565333D01*
X148835952Y-50565333D01*
X148740714Y-50612952D01*
X148693095Y-50660571D01*
X148645476Y-50755810D01*
X128674881Y-67119405D02*
X129484405Y-67119405D01*
X129579643Y-67071786D01*
X129627262Y-67024167D01*
X129674881Y-66928929D01*
X129674881Y-66738452D01*
X129627262Y-66643214D01*
X129579643Y-66595595D01*
X129484405Y-66547976D01*
X128674881Y-66547976D01*
X129674881Y-65547976D02*
X129674881Y-66119405D01*
X129674881Y-65833691D02*
X128674881Y-65833691D01*
X128817738Y-65928929D01*
X128912976Y-66024167D01*
X128960595Y-66119405D01*
M02*
