G04 #@! TF.FileFunction,Copper,L1,Top,Signal*
%FSLAX46Y46*%
G04 Gerber Fmt 4.6, Leading zero omitted, Abs format (unit mm)*
G04 Created by KiCad (PCBNEW 4.0.1-stable) date 2016 September 18, Sunday 15:01:05*
%MOMM*%
G01*
G04 APERTURE LIST*
%ADD10C,0.100000*%
%ADD11R,1.143000X0.508000*%
%ADD12R,3.599180X1.600200*%
%ADD13R,1.198880X1.198880*%
%ADD14R,1.727200X2.032000*%
%ADD15O,1.727200X2.032000*%
%ADD16R,1.500000X1.300000*%
%ADD17C,0.400000*%
%ADD18C,0.600000*%
%ADD19C,0.380000*%
%ADD20C,0.250000*%
%ADD21C,0.254000*%
G04 APERTURE END LIST*
D10*
D11*
X136652000Y-70866000D03*
X136652000Y-68326000D03*
X136652000Y-67056000D03*
X136652000Y-65786000D03*
X136652000Y-64516000D03*
X136652000Y-63246000D03*
X136652000Y-61976000D03*
X143002000Y-61976000D03*
X143002000Y-63246000D03*
X143002000Y-64516000D03*
X143002000Y-65786000D03*
X143002000Y-67056000D03*
X143002000Y-68326000D03*
X143002000Y-69596000D03*
X143002000Y-70866000D03*
X136652000Y-69596000D03*
D12*
X138069320Y-77343000D03*
X132567680Y-77343000D03*
D13*
X118270020Y-80645000D03*
X116171980Y-80645000D03*
X118270020Y-76581000D03*
X116171980Y-76581000D03*
X118270020Y-72517000D03*
X116171980Y-72517000D03*
X118270020Y-68961000D03*
X116171980Y-68961000D03*
X118270020Y-64897000D03*
X116171980Y-64897000D03*
X118270020Y-60833000D03*
X116171980Y-60833000D03*
X118270020Y-56769000D03*
X116171980Y-56769000D03*
X118270020Y-52959000D03*
X116171980Y-52959000D03*
X152239980Y-80518000D03*
X154338020Y-80518000D03*
X152239980Y-76708000D03*
X154338020Y-76708000D03*
X152239980Y-72898000D03*
X154338020Y-72898000D03*
X152239980Y-68834000D03*
X154338020Y-68834000D03*
X151985980Y-64770000D03*
X154084020Y-64770000D03*
X151985980Y-60960000D03*
X154084020Y-60960000D03*
X151985980Y-56642000D03*
X154084020Y-56642000D03*
X151985980Y-52832000D03*
X154084020Y-52832000D03*
D14*
X140208000Y-56832500D03*
D15*
X137668000Y-56832500D03*
X135128000Y-56832500D03*
X132588000Y-56832500D03*
X130048000Y-56832500D03*
D16*
X123651000Y-80645000D03*
X120951000Y-80645000D03*
X123651000Y-76581000D03*
X120951000Y-76581000D03*
X123651000Y-72517000D03*
X120951000Y-72517000D03*
X123651000Y-68961000D03*
X120951000Y-68961000D03*
X123651000Y-64897000D03*
X120951000Y-64897000D03*
X123651000Y-60833000D03*
X120951000Y-60833000D03*
X123651000Y-56769000D03*
X120951000Y-56769000D03*
X123651000Y-52959000D03*
X120951000Y-52959000D03*
X146605000Y-80518000D03*
X149305000Y-80518000D03*
X146605000Y-76708000D03*
X149305000Y-76708000D03*
X146605000Y-72898000D03*
X149305000Y-72898000D03*
X146605000Y-68834000D03*
X149305000Y-68834000D03*
X146605000Y-64770000D03*
X149305000Y-64770000D03*
X146605000Y-60960000D03*
X149305000Y-60960000D03*
X146605000Y-56642000D03*
X149305000Y-56642000D03*
X146605000Y-52832000D03*
X149305000Y-52832000D03*
D11*
X127317500Y-70929500D03*
X127317500Y-68389500D03*
X127317500Y-67119500D03*
X127317500Y-65849500D03*
X127317500Y-64579500D03*
X127317500Y-63309500D03*
X127317500Y-62039500D03*
X133667500Y-62039500D03*
X133667500Y-63309500D03*
X133667500Y-64579500D03*
X133667500Y-65849500D03*
X133667500Y-67119500D03*
X133667500Y-68389500D03*
X133667500Y-69659500D03*
X133667500Y-70929500D03*
X127317500Y-69659500D03*
D17*
X134937500Y-66103500D03*
X143002000Y-59690000D03*
X133667500Y-59753500D03*
D18*
X127444500Y-81597500D03*
X117030500Y-82804000D03*
X129857500Y-75628500D03*
X117411500Y-78486000D03*
X129857500Y-74422000D03*
X117284500Y-74358500D03*
X134737177Y-71226296D03*
X117094000Y-70739000D03*
X132270500Y-68580000D03*
X117094000Y-66802000D03*
X131572000Y-66738500D03*
X117157500Y-62611000D03*
X130556000Y-65532000D03*
X117221000Y-58547000D03*
X131508500Y-61912500D03*
X117094000Y-54546500D03*
X138112500Y-69469000D03*
X140208000Y-69659500D03*
X145224500Y-74676000D03*
X153416000Y-74676000D03*
X153416000Y-71818500D03*
X145097500Y-71691500D03*
X145097500Y-70675500D03*
X153289000Y-70675500D03*
X145034000Y-67437000D03*
X152908000Y-66992500D03*
X153035000Y-62357000D03*
X145034000Y-66484500D03*
X152527000Y-58102500D03*
X145034000Y-65532000D03*
X144843500Y-62674500D03*
X153035000Y-54483000D03*
X129095500Y-68008500D03*
X129095500Y-59817000D03*
X139319000Y-63690500D03*
X138938000Y-61722000D03*
D19*
X140081000Y-68707000D02*
X137922000Y-70866000D01*
X137922000Y-70866000D02*
X136652000Y-70866000D01*
X140144500Y-68707000D02*
X140081000Y-68707000D01*
X140144500Y-61722000D02*
X140144500Y-68707000D01*
X123651000Y-52959000D02*
X137858500Y-52959000D01*
X137858500Y-52959000D02*
X140208000Y-55308500D01*
X138069320Y-77343000D02*
X138069320Y-72283320D01*
X138069320Y-72283320D02*
X136652000Y-70866000D01*
X123651000Y-64897000D02*
X123651000Y-68961000D01*
X123651000Y-76581000D02*
X123651000Y-80645000D01*
X123651000Y-72517000D02*
X123651000Y-76581000D01*
X123651000Y-68961000D02*
X123651000Y-72517000D01*
X127317500Y-70929500D02*
X125238500Y-70929500D01*
X125238500Y-70929500D02*
X123651000Y-72517000D01*
X123651000Y-56769000D02*
X123651000Y-52959000D01*
X123651000Y-60833000D02*
X123651000Y-56769000D01*
X123651000Y-64897000D02*
X123651000Y-60833000D01*
X127317500Y-63309500D02*
X125238500Y-63309500D01*
X125238500Y-63309500D02*
X123651000Y-64897000D01*
X146605000Y-76708000D02*
X146605000Y-80518000D01*
X146605000Y-72898000D02*
X146605000Y-76708000D01*
X146605000Y-68834000D02*
X146605000Y-72898000D01*
X146605000Y-64770000D02*
X146605000Y-68834000D01*
X146605000Y-60960000D02*
X146605000Y-64770000D01*
X146605000Y-56642000D02*
X146605000Y-60960000D01*
X146605000Y-52832000D02*
X146605000Y-56642000D01*
X140208000Y-56832500D02*
X140208000Y-55308500D01*
X142684500Y-52832000D02*
X146605000Y-52832000D01*
X140208000Y-55308500D02*
X142684500Y-52832000D01*
X140208000Y-56832500D02*
X140208000Y-61658500D01*
X138620500Y-63246000D02*
X138557000Y-63246000D01*
X138557000Y-63246000D02*
X136652000Y-63246000D01*
X140208000Y-61658500D02*
X138620500Y-63246000D01*
X135191500Y-66548000D02*
X135191500Y-66357500D01*
X132567680Y-74442320D02*
X135477178Y-71532822D01*
X135477178Y-71532822D02*
X135477178Y-69082634D01*
X135477178Y-69082634D02*
X135191500Y-68796956D01*
X135191500Y-68796956D02*
X135191500Y-66548000D01*
X132567680Y-77343000D02*
X132567680Y-74442320D01*
X135191500Y-66357500D02*
X134937500Y-66103500D01*
X143002000Y-59690000D02*
X143002000Y-61976000D01*
X133667500Y-59753500D02*
X133667500Y-62039500D01*
D20*
X120951000Y-80645000D02*
X118270020Y-80645000D01*
X116171980Y-80645000D02*
X116171980Y-81945480D01*
X128524000Y-69659500D02*
X127317500Y-69659500D01*
X128841500Y-69977000D02*
X128524000Y-69659500D01*
X128841500Y-80200500D02*
X128841500Y-69977000D01*
X127444500Y-81597500D02*
X128841500Y-80200500D01*
X116171980Y-81945480D02*
X117030500Y-82804000D01*
X120951000Y-76581000D02*
X118270020Y-76581000D01*
X116171980Y-76581000D02*
X116171980Y-77246480D01*
X133667500Y-71818500D02*
X133667500Y-70929500D01*
X129857500Y-75628500D02*
X133667500Y-71818500D01*
X116171980Y-77246480D02*
X117411500Y-78486000D01*
X120951000Y-72517000D02*
X118270020Y-72517000D01*
X116171980Y-72517000D02*
X116171980Y-73245980D01*
X132461000Y-69659500D02*
X133667500Y-69659500D01*
X131826000Y-70294500D02*
X132461000Y-69659500D01*
X131826000Y-72453500D02*
X131826000Y-70294500D01*
X129857500Y-74422000D02*
X131826000Y-72453500D01*
X116171980Y-73245980D02*
X117284500Y-74358500D01*
X120951000Y-68961000D02*
X118270020Y-68961000D01*
X134737177Y-70802032D02*
X134737177Y-71226296D01*
X134737177Y-69141677D02*
X134737177Y-70802032D01*
X133985000Y-68389500D02*
X134737177Y-69141677D01*
X133667500Y-68389500D02*
X133985000Y-68389500D01*
X116171980Y-68961000D02*
X116171980Y-69816980D01*
X116171980Y-69816980D02*
X117094000Y-70739000D01*
X120951000Y-64897000D02*
X118270020Y-64897000D01*
X116171980Y-64897000D02*
X116171980Y-65879980D01*
X132715000Y-67119500D02*
X133667500Y-67119500D01*
X132270500Y-67564000D02*
X132715000Y-67119500D01*
X132270500Y-68580000D02*
X132270500Y-67564000D01*
X116171980Y-65879980D02*
X117094000Y-66802000D01*
X120951000Y-60833000D02*
X118270020Y-60833000D01*
X116171980Y-60833000D02*
X116171980Y-61625480D01*
X132461000Y-65849500D02*
X133667500Y-65849500D01*
X131572000Y-66738500D02*
X132461000Y-65849500D01*
X116171980Y-61625480D02*
X117157500Y-62611000D01*
X120951000Y-56769000D02*
X118270020Y-56769000D01*
X116171980Y-56769000D02*
X116171980Y-57497980D01*
X131508500Y-64579500D02*
X133667500Y-64579500D01*
X130556000Y-65532000D02*
X131508500Y-64579500D01*
X116171980Y-57497980D02*
X117221000Y-58547000D01*
X120951000Y-52959000D02*
X118270020Y-52959000D01*
X116171980Y-52959000D02*
X116171980Y-53624480D01*
X132905500Y-63309500D02*
X133667500Y-63309500D01*
X131508500Y-61912500D02*
X132905500Y-63309500D01*
X116171980Y-53624480D02*
X117094000Y-54546500D01*
X149305000Y-80518000D02*
X152239980Y-80518000D01*
X140652500Y-70548500D02*
X140652500Y-70104000D01*
X137985500Y-69596000D02*
X136652000Y-69596000D01*
X138112500Y-69469000D02*
X137985500Y-69596000D01*
X140652500Y-70104000D02*
X140208000Y-69659500D01*
X140652500Y-79883000D02*
X140652500Y-70548500D01*
X140652500Y-70548500D02*
X140652500Y-70547186D01*
X143065500Y-82296000D02*
X140652500Y-79883000D01*
X153409460Y-82296000D02*
X143065500Y-82296000D01*
X154338020Y-81367440D02*
X153409460Y-82296000D01*
X154338020Y-80518000D02*
X154338020Y-81367440D01*
X149305000Y-76708000D02*
X152239980Y-76708000D01*
X154338020Y-76708000D02*
X154338020Y-75598020D01*
X143002000Y-72453500D02*
X143002000Y-70866000D01*
X145224500Y-74676000D02*
X143002000Y-72453500D01*
X154338020Y-75598020D02*
X153416000Y-74676000D01*
X149305000Y-72898000D02*
X152239980Y-72898000D01*
X145097500Y-71691500D02*
X144472499Y-71066499D01*
X144472499Y-71066499D02*
X144472499Y-70748999D01*
X144472499Y-70748999D02*
X143319500Y-69596000D01*
X143319500Y-69596000D02*
X143002000Y-69596000D01*
X154338020Y-72898000D02*
X154338020Y-72740520D01*
X154338020Y-72740520D02*
X153416000Y-71818500D01*
X149305000Y-68834000D02*
X152239980Y-68834000D01*
X144208500Y-68326000D02*
X143002000Y-68326000D01*
X144526000Y-68643500D02*
X144208500Y-68326000D01*
X144526000Y-70104000D02*
X144526000Y-68643500D01*
X145097500Y-70675500D02*
X144526000Y-70104000D01*
X154338020Y-69626480D02*
X153289000Y-70675500D01*
X154338020Y-68834000D02*
X154338020Y-69626480D01*
X149305000Y-64770000D02*
X151985980Y-64770000D01*
X154084020Y-64770000D02*
X154084020Y-65816480D01*
X144653000Y-67056000D02*
X143002000Y-67056000D01*
X145034000Y-67437000D02*
X144653000Y-67056000D01*
X154084020Y-65816480D02*
X152908000Y-66992500D01*
X149305000Y-60960000D02*
X151985980Y-60960000D01*
X154084020Y-60960000D02*
X154084020Y-61307980D01*
X154084020Y-61307980D02*
X153035000Y-62357000D01*
X145034000Y-66484500D02*
X144335500Y-65786000D01*
X144335500Y-65786000D02*
X143002000Y-65786000D01*
X149305000Y-56642000D02*
X151985980Y-56642000D01*
X154084020Y-56642000D02*
X153987500Y-56642000D01*
X153987500Y-56642000D02*
X152527000Y-58102500D01*
X145034000Y-65532000D02*
X144018000Y-64516000D01*
X144018000Y-64516000D02*
X143002000Y-64516000D01*
X149305000Y-52832000D02*
X151985980Y-52832000D01*
X154084020Y-52832000D02*
X154084020Y-53433980D01*
X144272000Y-63246000D02*
X143002000Y-63246000D01*
X144843500Y-62674500D02*
X144272000Y-63246000D01*
X154084020Y-53433980D02*
X153035000Y-54483000D01*
X133572250Y-58388250D02*
X135128000Y-59944000D01*
X135699500Y-65786000D02*
X136652000Y-65786000D01*
X135128000Y-65214500D02*
X135699500Y-65786000D01*
X135128000Y-59944000D02*
X135128000Y-65214500D01*
X135128000Y-56832500D02*
X133572250Y-58388250D01*
X133572250Y-58388250D02*
X131889500Y-60071000D01*
X128841500Y-65849500D02*
X127317500Y-65849500D01*
X129349500Y-65341500D02*
X128841500Y-65849500D01*
X129349500Y-61341000D02*
X129349500Y-65341500D01*
X130619500Y-60071000D02*
X129349500Y-61341000D01*
X131889500Y-60071000D02*
X130619500Y-60071000D01*
X136086002Y-64516000D02*
X136652000Y-64516000D01*
X135578002Y-64008000D02*
X136086002Y-64516000D01*
X135578002Y-60001998D02*
X135578002Y-64008000D01*
X136398000Y-59182000D02*
X135578002Y-60001998D01*
X136398000Y-55689500D02*
X136398000Y-59182000D01*
X135445500Y-54737000D02*
X136398000Y-55689500D01*
X133731000Y-54737000D02*
X135445500Y-54737000D01*
X132588000Y-55880000D02*
X133731000Y-54737000D01*
X132588000Y-56832500D02*
X132588000Y-55880000D01*
X128206500Y-64579500D02*
X127317500Y-64579500D01*
X128841500Y-63944500D02*
X128206500Y-64579500D01*
X128841500Y-60960000D02*
X128841500Y-63944500D01*
X132588000Y-57213500D02*
X128841500Y-60960000D01*
X132588000Y-56832500D02*
X132588000Y-57213500D01*
X130048000Y-56832500D02*
X130048000Y-58864500D01*
X128714500Y-68389500D02*
X127317500Y-68389500D01*
X129095500Y-68008500D02*
X128714500Y-68389500D01*
X130048000Y-58864500D02*
X129095500Y-59817000D01*
X139319000Y-63690500D02*
X139019001Y-63990499D01*
X139019001Y-63990499D02*
X139019001Y-66276499D01*
X139019001Y-66276499D02*
X136969500Y-68326000D01*
X136969500Y-68326000D02*
X136652000Y-68326000D01*
X127317500Y-62039500D02*
X127317500Y-55626000D01*
X138938000Y-55181500D02*
X138938000Y-61722000D01*
X137477500Y-53721000D02*
X138938000Y-55181500D01*
X129222500Y-53721000D02*
X137477500Y-53721000D01*
X127317500Y-55626000D02*
X129222500Y-53721000D01*
D21*
G36*
X155373000Y-67763612D02*
X155189350Y-67638129D01*
X154937460Y-67587120D01*
X153738580Y-67587120D01*
X153611911Y-67610955D01*
X153700192Y-67522827D01*
X153842838Y-67179299D01*
X153842879Y-67132423D01*
X154621421Y-66353881D01*
X154786168Y-66107320D01*
X154799559Y-66040000D01*
X154808851Y-65993286D01*
X154918777Y-65972602D01*
X155134901Y-65833530D01*
X155279891Y-65621330D01*
X155330900Y-65369440D01*
X155330900Y-64170560D01*
X155286622Y-63935243D01*
X155147550Y-63719119D01*
X154935350Y-63574129D01*
X154683460Y-63523120D01*
X153484580Y-63523120D01*
X153249263Y-63567398D01*
X153033139Y-63706470D01*
X153032457Y-63707467D01*
X152837310Y-63574129D01*
X152585420Y-63523120D01*
X151386540Y-63523120D01*
X151151223Y-63567398D01*
X150935099Y-63706470D01*
X150790109Y-63918670D01*
X150771614Y-64010000D01*
X150681742Y-64010000D01*
X150658162Y-63884683D01*
X150519090Y-63668559D01*
X150306890Y-63523569D01*
X150055000Y-63472560D01*
X148555000Y-63472560D01*
X148319683Y-63516838D01*
X148103559Y-63655910D01*
X147958569Y-63868110D01*
X147951809Y-63901490D01*
X147893327Y-63760301D01*
X147714698Y-63581673D01*
X147481309Y-63485000D01*
X146890750Y-63485000D01*
X146732000Y-63643750D01*
X146732000Y-64643000D01*
X146752000Y-64643000D01*
X146752000Y-64897000D01*
X146732000Y-64897000D01*
X146732000Y-65896250D01*
X146890750Y-66055000D01*
X147481309Y-66055000D01*
X147714698Y-65958327D01*
X147893327Y-65779699D01*
X147949654Y-65643713D01*
X147951838Y-65655317D01*
X148090910Y-65871441D01*
X148303110Y-66016431D01*
X148555000Y-66067440D01*
X150055000Y-66067440D01*
X150290317Y-66023162D01*
X150506441Y-65884090D01*
X150651431Y-65671890D01*
X150680164Y-65530000D01*
X150769311Y-65530000D01*
X150783378Y-65604757D01*
X150922450Y-65820881D01*
X151134650Y-65965871D01*
X151386540Y-66016880D01*
X152585420Y-66016880D01*
X152820737Y-65972602D01*
X152911501Y-65914197D01*
X152768320Y-66057378D01*
X152722833Y-66057338D01*
X152379057Y-66199383D01*
X152115808Y-66462173D01*
X151973162Y-66805701D01*
X151972838Y-67177667D01*
X152114883Y-67521443D01*
X152180445Y-67587120D01*
X151640540Y-67587120D01*
X151405223Y-67631398D01*
X151189099Y-67770470D01*
X151044109Y-67982670D01*
X151025614Y-68074000D01*
X150681742Y-68074000D01*
X150658162Y-67948683D01*
X150519090Y-67732559D01*
X150306890Y-67587569D01*
X150055000Y-67536560D01*
X148555000Y-67536560D01*
X148319683Y-67580838D01*
X148103559Y-67719910D01*
X147958569Y-67932110D01*
X147951809Y-67965490D01*
X147893327Y-67824301D01*
X147714698Y-67645673D01*
X147481309Y-67549000D01*
X146890750Y-67549000D01*
X146732000Y-67707750D01*
X146732000Y-68707000D01*
X146752000Y-68707000D01*
X146752000Y-68961000D01*
X146732000Y-68961000D01*
X146732000Y-69960250D01*
X146890750Y-70119000D01*
X147481309Y-70119000D01*
X147714698Y-70022327D01*
X147893327Y-69843699D01*
X147949654Y-69707713D01*
X147951838Y-69719317D01*
X148090910Y-69935441D01*
X148303110Y-70080431D01*
X148555000Y-70131440D01*
X150055000Y-70131440D01*
X150290317Y-70087162D01*
X150506441Y-69948090D01*
X150651431Y-69735890D01*
X150680164Y-69594000D01*
X151023311Y-69594000D01*
X151037378Y-69668757D01*
X151176450Y-69884881D01*
X151388650Y-70029871D01*
X151640540Y-70080880D01*
X152561213Y-70080880D01*
X152496808Y-70145173D01*
X152354162Y-70488701D01*
X152353838Y-70860667D01*
X152495883Y-71204443D01*
X152610782Y-71319543D01*
X152481162Y-71631701D01*
X152481145Y-71651120D01*
X151640540Y-71651120D01*
X151405223Y-71695398D01*
X151189099Y-71834470D01*
X151044109Y-72046670D01*
X151025614Y-72138000D01*
X150681742Y-72138000D01*
X150658162Y-72012683D01*
X150519090Y-71796559D01*
X150306890Y-71651569D01*
X150055000Y-71600560D01*
X148555000Y-71600560D01*
X148319683Y-71644838D01*
X148103559Y-71783910D01*
X147958569Y-71996110D01*
X147951809Y-72029490D01*
X147893327Y-71888301D01*
X147714698Y-71709673D01*
X147481309Y-71613000D01*
X146890750Y-71613000D01*
X146732000Y-71771750D01*
X146732000Y-72771000D01*
X146752000Y-72771000D01*
X146752000Y-73025000D01*
X146732000Y-73025000D01*
X146732000Y-74024250D01*
X146890750Y-74183000D01*
X147481309Y-74183000D01*
X147714698Y-74086327D01*
X147893327Y-73907699D01*
X147949654Y-73771713D01*
X147951838Y-73783317D01*
X148090910Y-73999441D01*
X148303110Y-74144431D01*
X148555000Y-74195440D01*
X150055000Y-74195440D01*
X150290317Y-74151162D01*
X150506441Y-74012090D01*
X150651431Y-73799890D01*
X150680164Y-73658000D01*
X151023311Y-73658000D01*
X151037378Y-73732757D01*
X151176450Y-73948881D01*
X151388650Y-74093871D01*
X151640540Y-74144880D01*
X152624602Y-74144880D01*
X152623808Y-74145673D01*
X152481162Y-74489201D01*
X152480838Y-74861167D01*
X152622883Y-75204943D01*
X152885673Y-75468192D01*
X152896459Y-75472671D01*
X152839420Y-75461120D01*
X151640540Y-75461120D01*
X151405223Y-75505398D01*
X151189099Y-75644470D01*
X151044109Y-75856670D01*
X151025614Y-75948000D01*
X150681742Y-75948000D01*
X150658162Y-75822683D01*
X150519090Y-75606559D01*
X150306890Y-75461569D01*
X150055000Y-75410560D01*
X148555000Y-75410560D01*
X148319683Y-75454838D01*
X148103559Y-75593910D01*
X147958569Y-75806110D01*
X147951809Y-75839490D01*
X147893327Y-75698301D01*
X147714698Y-75519673D01*
X147481309Y-75423000D01*
X146890750Y-75423000D01*
X146732000Y-75581750D01*
X146732000Y-76581000D01*
X146752000Y-76581000D01*
X146752000Y-76835000D01*
X146732000Y-76835000D01*
X146732000Y-77834250D01*
X146890750Y-77993000D01*
X147481309Y-77993000D01*
X147714698Y-77896327D01*
X147893327Y-77717699D01*
X147949654Y-77581713D01*
X147951838Y-77593317D01*
X148090910Y-77809441D01*
X148303110Y-77954431D01*
X148555000Y-78005440D01*
X150055000Y-78005440D01*
X150290317Y-77961162D01*
X150506441Y-77822090D01*
X150651431Y-77609890D01*
X150680164Y-77468000D01*
X151023311Y-77468000D01*
X151037378Y-77542757D01*
X151176450Y-77758881D01*
X151388650Y-77903871D01*
X151640540Y-77954880D01*
X152839420Y-77954880D01*
X153074737Y-77910602D01*
X153290861Y-77771530D01*
X153291543Y-77770533D01*
X153486690Y-77903871D01*
X153738580Y-77954880D01*
X154937460Y-77954880D01*
X155172777Y-77910602D01*
X155373000Y-77781762D01*
X155373000Y-79447612D01*
X155189350Y-79322129D01*
X154937460Y-79271120D01*
X153738580Y-79271120D01*
X153503263Y-79315398D01*
X153287139Y-79454470D01*
X153286457Y-79455467D01*
X153091310Y-79322129D01*
X152839420Y-79271120D01*
X151640540Y-79271120D01*
X151405223Y-79315398D01*
X151189099Y-79454470D01*
X151044109Y-79666670D01*
X151025614Y-79758000D01*
X150681742Y-79758000D01*
X150658162Y-79632683D01*
X150519090Y-79416559D01*
X150306890Y-79271569D01*
X150055000Y-79220560D01*
X148555000Y-79220560D01*
X148319683Y-79264838D01*
X148103559Y-79403910D01*
X147958569Y-79616110D01*
X147951809Y-79649490D01*
X147893327Y-79508301D01*
X147714698Y-79329673D01*
X147481309Y-79233000D01*
X146890750Y-79233000D01*
X146732000Y-79391750D01*
X146732000Y-80391000D01*
X146752000Y-80391000D01*
X146752000Y-80645000D01*
X146732000Y-80645000D01*
X146732000Y-80665000D01*
X146478000Y-80665000D01*
X146478000Y-80645000D01*
X145378750Y-80645000D01*
X145220000Y-80803750D01*
X145220000Y-81294310D01*
X145316673Y-81527699D01*
X145324974Y-81536000D01*
X143380302Y-81536000D01*
X141585992Y-79741690D01*
X145220000Y-79741690D01*
X145220000Y-80232250D01*
X145378750Y-80391000D01*
X146478000Y-80391000D01*
X146478000Y-79391750D01*
X146319250Y-79233000D01*
X145728691Y-79233000D01*
X145495302Y-79329673D01*
X145316673Y-79508301D01*
X145220000Y-79741690D01*
X141585992Y-79741690D01*
X141412500Y-79568198D01*
X141412500Y-76993750D01*
X145220000Y-76993750D01*
X145220000Y-77484310D01*
X145316673Y-77717699D01*
X145495302Y-77896327D01*
X145728691Y-77993000D01*
X146319250Y-77993000D01*
X146478000Y-77834250D01*
X146478000Y-76835000D01*
X145378750Y-76835000D01*
X145220000Y-76993750D01*
X141412500Y-76993750D01*
X141412500Y-70104000D01*
X141354648Y-69813161D01*
X141189901Y-69566599D01*
X141143122Y-69519820D01*
X141143162Y-69474333D01*
X141001117Y-69130557D01*
X140738327Y-68867308D01*
X140394799Y-68724662D01*
X140022833Y-68724338D01*
X139679057Y-68866383D01*
X139415808Y-69129173D01*
X139273162Y-69472701D01*
X139272838Y-69844667D01*
X139414883Y-70188443D01*
X139677673Y-70451692D01*
X139892500Y-70540896D01*
X139892500Y-75907900D01*
X138355070Y-75907900D01*
X138196320Y-76066650D01*
X138196320Y-77216000D01*
X138216320Y-77216000D01*
X138216320Y-77470000D01*
X138196320Y-77470000D01*
X138196320Y-78619350D01*
X138355070Y-78778100D01*
X139892500Y-78778100D01*
X139892500Y-79883000D01*
X139950352Y-80173839D01*
X140115099Y-80420401D01*
X142528099Y-82833401D01*
X142774660Y-82998148D01*
X143065500Y-83056000D01*
X153409460Y-83056000D01*
X153700299Y-82998148D01*
X153946861Y-82833401D01*
X154875421Y-81904841D01*
X154973467Y-81758105D01*
X155172777Y-81720602D01*
X155373000Y-81591762D01*
X155373000Y-83364000D01*
X117792967Y-83364000D01*
X117822692Y-83334327D01*
X117965338Y-82990799D01*
X117965662Y-82618833D01*
X117823617Y-82275057D01*
X117560827Y-82011808D01*
X117217299Y-81869162D01*
X117170423Y-81869121D01*
X117093241Y-81791939D01*
X117222861Y-81708530D01*
X117223543Y-81707533D01*
X117418690Y-81840871D01*
X117670580Y-81891880D01*
X118869460Y-81891880D01*
X119104777Y-81847602D01*
X119320901Y-81708530D01*
X119465891Y-81496330D01*
X119484386Y-81405000D01*
X119574258Y-81405000D01*
X119597838Y-81530317D01*
X119736910Y-81746441D01*
X119949110Y-81891431D01*
X120201000Y-81942440D01*
X121701000Y-81942440D01*
X121936317Y-81898162D01*
X122152441Y-81759090D01*
X122297431Y-81546890D01*
X122304191Y-81513510D01*
X122362673Y-81654699D01*
X122541302Y-81833327D01*
X122774691Y-81930000D01*
X123365250Y-81930000D01*
X123524000Y-81771250D01*
X123524000Y-80772000D01*
X123778000Y-80772000D01*
X123778000Y-81771250D01*
X123936750Y-81930000D01*
X124527309Y-81930000D01*
X124760698Y-81833327D01*
X124939327Y-81654699D01*
X125036000Y-81421310D01*
X125036000Y-80930750D01*
X124877250Y-80772000D01*
X123778000Y-80772000D01*
X123524000Y-80772000D01*
X123504000Y-80772000D01*
X123504000Y-80518000D01*
X123524000Y-80518000D01*
X123524000Y-79518750D01*
X123778000Y-79518750D01*
X123778000Y-80518000D01*
X124877250Y-80518000D01*
X125036000Y-80359250D01*
X125036000Y-79868690D01*
X124939327Y-79635301D01*
X124760698Y-79456673D01*
X124527309Y-79360000D01*
X123936750Y-79360000D01*
X123778000Y-79518750D01*
X123524000Y-79518750D01*
X123365250Y-79360000D01*
X122774691Y-79360000D01*
X122541302Y-79456673D01*
X122362673Y-79635301D01*
X122306346Y-79771287D01*
X122304162Y-79759683D01*
X122165090Y-79543559D01*
X121952890Y-79398569D01*
X121701000Y-79347560D01*
X120201000Y-79347560D01*
X119965683Y-79391838D01*
X119749559Y-79530910D01*
X119604569Y-79743110D01*
X119575836Y-79885000D01*
X119486689Y-79885000D01*
X119472622Y-79810243D01*
X119333550Y-79594119D01*
X119121350Y-79449129D01*
X118869460Y-79398120D01*
X117670580Y-79398120D01*
X117637259Y-79404390D01*
X117940443Y-79279117D01*
X118203692Y-79016327D01*
X118346338Y-78672799D01*
X118346662Y-78300833D01*
X118204617Y-77957057D01*
X118075665Y-77827880D01*
X118869460Y-77827880D01*
X119104777Y-77783602D01*
X119320901Y-77644530D01*
X119465891Y-77432330D01*
X119484386Y-77341000D01*
X119574258Y-77341000D01*
X119597838Y-77466317D01*
X119736910Y-77682441D01*
X119949110Y-77827431D01*
X120201000Y-77878440D01*
X121701000Y-77878440D01*
X121936317Y-77834162D01*
X122152441Y-77695090D01*
X122297431Y-77482890D01*
X122304191Y-77449510D01*
X122362673Y-77590699D01*
X122541302Y-77769327D01*
X122774691Y-77866000D01*
X123365250Y-77866000D01*
X123524000Y-77707250D01*
X123524000Y-76708000D01*
X123778000Y-76708000D01*
X123778000Y-77707250D01*
X123936750Y-77866000D01*
X124527309Y-77866000D01*
X124760698Y-77769327D01*
X124939327Y-77590699D01*
X125036000Y-77357310D01*
X125036000Y-76866750D01*
X124877250Y-76708000D01*
X123778000Y-76708000D01*
X123524000Y-76708000D01*
X123504000Y-76708000D01*
X123504000Y-76454000D01*
X123524000Y-76454000D01*
X123524000Y-75454750D01*
X123778000Y-75454750D01*
X123778000Y-76454000D01*
X124877250Y-76454000D01*
X125036000Y-76295250D01*
X125036000Y-75804690D01*
X124939327Y-75571301D01*
X124760698Y-75392673D01*
X124527309Y-75296000D01*
X123936750Y-75296000D01*
X123778000Y-75454750D01*
X123524000Y-75454750D01*
X123365250Y-75296000D01*
X122774691Y-75296000D01*
X122541302Y-75392673D01*
X122362673Y-75571301D01*
X122306346Y-75707287D01*
X122304162Y-75695683D01*
X122165090Y-75479559D01*
X121952890Y-75334569D01*
X121701000Y-75283560D01*
X120201000Y-75283560D01*
X119965683Y-75327838D01*
X119749559Y-75466910D01*
X119604569Y-75679110D01*
X119575836Y-75821000D01*
X119486689Y-75821000D01*
X119472622Y-75746243D01*
X119333550Y-75530119D01*
X119121350Y-75385129D01*
X118869460Y-75334120D01*
X117670580Y-75334120D01*
X117435263Y-75378398D01*
X117219139Y-75517470D01*
X117218457Y-75518467D01*
X117023310Y-75385129D01*
X116771420Y-75334120D01*
X115572540Y-75334120D01*
X115337223Y-75378398D01*
X115137000Y-75507238D01*
X115137000Y-73587388D01*
X115320650Y-73712871D01*
X115572540Y-73763880D01*
X115621549Y-73763880D01*
X115634579Y-73783381D01*
X116349378Y-74498180D01*
X116349338Y-74543667D01*
X116491383Y-74887443D01*
X116754173Y-75150692D01*
X117097701Y-75293338D01*
X117469667Y-75293662D01*
X117813443Y-75151617D01*
X118076692Y-74888827D01*
X118219338Y-74545299D01*
X118219662Y-74173333D01*
X118077617Y-73829557D01*
X118012055Y-73763880D01*
X118869460Y-73763880D01*
X119104777Y-73719602D01*
X119320901Y-73580530D01*
X119465891Y-73368330D01*
X119484386Y-73277000D01*
X119574258Y-73277000D01*
X119597838Y-73402317D01*
X119736910Y-73618441D01*
X119949110Y-73763431D01*
X120201000Y-73814440D01*
X121701000Y-73814440D01*
X121936317Y-73770162D01*
X122152441Y-73631090D01*
X122297431Y-73418890D01*
X122304191Y-73385510D01*
X122362673Y-73526699D01*
X122541302Y-73705327D01*
X122774691Y-73802000D01*
X123365250Y-73802000D01*
X123524000Y-73643250D01*
X123524000Y-72644000D01*
X123778000Y-72644000D01*
X123778000Y-73643250D01*
X123936750Y-73802000D01*
X124527309Y-73802000D01*
X124760698Y-73705327D01*
X124939327Y-73526699D01*
X125036000Y-73293310D01*
X125036000Y-72802750D01*
X124877250Y-72644000D01*
X123778000Y-72644000D01*
X123524000Y-72644000D01*
X123504000Y-72644000D01*
X123504000Y-72390000D01*
X123524000Y-72390000D01*
X123524000Y-71390750D01*
X123778000Y-71390750D01*
X123778000Y-72390000D01*
X124877250Y-72390000D01*
X125036000Y-72231250D01*
X125036000Y-71740690D01*
X124939327Y-71507301D01*
X124760698Y-71328673D01*
X124527309Y-71232000D01*
X123936750Y-71232000D01*
X123778000Y-71390750D01*
X123524000Y-71390750D01*
X123365250Y-71232000D01*
X122774691Y-71232000D01*
X122541302Y-71328673D01*
X122362673Y-71507301D01*
X122306346Y-71643287D01*
X122304162Y-71631683D01*
X122165090Y-71415559D01*
X121952890Y-71270569D01*
X121701000Y-71219560D01*
X120201000Y-71219560D01*
X119965683Y-71263838D01*
X119749559Y-71402910D01*
X119604569Y-71615110D01*
X119575836Y-71757000D01*
X119486689Y-71757000D01*
X119472622Y-71682243D01*
X119333550Y-71466119D01*
X119121350Y-71321129D01*
X118869460Y-71270120D01*
X117885398Y-71270120D01*
X117886192Y-71269327D01*
X117908646Y-71215250D01*
X126111000Y-71215250D01*
X126111000Y-71309809D01*
X126207673Y-71543198D01*
X126386301Y-71721827D01*
X126619690Y-71818500D01*
X127031750Y-71818500D01*
X127190500Y-71659750D01*
X127190500Y-71056500D01*
X126269750Y-71056500D01*
X126111000Y-71215250D01*
X117908646Y-71215250D01*
X118028838Y-70925799D01*
X118029162Y-70553833D01*
X117887117Y-70210057D01*
X117884944Y-70207880D01*
X118869460Y-70207880D01*
X119104777Y-70163602D01*
X119320901Y-70024530D01*
X119465891Y-69812330D01*
X119484386Y-69721000D01*
X119574258Y-69721000D01*
X119597838Y-69846317D01*
X119736910Y-70062441D01*
X119949110Y-70207431D01*
X120201000Y-70258440D01*
X121701000Y-70258440D01*
X121936317Y-70214162D01*
X122152441Y-70075090D01*
X122297431Y-69862890D01*
X122304191Y-69829510D01*
X122362673Y-69970699D01*
X122541302Y-70149327D01*
X122774691Y-70246000D01*
X123365250Y-70246000D01*
X123524000Y-70087250D01*
X123524000Y-69088000D01*
X123778000Y-69088000D01*
X123778000Y-70087250D01*
X123936750Y-70246000D01*
X124527309Y-70246000D01*
X124760698Y-70149327D01*
X124939327Y-69970699D01*
X125036000Y-69737310D01*
X125036000Y-69246750D01*
X124877250Y-69088000D01*
X123778000Y-69088000D01*
X123524000Y-69088000D01*
X123504000Y-69088000D01*
X123504000Y-68834000D01*
X123524000Y-68834000D01*
X123524000Y-67834750D01*
X123778000Y-67834750D01*
X123778000Y-68834000D01*
X124877250Y-68834000D01*
X125036000Y-68675250D01*
X125036000Y-68184690D01*
X124939327Y-67951301D01*
X124760698Y-67772673D01*
X124527309Y-67676000D01*
X123936750Y-67676000D01*
X123778000Y-67834750D01*
X123524000Y-67834750D01*
X123365250Y-67676000D01*
X122774691Y-67676000D01*
X122541302Y-67772673D01*
X122362673Y-67951301D01*
X122306346Y-68087287D01*
X122304162Y-68075683D01*
X122165090Y-67859559D01*
X121952890Y-67714569D01*
X121701000Y-67663560D01*
X120201000Y-67663560D01*
X119965683Y-67707838D01*
X119749559Y-67846910D01*
X119604569Y-68059110D01*
X119575836Y-68201000D01*
X119486689Y-68201000D01*
X119472622Y-68126243D01*
X119333550Y-67910119D01*
X119121350Y-67765129D01*
X118869460Y-67714120D01*
X117670580Y-67714120D01*
X117435263Y-67758398D01*
X117219139Y-67897470D01*
X117218457Y-67898467D01*
X117023310Y-67765129D01*
X116771420Y-67714120D01*
X115572540Y-67714120D01*
X115337223Y-67758398D01*
X115137000Y-67887238D01*
X115137000Y-65967388D01*
X115320650Y-66092871D01*
X115459938Y-66121077D01*
X115469832Y-66170819D01*
X115634579Y-66417381D01*
X116158878Y-66941680D01*
X116158838Y-66987167D01*
X116300883Y-67330943D01*
X116563673Y-67594192D01*
X116907201Y-67736838D01*
X117279167Y-67737162D01*
X117622943Y-67595117D01*
X117886192Y-67332327D01*
X118028838Y-66988799D01*
X118029162Y-66616833D01*
X117887117Y-66273057D01*
X117758165Y-66143880D01*
X118869460Y-66143880D01*
X119104777Y-66099602D01*
X119320901Y-65960530D01*
X119465891Y-65748330D01*
X119484386Y-65657000D01*
X119574258Y-65657000D01*
X119597838Y-65782317D01*
X119736910Y-65998441D01*
X119949110Y-66143431D01*
X120201000Y-66194440D01*
X121701000Y-66194440D01*
X121936317Y-66150162D01*
X122152441Y-66011090D01*
X122297431Y-65798890D01*
X122304191Y-65765510D01*
X122362673Y-65906699D01*
X122541302Y-66085327D01*
X122774691Y-66182000D01*
X123365250Y-66182000D01*
X123524000Y-66023250D01*
X123524000Y-65024000D01*
X123778000Y-65024000D01*
X123778000Y-66023250D01*
X123936750Y-66182000D01*
X124527309Y-66182000D01*
X124760698Y-66085327D01*
X124939327Y-65906699D01*
X125036000Y-65673310D01*
X125036000Y-65182750D01*
X124877250Y-65024000D01*
X123778000Y-65024000D01*
X123524000Y-65024000D01*
X123504000Y-65024000D01*
X123504000Y-64770000D01*
X123524000Y-64770000D01*
X123524000Y-63770750D01*
X123778000Y-63770750D01*
X123778000Y-64770000D01*
X124877250Y-64770000D01*
X125036000Y-64611250D01*
X125036000Y-64120690D01*
X124939327Y-63887301D01*
X124760698Y-63708673D01*
X124527309Y-63612000D01*
X123936750Y-63612000D01*
X123778000Y-63770750D01*
X123524000Y-63770750D01*
X123365250Y-63612000D01*
X122774691Y-63612000D01*
X122541302Y-63708673D01*
X122362673Y-63887301D01*
X122306346Y-64023287D01*
X122304162Y-64011683D01*
X122165090Y-63795559D01*
X121952890Y-63650569D01*
X121701000Y-63599560D01*
X120201000Y-63599560D01*
X119965683Y-63643838D01*
X119749559Y-63782910D01*
X119604569Y-63995110D01*
X119575836Y-64137000D01*
X119486689Y-64137000D01*
X119472622Y-64062243D01*
X119333550Y-63846119D01*
X119121350Y-63701129D01*
X118869460Y-63650120D01*
X117670580Y-63650120D01*
X117435263Y-63694398D01*
X117219139Y-63833470D01*
X117218457Y-63834467D01*
X117023310Y-63701129D01*
X116771420Y-63650120D01*
X115572540Y-63650120D01*
X115337223Y-63694398D01*
X115137000Y-63823238D01*
X115137000Y-61903388D01*
X115320650Y-62028871D01*
X115572540Y-62079880D01*
X115579120Y-62079880D01*
X115634579Y-62162881D01*
X116222378Y-62750680D01*
X116222338Y-62796167D01*
X116364383Y-63139943D01*
X116627173Y-63403192D01*
X116970701Y-63545838D01*
X117342667Y-63546162D01*
X117686443Y-63404117D01*
X117949692Y-63141327D01*
X118092338Y-62797799D01*
X118092662Y-62425833D01*
X117950617Y-62082057D01*
X117948444Y-62079880D01*
X118869460Y-62079880D01*
X119104777Y-62035602D01*
X119320901Y-61896530D01*
X119465891Y-61684330D01*
X119484386Y-61593000D01*
X119574258Y-61593000D01*
X119597838Y-61718317D01*
X119736910Y-61934441D01*
X119949110Y-62079431D01*
X120201000Y-62130440D01*
X121701000Y-62130440D01*
X121936317Y-62086162D01*
X122152441Y-61947090D01*
X122297431Y-61734890D01*
X122304191Y-61701510D01*
X122362673Y-61842699D01*
X122541302Y-62021327D01*
X122774691Y-62118000D01*
X123365250Y-62118000D01*
X123524000Y-61959250D01*
X123524000Y-60960000D01*
X123778000Y-60960000D01*
X123778000Y-61959250D01*
X123936750Y-62118000D01*
X124527309Y-62118000D01*
X124760698Y-62021327D01*
X124939327Y-61842699D01*
X124963019Y-61785500D01*
X126098560Y-61785500D01*
X126098560Y-62293500D01*
X126142838Y-62528817D01*
X126233604Y-62669871D01*
X126207673Y-62695802D01*
X126111000Y-62929191D01*
X126111000Y-63023750D01*
X126269750Y-63182500D01*
X127190500Y-63182500D01*
X127190500Y-63162500D01*
X127444500Y-63162500D01*
X127444500Y-63182500D01*
X127464500Y-63182500D01*
X127464500Y-63436500D01*
X127444500Y-63436500D01*
X127444500Y-63456500D01*
X127190500Y-63456500D01*
X127190500Y-63436500D01*
X126269750Y-63436500D01*
X126111000Y-63595250D01*
X126111000Y-63689809D01*
X126207673Y-63923198D01*
X126234209Y-63949735D01*
X126149569Y-64073610D01*
X126098560Y-64325500D01*
X126098560Y-64833500D01*
X126142838Y-65068817D01*
X126237166Y-65215407D01*
X126149569Y-65343610D01*
X126098560Y-65595500D01*
X126098560Y-66103500D01*
X126142838Y-66338817D01*
X126237166Y-66485407D01*
X126149569Y-66613610D01*
X126098560Y-66865500D01*
X126098560Y-67373500D01*
X126142838Y-67608817D01*
X126237166Y-67755407D01*
X126149569Y-67883610D01*
X126098560Y-68135500D01*
X126098560Y-68643500D01*
X126142838Y-68878817D01*
X126237166Y-69025407D01*
X126149569Y-69153610D01*
X126098560Y-69405500D01*
X126098560Y-69913500D01*
X126142838Y-70148817D01*
X126233604Y-70289871D01*
X126207673Y-70315802D01*
X126111000Y-70549191D01*
X126111000Y-70643750D01*
X126269750Y-70802500D01*
X127190500Y-70802500D01*
X127190500Y-70782500D01*
X127444500Y-70782500D01*
X127444500Y-70802500D01*
X127464500Y-70802500D01*
X127464500Y-71056500D01*
X127444500Y-71056500D01*
X127444500Y-71659750D01*
X127603250Y-71818500D01*
X128015310Y-71818500D01*
X128081500Y-71791083D01*
X128081500Y-79885698D01*
X127304820Y-80662378D01*
X127259333Y-80662338D01*
X126915557Y-80804383D01*
X126652308Y-81067173D01*
X126509662Y-81410701D01*
X126509338Y-81782667D01*
X126651383Y-82126443D01*
X126914173Y-82389692D01*
X127257701Y-82532338D01*
X127629667Y-82532662D01*
X127973443Y-82390617D01*
X128236692Y-82127827D01*
X128379338Y-81784299D01*
X128379379Y-81737423D01*
X129378901Y-80737901D01*
X129543648Y-80491340D01*
X129601500Y-80200500D01*
X129601500Y-76534603D01*
X129670701Y-76563338D01*
X130042667Y-76563662D01*
X130123183Y-76530394D01*
X130120650Y-76542900D01*
X130120650Y-78143100D01*
X130164928Y-78378417D01*
X130304000Y-78594541D01*
X130516200Y-78739531D01*
X130768090Y-78790540D01*
X134367270Y-78790540D01*
X134602587Y-78746262D01*
X134818711Y-78607190D01*
X134963701Y-78394990D01*
X135014710Y-78143100D01*
X135014710Y-77628750D01*
X135634730Y-77628750D01*
X135634730Y-78269410D01*
X135731403Y-78502799D01*
X135910032Y-78681427D01*
X136143421Y-78778100D01*
X137783570Y-78778100D01*
X137942320Y-78619350D01*
X137942320Y-77470000D01*
X135793480Y-77470000D01*
X135634730Y-77628750D01*
X135014710Y-77628750D01*
X135014710Y-76542900D01*
X134990944Y-76416590D01*
X135634730Y-76416590D01*
X135634730Y-77057250D01*
X135793480Y-77216000D01*
X137942320Y-77216000D01*
X137942320Y-76066650D01*
X137783570Y-75907900D01*
X136143421Y-75907900D01*
X135910032Y-76004573D01*
X135731403Y-76183201D01*
X135634730Y-76416590D01*
X134990944Y-76416590D01*
X134970432Y-76307583D01*
X134831360Y-76091459D01*
X134619160Y-75946469D01*
X134367270Y-75895460D01*
X133392680Y-75895460D01*
X133392680Y-74784046D01*
X136060541Y-72116185D01*
X136239379Y-71848536D01*
X136257984Y-71755000D01*
X136366250Y-71755000D01*
X136525000Y-71596250D01*
X136525000Y-70993000D01*
X136779000Y-70993000D01*
X136779000Y-71596250D01*
X136937750Y-71755000D01*
X137349810Y-71755000D01*
X137583199Y-71658327D01*
X137761827Y-71479698D01*
X137858500Y-71246309D01*
X137858500Y-71151750D01*
X137699750Y-70993000D01*
X136779000Y-70993000D01*
X136525000Y-70993000D01*
X136505000Y-70993000D01*
X136505000Y-70739000D01*
X136525000Y-70739000D01*
X136525000Y-70719000D01*
X136779000Y-70719000D01*
X136779000Y-70739000D01*
X137699750Y-70739000D01*
X137858500Y-70580250D01*
X137858500Y-70485691D01*
X137804780Y-70356000D01*
X137810495Y-70356000D01*
X137925701Y-70403838D01*
X138297667Y-70404162D01*
X138641443Y-70262117D01*
X138904692Y-69999327D01*
X139047338Y-69655799D01*
X139047662Y-69283833D01*
X138905617Y-68940057D01*
X138642827Y-68676808D01*
X138299299Y-68534162D01*
X137927333Y-68533838D01*
X137870940Y-68557139D01*
X137870940Y-68499362D01*
X139556402Y-66813900D01*
X139721149Y-66567338D01*
X139779001Y-66276499D01*
X139779001Y-64512103D01*
X139847943Y-64483617D01*
X140111192Y-64220827D01*
X140253838Y-63877299D01*
X140254162Y-63505333D01*
X140112117Y-63161557D01*
X139849327Y-62898308D01*
X139505799Y-62755662D01*
X139133833Y-62755338D01*
X138790057Y-62897383D01*
X138526808Y-63160173D01*
X138384162Y-63503701D01*
X138384079Y-63599049D01*
X138316853Y-63699660D01*
X138259001Y-63990499D01*
X138259001Y-65961697D01*
X137759064Y-66461634D01*
X137732334Y-66420093D01*
X137819931Y-66291890D01*
X137870940Y-66040000D01*
X137870940Y-65532000D01*
X137826662Y-65296683D01*
X137732334Y-65150093D01*
X137819931Y-65021890D01*
X137870940Y-64770000D01*
X137870940Y-64262000D01*
X137826662Y-64026683D01*
X137735896Y-63885629D01*
X137761827Y-63859698D01*
X137858500Y-63626309D01*
X137858500Y-63531750D01*
X137699750Y-63373000D01*
X136779000Y-63373000D01*
X136779000Y-63393000D01*
X136525000Y-63393000D01*
X136525000Y-63373000D01*
X136505000Y-63373000D01*
X136505000Y-63119000D01*
X136525000Y-63119000D01*
X136525000Y-63099000D01*
X136779000Y-63099000D01*
X136779000Y-63119000D01*
X137699750Y-63119000D01*
X137858500Y-62960250D01*
X137858500Y-62865691D01*
X137761827Y-62632302D01*
X137735291Y-62605765D01*
X137819931Y-62481890D01*
X137870940Y-62230000D01*
X137870940Y-61722000D01*
X137826662Y-61486683D01*
X137687590Y-61270559D01*
X137475390Y-61125569D01*
X137223500Y-61074560D01*
X136338002Y-61074560D01*
X136338002Y-60316800D01*
X136935401Y-59719401D01*
X137100148Y-59472840D01*
X137158000Y-59182000D01*
X137158000Y-58414400D01*
X137668000Y-58515845D01*
X138178000Y-58414400D01*
X138178000Y-61159537D01*
X138145808Y-61191673D01*
X138003162Y-61535201D01*
X138002838Y-61907167D01*
X138144883Y-62250943D01*
X138407673Y-62514192D01*
X138751201Y-62656838D01*
X139123167Y-62657162D01*
X139466943Y-62515117D01*
X139730192Y-62252327D01*
X139872838Y-61908799D01*
X139873000Y-61722000D01*
X141783060Y-61722000D01*
X141783060Y-62230000D01*
X141827338Y-62465317D01*
X141921666Y-62611907D01*
X141834069Y-62740110D01*
X141783060Y-62992000D01*
X141783060Y-63500000D01*
X141827338Y-63735317D01*
X141921666Y-63881907D01*
X141834069Y-64010110D01*
X141783060Y-64262000D01*
X141783060Y-64770000D01*
X141827338Y-65005317D01*
X141921666Y-65151907D01*
X141834069Y-65280110D01*
X141783060Y-65532000D01*
X141783060Y-66040000D01*
X141827338Y-66275317D01*
X141921666Y-66421907D01*
X141834069Y-66550110D01*
X141783060Y-66802000D01*
X141783060Y-67310000D01*
X141827338Y-67545317D01*
X141921666Y-67691907D01*
X141834069Y-67820110D01*
X141783060Y-68072000D01*
X141783060Y-68580000D01*
X141827338Y-68815317D01*
X141921666Y-68961907D01*
X141834069Y-69090110D01*
X141783060Y-69342000D01*
X141783060Y-69850000D01*
X141827338Y-70085317D01*
X141921666Y-70231907D01*
X141834069Y-70360110D01*
X141783060Y-70612000D01*
X141783060Y-71120000D01*
X141827338Y-71355317D01*
X141966410Y-71571441D01*
X142178610Y-71716431D01*
X142242000Y-71729268D01*
X142242000Y-72453500D01*
X142299852Y-72744339D01*
X142464599Y-72990901D01*
X144289378Y-74815680D01*
X144289338Y-74861167D01*
X144431383Y-75204943D01*
X144694173Y-75468192D01*
X145037701Y-75610838D01*
X145403818Y-75611157D01*
X145316673Y-75698301D01*
X145220000Y-75931690D01*
X145220000Y-76422250D01*
X145378750Y-76581000D01*
X146478000Y-76581000D01*
X146478000Y-75581750D01*
X146319250Y-75423000D01*
X145799641Y-75423000D01*
X146016692Y-75206327D01*
X146159338Y-74862799D01*
X146159662Y-74490833D01*
X146032468Y-74183000D01*
X146319250Y-74183000D01*
X146478000Y-74024250D01*
X146478000Y-73025000D01*
X145378750Y-73025000D01*
X145220000Y-73183750D01*
X145220000Y-73596698D01*
X143762000Y-72138698D01*
X143762000Y-71731971D01*
X143808817Y-71723162D01*
X143958221Y-71627023D01*
X144162378Y-71831180D01*
X144162338Y-71876667D01*
X144304383Y-72220443D01*
X144567173Y-72483692D01*
X144910701Y-72626338D01*
X145234370Y-72626620D01*
X145378750Y-72771000D01*
X146478000Y-72771000D01*
X146478000Y-71771750D01*
X146319250Y-71613000D01*
X146032569Y-71613000D01*
X146032662Y-71506333D01*
X145899117Y-71183129D01*
X146032338Y-70862299D01*
X146032662Y-70490333D01*
X145890617Y-70146557D01*
X145863108Y-70119000D01*
X146319250Y-70119000D01*
X146478000Y-69960250D01*
X146478000Y-68961000D01*
X146458000Y-68961000D01*
X146458000Y-68707000D01*
X146478000Y-68707000D01*
X146478000Y-67707750D01*
X146319250Y-67549000D01*
X145968903Y-67549000D01*
X145969162Y-67251833D01*
X145848768Y-66960457D01*
X145968838Y-66671299D01*
X145969162Y-66299333D01*
X145868206Y-66055000D01*
X146319250Y-66055000D01*
X146478000Y-65896250D01*
X146478000Y-64897000D01*
X146458000Y-64897000D01*
X146458000Y-64643000D01*
X146478000Y-64643000D01*
X146478000Y-63643750D01*
X146319250Y-63485000D01*
X145728691Y-63485000D01*
X145495302Y-63581673D01*
X145316673Y-63760301D01*
X145220000Y-63993690D01*
X145220000Y-64484250D01*
X145378748Y-64642998D01*
X145331184Y-64642998D01*
X145220799Y-64597162D01*
X145173923Y-64597121D01*
X144555401Y-63978599D01*
X144521989Y-63956274D01*
X144562839Y-63948148D01*
X144809401Y-63783401D01*
X144983180Y-63609622D01*
X145028667Y-63609662D01*
X145372443Y-63467617D01*
X145635692Y-63204827D01*
X145778338Y-62861299D01*
X145778662Y-62489333D01*
X145667178Y-62219520D01*
X145728691Y-62245000D01*
X146319250Y-62245000D01*
X146478000Y-62086250D01*
X146478000Y-61087000D01*
X145378750Y-61087000D01*
X145220000Y-61245750D01*
X145220000Y-61736310D01*
X145261083Y-61835492D01*
X145030299Y-61739662D01*
X144658333Y-61739338D01*
X144314557Y-61881383D01*
X144220940Y-61974837D01*
X144220940Y-61722000D01*
X144176662Y-61486683D01*
X144037590Y-61270559D01*
X143827000Y-61126669D01*
X143827000Y-60183690D01*
X145220000Y-60183690D01*
X145220000Y-60674250D01*
X145378750Y-60833000D01*
X146478000Y-60833000D01*
X146478000Y-59833750D01*
X146732000Y-59833750D01*
X146732000Y-60833000D01*
X146752000Y-60833000D01*
X146752000Y-61087000D01*
X146732000Y-61087000D01*
X146732000Y-62086250D01*
X146890750Y-62245000D01*
X147481309Y-62245000D01*
X147714698Y-62148327D01*
X147893327Y-61969699D01*
X147949654Y-61833713D01*
X147951838Y-61845317D01*
X148090910Y-62061441D01*
X148303110Y-62206431D01*
X148555000Y-62257440D01*
X150055000Y-62257440D01*
X150290317Y-62213162D01*
X150506441Y-62074090D01*
X150651431Y-61861890D01*
X150680164Y-61720000D01*
X150769311Y-61720000D01*
X150783378Y-61794757D01*
X150922450Y-62010881D01*
X151134650Y-62155871D01*
X151386540Y-62206880D01*
X152100130Y-62206880D01*
X152099838Y-62542167D01*
X152241883Y-62885943D01*
X152504673Y-63149192D01*
X152848201Y-63291838D01*
X153220167Y-63292162D01*
X153563943Y-63150117D01*
X153827192Y-62887327D01*
X153969838Y-62543799D01*
X153969879Y-62496923D01*
X154259922Y-62206880D01*
X154683460Y-62206880D01*
X154918777Y-62162602D01*
X155134901Y-62023530D01*
X155279891Y-61811330D01*
X155330900Y-61559440D01*
X155330900Y-60360560D01*
X155286622Y-60125243D01*
X155147550Y-59909119D01*
X154935350Y-59764129D01*
X154683460Y-59713120D01*
X153484580Y-59713120D01*
X153249263Y-59757398D01*
X153033139Y-59896470D01*
X153032457Y-59897467D01*
X152837310Y-59764129D01*
X152585420Y-59713120D01*
X151386540Y-59713120D01*
X151151223Y-59757398D01*
X150935099Y-59896470D01*
X150790109Y-60108670D01*
X150771614Y-60200000D01*
X150681742Y-60200000D01*
X150658162Y-60074683D01*
X150519090Y-59858559D01*
X150306890Y-59713569D01*
X150055000Y-59662560D01*
X148555000Y-59662560D01*
X148319683Y-59706838D01*
X148103559Y-59845910D01*
X147958569Y-60058110D01*
X147951809Y-60091490D01*
X147893327Y-59950301D01*
X147714698Y-59771673D01*
X147481309Y-59675000D01*
X146890750Y-59675000D01*
X146732000Y-59833750D01*
X146478000Y-59833750D01*
X146319250Y-59675000D01*
X145728691Y-59675000D01*
X145495302Y-59771673D01*
X145316673Y-59950301D01*
X145220000Y-60183690D01*
X143827000Y-60183690D01*
X143827000Y-59880554D01*
X143836855Y-59856821D01*
X143837145Y-59524637D01*
X143710292Y-59217628D01*
X143475607Y-58982534D01*
X143168821Y-58855145D01*
X142836637Y-58854855D01*
X142529628Y-58981708D01*
X142294534Y-59216393D01*
X142167145Y-59523179D01*
X142166855Y-59855363D01*
X142177000Y-59879916D01*
X142177000Y-61130538D01*
X141979059Y-61257910D01*
X141834069Y-61470110D01*
X141783060Y-61722000D01*
X139873000Y-61722000D01*
X139873162Y-61536833D01*
X139731117Y-61193057D01*
X139698000Y-61159882D01*
X139698000Y-58483500D01*
X139922250Y-58483500D01*
X140081000Y-58324750D01*
X140081000Y-56959500D01*
X140335000Y-56959500D01*
X140335000Y-58324750D01*
X140493750Y-58483500D01*
X141197910Y-58483500D01*
X141431299Y-58386827D01*
X141609927Y-58208198D01*
X141706600Y-57974809D01*
X141706600Y-57118250D01*
X141547850Y-56959500D01*
X140335000Y-56959500D01*
X140081000Y-56959500D01*
X140061000Y-56959500D01*
X140061000Y-56927750D01*
X145220000Y-56927750D01*
X145220000Y-57418310D01*
X145316673Y-57651699D01*
X145495302Y-57830327D01*
X145728691Y-57927000D01*
X146319250Y-57927000D01*
X146478000Y-57768250D01*
X146478000Y-56769000D01*
X145378750Y-56769000D01*
X145220000Y-56927750D01*
X140061000Y-56927750D01*
X140061000Y-56705500D01*
X140081000Y-56705500D01*
X140081000Y-55340250D01*
X140335000Y-55340250D01*
X140335000Y-56705500D01*
X141547850Y-56705500D01*
X141706600Y-56546750D01*
X141706600Y-55865690D01*
X145220000Y-55865690D01*
X145220000Y-56356250D01*
X145378750Y-56515000D01*
X146478000Y-56515000D01*
X146478000Y-55515750D01*
X146732000Y-55515750D01*
X146732000Y-56515000D01*
X146752000Y-56515000D01*
X146752000Y-56769000D01*
X146732000Y-56769000D01*
X146732000Y-57768250D01*
X146890750Y-57927000D01*
X147481309Y-57927000D01*
X147714698Y-57830327D01*
X147893327Y-57651699D01*
X147949654Y-57515713D01*
X147951838Y-57527317D01*
X148090910Y-57743441D01*
X148303110Y-57888431D01*
X148555000Y-57939440D01*
X150055000Y-57939440D01*
X150290317Y-57895162D01*
X150506441Y-57756090D01*
X150651431Y-57543890D01*
X150680164Y-57402000D01*
X150769311Y-57402000D01*
X150783378Y-57476757D01*
X150922450Y-57692881D01*
X151134650Y-57837871D01*
X151386540Y-57888880D01*
X151603299Y-57888880D01*
X151592162Y-57915701D01*
X151591838Y-58287667D01*
X151733883Y-58631443D01*
X151996673Y-58894692D01*
X152340201Y-59037338D01*
X152712167Y-59037662D01*
X153055943Y-58895617D01*
X153319192Y-58632827D01*
X153461838Y-58289299D01*
X153461879Y-58242423D01*
X153815422Y-57888880D01*
X154683460Y-57888880D01*
X154918777Y-57844602D01*
X155134901Y-57705530D01*
X155279891Y-57493330D01*
X155330900Y-57241440D01*
X155330900Y-56042560D01*
X155286622Y-55807243D01*
X155147550Y-55591119D01*
X154935350Y-55446129D01*
X154683460Y-55395120D01*
X153484580Y-55395120D01*
X153249263Y-55439398D01*
X153033139Y-55578470D01*
X153032457Y-55579467D01*
X152837310Y-55446129D01*
X152585420Y-55395120D01*
X151386540Y-55395120D01*
X151151223Y-55439398D01*
X150935099Y-55578470D01*
X150790109Y-55790670D01*
X150771614Y-55882000D01*
X150681742Y-55882000D01*
X150658162Y-55756683D01*
X150519090Y-55540559D01*
X150306890Y-55395569D01*
X150055000Y-55344560D01*
X148555000Y-55344560D01*
X148319683Y-55388838D01*
X148103559Y-55527910D01*
X147958569Y-55740110D01*
X147951809Y-55773490D01*
X147893327Y-55632301D01*
X147714698Y-55453673D01*
X147481309Y-55357000D01*
X146890750Y-55357000D01*
X146732000Y-55515750D01*
X146478000Y-55515750D01*
X146319250Y-55357000D01*
X145728691Y-55357000D01*
X145495302Y-55453673D01*
X145316673Y-55632301D01*
X145220000Y-55865690D01*
X141706600Y-55865690D01*
X141706600Y-55690191D01*
X141609927Y-55456802D01*
X141431299Y-55278173D01*
X141197910Y-55181500D01*
X140493750Y-55181500D01*
X140335000Y-55340250D01*
X140081000Y-55340250D01*
X139922250Y-55181500D01*
X139698000Y-55181500D01*
X139640148Y-54890661D01*
X139475401Y-54644099D01*
X138014901Y-53183599D01*
X137916351Y-53117750D01*
X145220000Y-53117750D01*
X145220000Y-53608310D01*
X145316673Y-53841699D01*
X145495302Y-54020327D01*
X145728691Y-54117000D01*
X146319250Y-54117000D01*
X146478000Y-53958250D01*
X146478000Y-52959000D01*
X145378750Y-52959000D01*
X145220000Y-53117750D01*
X137916351Y-53117750D01*
X137768339Y-53018852D01*
X137477500Y-52961000D01*
X129222500Y-52961000D01*
X128931661Y-53018852D01*
X128685099Y-53183599D01*
X126780099Y-55088599D01*
X126615352Y-55335161D01*
X126557500Y-55626000D01*
X126557500Y-61173529D01*
X126510683Y-61182338D01*
X126294559Y-61321410D01*
X126149569Y-61533610D01*
X126098560Y-61785500D01*
X124963019Y-61785500D01*
X125036000Y-61609310D01*
X125036000Y-61118750D01*
X124877250Y-60960000D01*
X123778000Y-60960000D01*
X123524000Y-60960000D01*
X123504000Y-60960000D01*
X123504000Y-60706000D01*
X123524000Y-60706000D01*
X123524000Y-59706750D01*
X123778000Y-59706750D01*
X123778000Y-60706000D01*
X124877250Y-60706000D01*
X125036000Y-60547250D01*
X125036000Y-60056690D01*
X124939327Y-59823301D01*
X124760698Y-59644673D01*
X124527309Y-59548000D01*
X123936750Y-59548000D01*
X123778000Y-59706750D01*
X123524000Y-59706750D01*
X123365250Y-59548000D01*
X122774691Y-59548000D01*
X122541302Y-59644673D01*
X122362673Y-59823301D01*
X122306346Y-59959287D01*
X122304162Y-59947683D01*
X122165090Y-59731559D01*
X121952890Y-59586569D01*
X121701000Y-59535560D01*
X120201000Y-59535560D01*
X119965683Y-59579838D01*
X119749559Y-59718910D01*
X119604569Y-59931110D01*
X119575836Y-60073000D01*
X119486689Y-60073000D01*
X119472622Y-59998243D01*
X119333550Y-59782119D01*
X119121350Y-59637129D01*
X118869460Y-59586120D01*
X117670580Y-59586120D01*
X117435263Y-59630398D01*
X117219139Y-59769470D01*
X117218457Y-59770467D01*
X117023310Y-59637129D01*
X116771420Y-59586120D01*
X115572540Y-59586120D01*
X115337223Y-59630398D01*
X115137000Y-59759238D01*
X115137000Y-57839388D01*
X115320650Y-57964871D01*
X115572540Y-58015880D01*
X115621549Y-58015880D01*
X115634579Y-58035381D01*
X116285878Y-58686680D01*
X116285838Y-58732167D01*
X116427883Y-59075943D01*
X116690673Y-59339192D01*
X117034201Y-59481838D01*
X117406167Y-59482162D01*
X117749943Y-59340117D01*
X118013192Y-59077327D01*
X118155838Y-58733799D01*
X118156162Y-58361833D01*
X118014117Y-58018057D01*
X118011944Y-58015880D01*
X118869460Y-58015880D01*
X119104777Y-57971602D01*
X119320901Y-57832530D01*
X119465891Y-57620330D01*
X119484386Y-57529000D01*
X119574258Y-57529000D01*
X119597838Y-57654317D01*
X119736910Y-57870441D01*
X119949110Y-58015431D01*
X120201000Y-58066440D01*
X121701000Y-58066440D01*
X121936317Y-58022162D01*
X122152441Y-57883090D01*
X122297431Y-57670890D01*
X122304191Y-57637510D01*
X122362673Y-57778699D01*
X122541302Y-57957327D01*
X122774691Y-58054000D01*
X123365250Y-58054000D01*
X123524000Y-57895250D01*
X123524000Y-56896000D01*
X123778000Y-56896000D01*
X123778000Y-57895250D01*
X123936750Y-58054000D01*
X124527309Y-58054000D01*
X124760698Y-57957327D01*
X124939327Y-57778699D01*
X125036000Y-57545310D01*
X125036000Y-57054750D01*
X124877250Y-56896000D01*
X123778000Y-56896000D01*
X123524000Y-56896000D01*
X123504000Y-56896000D01*
X123504000Y-56642000D01*
X123524000Y-56642000D01*
X123524000Y-55642750D01*
X123778000Y-55642750D01*
X123778000Y-56642000D01*
X124877250Y-56642000D01*
X125036000Y-56483250D01*
X125036000Y-55992690D01*
X124939327Y-55759301D01*
X124760698Y-55580673D01*
X124527309Y-55484000D01*
X123936750Y-55484000D01*
X123778000Y-55642750D01*
X123524000Y-55642750D01*
X123365250Y-55484000D01*
X122774691Y-55484000D01*
X122541302Y-55580673D01*
X122362673Y-55759301D01*
X122306346Y-55895287D01*
X122304162Y-55883683D01*
X122165090Y-55667559D01*
X121952890Y-55522569D01*
X121701000Y-55471560D01*
X120201000Y-55471560D01*
X119965683Y-55515838D01*
X119749559Y-55654910D01*
X119604569Y-55867110D01*
X119575836Y-56009000D01*
X119486689Y-56009000D01*
X119472622Y-55934243D01*
X119333550Y-55718119D01*
X119121350Y-55573129D01*
X118869460Y-55522120D01*
X117670580Y-55522120D01*
X117435263Y-55566398D01*
X117219139Y-55705470D01*
X117218457Y-55706467D01*
X117023310Y-55573129D01*
X116771420Y-55522120D01*
X115572540Y-55522120D01*
X115337223Y-55566398D01*
X115137000Y-55695238D01*
X115137000Y-54029388D01*
X115320650Y-54154871D01*
X115572540Y-54205880D01*
X115678578Y-54205880D01*
X116158878Y-54686180D01*
X116158838Y-54731667D01*
X116300883Y-55075443D01*
X116563673Y-55338692D01*
X116907201Y-55481338D01*
X117279167Y-55481662D01*
X117622943Y-55339617D01*
X117886192Y-55076827D01*
X118028838Y-54733299D01*
X118029162Y-54361333D01*
X117964930Y-54205880D01*
X118869460Y-54205880D01*
X119104777Y-54161602D01*
X119320901Y-54022530D01*
X119465891Y-53810330D01*
X119484386Y-53719000D01*
X119574258Y-53719000D01*
X119597838Y-53844317D01*
X119736910Y-54060441D01*
X119949110Y-54205431D01*
X120201000Y-54256440D01*
X121701000Y-54256440D01*
X121936317Y-54212162D01*
X122152441Y-54073090D01*
X122297431Y-53860890D01*
X122304191Y-53827510D01*
X122362673Y-53968699D01*
X122541302Y-54147327D01*
X122774691Y-54244000D01*
X123365250Y-54244000D01*
X123524000Y-54085250D01*
X123524000Y-53086000D01*
X123778000Y-53086000D01*
X123778000Y-54085250D01*
X123936750Y-54244000D01*
X124527309Y-54244000D01*
X124760698Y-54147327D01*
X124939327Y-53968699D01*
X125036000Y-53735310D01*
X125036000Y-53244750D01*
X124877250Y-53086000D01*
X123778000Y-53086000D01*
X123524000Y-53086000D01*
X123504000Y-53086000D01*
X123504000Y-52832000D01*
X123524000Y-52832000D01*
X123524000Y-51832750D01*
X123778000Y-51832750D01*
X123778000Y-52832000D01*
X124877250Y-52832000D01*
X125036000Y-52673250D01*
X125036000Y-52182690D01*
X124983395Y-52055690D01*
X145220000Y-52055690D01*
X145220000Y-52546250D01*
X145378750Y-52705000D01*
X146478000Y-52705000D01*
X146478000Y-51705750D01*
X146732000Y-51705750D01*
X146732000Y-52705000D01*
X146752000Y-52705000D01*
X146752000Y-52959000D01*
X146732000Y-52959000D01*
X146732000Y-53958250D01*
X146890750Y-54117000D01*
X147481309Y-54117000D01*
X147714698Y-54020327D01*
X147893327Y-53841699D01*
X147949654Y-53705713D01*
X147951838Y-53717317D01*
X148090910Y-53933441D01*
X148303110Y-54078431D01*
X148555000Y-54129440D01*
X150055000Y-54129440D01*
X150290317Y-54085162D01*
X150506441Y-53946090D01*
X150651431Y-53733890D01*
X150680164Y-53592000D01*
X150769311Y-53592000D01*
X150783378Y-53666757D01*
X150922450Y-53882881D01*
X151134650Y-54027871D01*
X151386540Y-54078880D01*
X152190402Y-54078880D01*
X152100162Y-54296201D01*
X152099838Y-54668167D01*
X152241883Y-55011943D01*
X152504673Y-55275192D01*
X152848201Y-55417838D01*
X153220167Y-55418162D01*
X153563943Y-55276117D01*
X153827192Y-55013327D01*
X153969838Y-54669799D01*
X153969879Y-54622923D01*
X154513922Y-54078880D01*
X154683460Y-54078880D01*
X154918777Y-54034602D01*
X155134901Y-53895530D01*
X155279891Y-53683330D01*
X155330900Y-53431440D01*
X155330900Y-52232560D01*
X155286622Y-51997243D01*
X155147550Y-51781119D01*
X154935350Y-51636129D01*
X154683460Y-51585120D01*
X153484580Y-51585120D01*
X153249263Y-51629398D01*
X153033139Y-51768470D01*
X153032457Y-51769467D01*
X152837310Y-51636129D01*
X152585420Y-51585120D01*
X151386540Y-51585120D01*
X151151223Y-51629398D01*
X150935099Y-51768470D01*
X150790109Y-51980670D01*
X150771614Y-52072000D01*
X150681742Y-52072000D01*
X150658162Y-51946683D01*
X150519090Y-51730559D01*
X150306890Y-51585569D01*
X150055000Y-51534560D01*
X148555000Y-51534560D01*
X148319683Y-51578838D01*
X148103559Y-51717910D01*
X147958569Y-51930110D01*
X147951809Y-51963490D01*
X147893327Y-51822301D01*
X147714698Y-51643673D01*
X147481309Y-51547000D01*
X146890750Y-51547000D01*
X146732000Y-51705750D01*
X146478000Y-51705750D01*
X146319250Y-51547000D01*
X145728691Y-51547000D01*
X145495302Y-51643673D01*
X145316673Y-51822301D01*
X145220000Y-52055690D01*
X124983395Y-52055690D01*
X124939327Y-51949301D01*
X124760698Y-51770673D01*
X124527309Y-51674000D01*
X123936750Y-51674000D01*
X123778000Y-51832750D01*
X123524000Y-51832750D01*
X123365250Y-51674000D01*
X122774691Y-51674000D01*
X122541302Y-51770673D01*
X122362673Y-51949301D01*
X122306346Y-52085287D01*
X122304162Y-52073683D01*
X122165090Y-51857559D01*
X121952890Y-51712569D01*
X121701000Y-51661560D01*
X120201000Y-51661560D01*
X119965683Y-51705838D01*
X119749559Y-51844910D01*
X119604569Y-52057110D01*
X119575836Y-52199000D01*
X119486689Y-52199000D01*
X119472622Y-52124243D01*
X119333550Y-51908119D01*
X119121350Y-51763129D01*
X118869460Y-51712120D01*
X117670580Y-51712120D01*
X117435263Y-51756398D01*
X117219139Y-51895470D01*
X117218457Y-51896467D01*
X117023310Y-51763129D01*
X116771420Y-51712120D01*
X115572540Y-51712120D01*
X115337223Y-51756398D01*
X115137000Y-51885238D01*
X115137000Y-50494000D01*
X155373000Y-50494000D01*
X155373000Y-67763612D01*
X155373000Y-67763612D01*
G37*
X155373000Y-67763612D02*
X155189350Y-67638129D01*
X154937460Y-67587120D01*
X153738580Y-67587120D01*
X153611911Y-67610955D01*
X153700192Y-67522827D01*
X153842838Y-67179299D01*
X153842879Y-67132423D01*
X154621421Y-66353881D01*
X154786168Y-66107320D01*
X154799559Y-66040000D01*
X154808851Y-65993286D01*
X154918777Y-65972602D01*
X155134901Y-65833530D01*
X155279891Y-65621330D01*
X155330900Y-65369440D01*
X155330900Y-64170560D01*
X155286622Y-63935243D01*
X155147550Y-63719119D01*
X154935350Y-63574129D01*
X154683460Y-63523120D01*
X153484580Y-63523120D01*
X153249263Y-63567398D01*
X153033139Y-63706470D01*
X153032457Y-63707467D01*
X152837310Y-63574129D01*
X152585420Y-63523120D01*
X151386540Y-63523120D01*
X151151223Y-63567398D01*
X150935099Y-63706470D01*
X150790109Y-63918670D01*
X150771614Y-64010000D01*
X150681742Y-64010000D01*
X150658162Y-63884683D01*
X150519090Y-63668559D01*
X150306890Y-63523569D01*
X150055000Y-63472560D01*
X148555000Y-63472560D01*
X148319683Y-63516838D01*
X148103559Y-63655910D01*
X147958569Y-63868110D01*
X147951809Y-63901490D01*
X147893327Y-63760301D01*
X147714698Y-63581673D01*
X147481309Y-63485000D01*
X146890750Y-63485000D01*
X146732000Y-63643750D01*
X146732000Y-64643000D01*
X146752000Y-64643000D01*
X146752000Y-64897000D01*
X146732000Y-64897000D01*
X146732000Y-65896250D01*
X146890750Y-66055000D01*
X147481309Y-66055000D01*
X147714698Y-65958327D01*
X147893327Y-65779699D01*
X147949654Y-65643713D01*
X147951838Y-65655317D01*
X148090910Y-65871441D01*
X148303110Y-66016431D01*
X148555000Y-66067440D01*
X150055000Y-66067440D01*
X150290317Y-66023162D01*
X150506441Y-65884090D01*
X150651431Y-65671890D01*
X150680164Y-65530000D01*
X150769311Y-65530000D01*
X150783378Y-65604757D01*
X150922450Y-65820881D01*
X151134650Y-65965871D01*
X151386540Y-66016880D01*
X152585420Y-66016880D01*
X152820737Y-65972602D01*
X152911501Y-65914197D01*
X152768320Y-66057378D01*
X152722833Y-66057338D01*
X152379057Y-66199383D01*
X152115808Y-66462173D01*
X151973162Y-66805701D01*
X151972838Y-67177667D01*
X152114883Y-67521443D01*
X152180445Y-67587120D01*
X151640540Y-67587120D01*
X151405223Y-67631398D01*
X151189099Y-67770470D01*
X151044109Y-67982670D01*
X151025614Y-68074000D01*
X150681742Y-68074000D01*
X150658162Y-67948683D01*
X150519090Y-67732559D01*
X150306890Y-67587569D01*
X150055000Y-67536560D01*
X148555000Y-67536560D01*
X148319683Y-67580838D01*
X148103559Y-67719910D01*
X147958569Y-67932110D01*
X147951809Y-67965490D01*
X147893327Y-67824301D01*
X147714698Y-67645673D01*
X147481309Y-67549000D01*
X146890750Y-67549000D01*
X146732000Y-67707750D01*
X146732000Y-68707000D01*
X146752000Y-68707000D01*
X146752000Y-68961000D01*
X146732000Y-68961000D01*
X146732000Y-69960250D01*
X146890750Y-70119000D01*
X147481309Y-70119000D01*
X147714698Y-70022327D01*
X147893327Y-69843699D01*
X147949654Y-69707713D01*
X147951838Y-69719317D01*
X148090910Y-69935441D01*
X148303110Y-70080431D01*
X148555000Y-70131440D01*
X150055000Y-70131440D01*
X150290317Y-70087162D01*
X150506441Y-69948090D01*
X150651431Y-69735890D01*
X150680164Y-69594000D01*
X151023311Y-69594000D01*
X151037378Y-69668757D01*
X151176450Y-69884881D01*
X151388650Y-70029871D01*
X151640540Y-70080880D01*
X152561213Y-70080880D01*
X152496808Y-70145173D01*
X152354162Y-70488701D01*
X152353838Y-70860667D01*
X152495883Y-71204443D01*
X152610782Y-71319543D01*
X152481162Y-71631701D01*
X152481145Y-71651120D01*
X151640540Y-71651120D01*
X151405223Y-71695398D01*
X151189099Y-71834470D01*
X151044109Y-72046670D01*
X151025614Y-72138000D01*
X150681742Y-72138000D01*
X150658162Y-72012683D01*
X150519090Y-71796559D01*
X150306890Y-71651569D01*
X150055000Y-71600560D01*
X148555000Y-71600560D01*
X148319683Y-71644838D01*
X148103559Y-71783910D01*
X147958569Y-71996110D01*
X147951809Y-72029490D01*
X147893327Y-71888301D01*
X147714698Y-71709673D01*
X147481309Y-71613000D01*
X146890750Y-71613000D01*
X146732000Y-71771750D01*
X146732000Y-72771000D01*
X146752000Y-72771000D01*
X146752000Y-73025000D01*
X146732000Y-73025000D01*
X146732000Y-74024250D01*
X146890750Y-74183000D01*
X147481309Y-74183000D01*
X147714698Y-74086327D01*
X147893327Y-73907699D01*
X147949654Y-73771713D01*
X147951838Y-73783317D01*
X148090910Y-73999441D01*
X148303110Y-74144431D01*
X148555000Y-74195440D01*
X150055000Y-74195440D01*
X150290317Y-74151162D01*
X150506441Y-74012090D01*
X150651431Y-73799890D01*
X150680164Y-73658000D01*
X151023311Y-73658000D01*
X151037378Y-73732757D01*
X151176450Y-73948881D01*
X151388650Y-74093871D01*
X151640540Y-74144880D01*
X152624602Y-74144880D01*
X152623808Y-74145673D01*
X152481162Y-74489201D01*
X152480838Y-74861167D01*
X152622883Y-75204943D01*
X152885673Y-75468192D01*
X152896459Y-75472671D01*
X152839420Y-75461120D01*
X151640540Y-75461120D01*
X151405223Y-75505398D01*
X151189099Y-75644470D01*
X151044109Y-75856670D01*
X151025614Y-75948000D01*
X150681742Y-75948000D01*
X150658162Y-75822683D01*
X150519090Y-75606559D01*
X150306890Y-75461569D01*
X150055000Y-75410560D01*
X148555000Y-75410560D01*
X148319683Y-75454838D01*
X148103559Y-75593910D01*
X147958569Y-75806110D01*
X147951809Y-75839490D01*
X147893327Y-75698301D01*
X147714698Y-75519673D01*
X147481309Y-75423000D01*
X146890750Y-75423000D01*
X146732000Y-75581750D01*
X146732000Y-76581000D01*
X146752000Y-76581000D01*
X146752000Y-76835000D01*
X146732000Y-76835000D01*
X146732000Y-77834250D01*
X146890750Y-77993000D01*
X147481309Y-77993000D01*
X147714698Y-77896327D01*
X147893327Y-77717699D01*
X147949654Y-77581713D01*
X147951838Y-77593317D01*
X148090910Y-77809441D01*
X148303110Y-77954431D01*
X148555000Y-78005440D01*
X150055000Y-78005440D01*
X150290317Y-77961162D01*
X150506441Y-77822090D01*
X150651431Y-77609890D01*
X150680164Y-77468000D01*
X151023311Y-77468000D01*
X151037378Y-77542757D01*
X151176450Y-77758881D01*
X151388650Y-77903871D01*
X151640540Y-77954880D01*
X152839420Y-77954880D01*
X153074737Y-77910602D01*
X153290861Y-77771530D01*
X153291543Y-77770533D01*
X153486690Y-77903871D01*
X153738580Y-77954880D01*
X154937460Y-77954880D01*
X155172777Y-77910602D01*
X155373000Y-77781762D01*
X155373000Y-79447612D01*
X155189350Y-79322129D01*
X154937460Y-79271120D01*
X153738580Y-79271120D01*
X153503263Y-79315398D01*
X153287139Y-79454470D01*
X153286457Y-79455467D01*
X153091310Y-79322129D01*
X152839420Y-79271120D01*
X151640540Y-79271120D01*
X151405223Y-79315398D01*
X151189099Y-79454470D01*
X151044109Y-79666670D01*
X151025614Y-79758000D01*
X150681742Y-79758000D01*
X150658162Y-79632683D01*
X150519090Y-79416559D01*
X150306890Y-79271569D01*
X150055000Y-79220560D01*
X148555000Y-79220560D01*
X148319683Y-79264838D01*
X148103559Y-79403910D01*
X147958569Y-79616110D01*
X147951809Y-79649490D01*
X147893327Y-79508301D01*
X147714698Y-79329673D01*
X147481309Y-79233000D01*
X146890750Y-79233000D01*
X146732000Y-79391750D01*
X146732000Y-80391000D01*
X146752000Y-80391000D01*
X146752000Y-80645000D01*
X146732000Y-80645000D01*
X146732000Y-80665000D01*
X146478000Y-80665000D01*
X146478000Y-80645000D01*
X145378750Y-80645000D01*
X145220000Y-80803750D01*
X145220000Y-81294310D01*
X145316673Y-81527699D01*
X145324974Y-81536000D01*
X143380302Y-81536000D01*
X141585992Y-79741690D01*
X145220000Y-79741690D01*
X145220000Y-80232250D01*
X145378750Y-80391000D01*
X146478000Y-80391000D01*
X146478000Y-79391750D01*
X146319250Y-79233000D01*
X145728691Y-79233000D01*
X145495302Y-79329673D01*
X145316673Y-79508301D01*
X145220000Y-79741690D01*
X141585992Y-79741690D01*
X141412500Y-79568198D01*
X141412500Y-76993750D01*
X145220000Y-76993750D01*
X145220000Y-77484310D01*
X145316673Y-77717699D01*
X145495302Y-77896327D01*
X145728691Y-77993000D01*
X146319250Y-77993000D01*
X146478000Y-77834250D01*
X146478000Y-76835000D01*
X145378750Y-76835000D01*
X145220000Y-76993750D01*
X141412500Y-76993750D01*
X141412500Y-70104000D01*
X141354648Y-69813161D01*
X141189901Y-69566599D01*
X141143122Y-69519820D01*
X141143162Y-69474333D01*
X141001117Y-69130557D01*
X140738327Y-68867308D01*
X140394799Y-68724662D01*
X140022833Y-68724338D01*
X139679057Y-68866383D01*
X139415808Y-69129173D01*
X139273162Y-69472701D01*
X139272838Y-69844667D01*
X139414883Y-70188443D01*
X139677673Y-70451692D01*
X139892500Y-70540896D01*
X139892500Y-75907900D01*
X138355070Y-75907900D01*
X138196320Y-76066650D01*
X138196320Y-77216000D01*
X138216320Y-77216000D01*
X138216320Y-77470000D01*
X138196320Y-77470000D01*
X138196320Y-78619350D01*
X138355070Y-78778100D01*
X139892500Y-78778100D01*
X139892500Y-79883000D01*
X139950352Y-80173839D01*
X140115099Y-80420401D01*
X142528099Y-82833401D01*
X142774660Y-82998148D01*
X143065500Y-83056000D01*
X153409460Y-83056000D01*
X153700299Y-82998148D01*
X153946861Y-82833401D01*
X154875421Y-81904841D01*
X154973467Y-81758105D01*
X155172777Y-81720602D01*
X155373000Y-81591762D01*
X155373000Y-83364000D01*
X117792967Y-83364000D01*
X117822692Y-83334327D01*
X117965338Y-82990799D01*
X117965662Y-82618833D01*
X117823617Y-82275057D01*
X117560827Y-82011808D01*
X117217299Y-81869162D01*
X117170423Y-81869121D01*
X117093241Y-81791939D01*
X117222861Y-81708530D01*
X117223543Y-81707533D01*
X117418690Y-81840871D01*
X117670580Y-81891880D01*
X118869460Y-81891880D01*
X119104777Y-81847602D01*
X119320901Y-81708530D01*
X119465891Y-81496330D01*
X119484386Y-81405000D01*
X119574258Y-81405000D01*
X119597838Y-81530317D01*
X119736910Y-81746441D01*
X119949110Y-81891431D01*
X120201000Y-81942440D01*
X121701000Y-81942440D01*
X121936317Y-81898162D01*
X122152441Y-81759090D01*
X122297431Y-81546890D01*
X122304191Y-81513510D01*
X122362673Y-81654699D01*
X122541302Y-81833327D01*
X122774691Y-81930000D01*
X123365250Y-81930000D01*
X123524000Y-81771250D01*
X123524000Y-80772000D01*
X123778000Y-80772000D01*
X123778000Y-81771250D01*
X123936750Y-81930000D01*
X124527309Y-81930000D01*
X124760698Y-81833327D01*
X124939327Y-81654699D01*
X125036000Y-81421310D01*
X125036000Y-80930750D01*
X124877250Y-80772000D01*
X123778000Y-80772000D01*
X123524000Y-80772000D01*
X123504000Y-80772000D01*
X123504000Y-80518000D01*
X123524000Y-80518000D01*
X123524000Y-79518750D01*
X123778000Y-79518750D01*
X123778000Y-80518000D01*
X124877250Y-80518000D01*
X125036000Y-80359250D01*
X125036000Y-79868690D01*
X124939327Y-79635301D01*
X124760698Y-79456673D01*
X124527309Y-79360000D01*
X123936750Y-79360000D01*
X123778000Y-79518750D01*
X123524000Y-79518750D01*
X123365250Y-79360000D01*
X122774691Y-79360000D01*
X122541302Y-79456673D01*
X122362673Y-79635301D01*
X122306346Y-79771287D01*
X122304162Y-79759683D01*
X122165090Y-79543559D01*
X121952890Y-79398569D01*
X121701000Y-79347560D01*
X120201000Y-79347560D01*
X119965683Y-79391838D01*
X119749559Y-79530910D01*
X119604569Y-79743110D01*
X119575836Y-79885000D01*
X119486689Y-79885000D01*
X119472622Y-79810243D01*
X119333550Y-79594119D01*
X119121350Y-79449129D01*
X118869460Y-79398120D01*
X117670580Y-79398120D01*
X117637259Y-79404390D01*
X117940443Y-79279117D01*
X118203692Y-79016327D01*
X118346338Y-78672799D01*
X118346662Y-78300833D01*
X118204617Y-77957057D01*
X118075665Y-77827880D01*
X118869460Y-77827880D01*
X119104777Y-77783602D01*
X119320901Y-77644530D01*
X119465891Y-77432330D01*
X119484386Y-77341000D01*
X119574258Y-77341000D01*
X119597838Y-77466317D01*
X119736910Y-77682441D01*
X119949110Y-77827431D01*
X120201000Y-77878440D01*
X121701000Y-77878440D01*
X121936317Y-77834162D01*
X122152441Y-77695090D01*
X122297431Y-77482890D01*
X122304191Y-77449510D01*
X122362673Y-77590699D01*
X122541302Y-77769327D01*
X122774691Y-77866000D01*
X123365250Y-77866000D01*
X123524000Y-77707250D01*
X123524000Y-76708000D01*
X123778000Y-76708000D01*
X123778000Y-77707250D01*
X123936750Y-77866000D01*
X124527309Y-77866000D01*
X124760698Y-77769327D01*
X124939327Y-77590699D01*
X125036000Y-77357310D01*
X125036000Y-76866750D01*
X124877250Y-76708000D01*
X123778000Y-76708000D01*
X123524000Y-76708000D01*
X123504000Y-76708000D01*
X123504000Y-76454000D01*
X123524000Y-76454000D01*
X123524000Y-75454750D01*
X123778000Y-75454750D01*
X123778000Y-76454000D01*
X124877250Y-76454000D01*
X125036000Y-76295250D01*
X125036000Y-75804690D01*
X124939327Y-75571301D01*
X124760698Y-75392673D01*
X124527309Y-75296000D01*
X123936750Y-75296000D01*
X123778000Y-75454750D01*
X123524000Y-75454750D01*
X123365250Y-75296000D01*
X122774691Y-75296000D01*
X122541302Y-75392673D01*
X122362673Y-75571301D01*
X122306346Y-75707287D01*
X122304162Y-75695683D01*
X122165090Y-75479559D01*
X121952890Y-75334569D01*
X121701000Y-75283560D01*
X120201000Y-75283560D01*
X119965683Y-75327838D01*
X119749559Y-75466910D01*
X119604569Y-75679110D01*
X119575836Y-75821000D01*
X119486689Y-75821000D01*
X119472622Y-75746243D01*
X119333550Y-75530119D01*
X119121350Y-75385129D01*
X118869460Y-75334120D01*
X117670580Y-75334120D01*
X117435263Y-75378398D01*
X117219139Y-75517470D01*
X117218457Y-75518467D01*
X117023310Y-75385129D01*
X116771420Y-75334120D01*
X115572540Y-75334120D01*
X115337223Y-75378398D01*
X115137000Y-75507238D01*
X115137000Y-73587388D01*
X115320650Y-73712871D01*
X115572540Y-73763880D01*
X115621549Y-73763880D01*
X115634579Y-73783381D01*
X116349378Y-74498180D01*
X116349338Y-74543667D01*
X116491383Y-74887443D01*
X116754173Y-75150692D01*
X117097701Y-75293338D01*
X117469667Y-75293662D01*
X117813443Y-75151617D01*
X118076692Y-74888827D01*
X118219338Y-74545299D01*
X118219662Y-74173333D01*
X118077617Y-73829557D01*
X118012055Y-73763880D01*
X118869460Y-73763880D01*
X119104777Y-73719602D01*
X119320901Y-73580530D01*
X119465891Y-73368330D01*
X119484386Y-73277000D01*
X119574258Y-73277000D01*
X119597838Y-73402317D01*
X119736910Y-73618441D01*
X119949110Y-73763431D01*
X120201000Y-73814440D01*
X121701000Y-73814440D01*
X121936317Y-73770162D01*
X122152441Y-73631090D01*
X122297431Y-73418890D01*
X122304191Y-73385510D01*
X122362673Y-73526699D01*
X122541302Y-73705327D01*
X122774691Y-73802000D01*
X123365250Y-73802000D01*
X123524000Y-73643250D01*
X123524000Y-72644000D01*
X123778000Y-72644000D01*
X123778000Y-73643250D01*
X123936750Y-73802000D01*
X124527309Y-73802000D01*
X124760698Y-73705327D01*
X124939327Y-73526699D01*
X125036000Y-73293310D01*
X125036000Y-72802750D01*
X124877250Y-72644000D01*
X123778000Y-72644000D01*
X123524000Y-72644000D01*
X123504000Y-72644000D01*
X123504000Y-72390000D01*
X123524000Y-72390000D01*
X123524000Y-71390750D01*
X123778000Y-71390750D01*
X123778000Y-72390000D01*
X124877250Y-72390000D01*
X125036000Y-72231250D01*
X125036000Y-71740690D01*
X124939327Y-71507301D01*
X124760698Y-71328673D01*
X124527309Y-71232000D01*
X123936750Y-71232000D01*
X123778000Y-71390750D01*
X123524000Y-71390750D01*
X123365250Y-71232000D01*
X122774691Y-71232000D01*
X122541302Y-71328673D01*
X122362673Y-71507301D01*
X122306346Y-71643287D01*
X122304162Y-71631683D01*
X122165090Y-71415559D01*
X121952890Y-71270569D01*
X121701000Y-71219560D01*
X120201000Y-71219560D01*
X119965683Y-71263838D01*
X119749559Y-71402910D01*
X119604569Y-71615110D01*
X119575836Y-71757000D01*
X119486689Y-71757000D01*
X119472622Y-71682243D01*
X119333550Y-71466119D01*
X119121350Y-71321129D01*
X118869460Y-71270120D01*
X117885398Y-71270120D01*
X117886192Y-71269327D01*
X117908646Y-71215250D01*
X126111000Y-71215250D01*
X126111000Y-71309809D01*
X126207673Y-71543198D01*
X126386301Y-71721827D01*
X126619690Y-71818500D01*
X127031750Y-71818500D01*
X127190500Y-71659750D01*
X127190500Y-71056500D01*
X126269750Y-71056500D01*
X126111000Y-71215250D01*
X117908646Y-71215250D01*
X118028838Y-70925799D01*
X118029162Y-70553833D01*
X117887117Y-70210057D01*
X117884944Y-70207880D01*
X118869460Y-70207880D01*
X119104777Y-70163602D01*
X119320901Y-70024530D01*
X119465891Y-69812330D01*
X119484386Y-69721000D01*
X119574258Y-69721000D01*
X119597838Y-69846317D01*
X119736910Y-70062441D01*
X119949110Y-70207431D01*
X120201000Y-70258440D01*
X121701000Y-70258440D01*
X121936317Y-70214162D01*
X122152441Y-70075090D01*
X122297431Y-69862890D01*
X122304191Y-69829510D01*
X122362673Y-69970699D01*
X122541302Y-70149327D01*
X122774691Y-70246000D01*
X123365250Y-70246000D01*
X123524000Y-70087250D01*
X123524000Y-69088000D01*
X123778000Y-69088000D01*
X123778000Y-70087250D01*
X123936750Y-70246000D01*
X124527309Y-70246000D01*
X124760698Y-70149327D01*
X124939327Y-69970699D01*
X125036000Y-69737310D01*
X125036000Y-69246750D01*
X124877250Y-69088000D01*
X123778000Y-69088000D01*
X123524000Y-69088000D01*
X123504000Y-69088000D01*
X123504000Y-68834000D01*
X123524000Y-68834000D01*
X123524000Y-67834750D01*
X123778000Y-67834750D01*
X123778000Y-68834000D01*
X124877250Y-68834000D01*
X125036000Y-68675250D01*
X125036000Y-68184690D01*
X124939327Y-67951301D01*
X124760698Y-67772673D01*
X124527309Y-67676000D01*
X123936750Y-67676000D01*
X123778000Y-67834750D01*
X123524000Y-67834750D01*
X123365250Y-67676000D01*
X122774691Y-67676000D01*
X122541302Y-67772673D01*
X122362673Y-67951301D01*
X122306346Y-68087287D01*
X122304162Y-68075683D01*
X122165090Y-67859559D01*
X121952890Y-67714569D01*
X121701000Y-67663560D01*
X120201000Y-67663560D01*
X119965683Y-67707838D01*
X119749559Y-67846910D01*
X119604569Y-68059110D01*
X119575836Y-68201000D01*
X119486689Y-68201000D01*
X119472622Y-68126243D01*
X119333550Y-67910119D01*
X119121350Y-67765129D01*
X118869460Y-67714120D01*
X117670580Y-67714120D01*
X117435263Y-67758398D01*
X117219139Y-67897470D01*
X117218457Y-67898467D01*
X117023310Y-67765129D01*
X116771420Y-67714120D01*
X115572540Y-67714120D01*
X115337223Y-67758398D01*
X115137000Y-67887238D01*
X115137000Y-65967388D01*
X115320650Y-66092871D01*
X115459938Y-66121077D01*
X115469832Y-66170819D01*
X115634579Y-66417381D01*
X116158878Y-66941680D01*
X116158838Y-66987167D01*
X116300883Y-67330943D01*
X116563673Y-67594192D01*
X116907201Y-67736838D01*
X117279167Y-67737162D01*
X117622943Y-67595117D01*
X117886192Y-67332327D01*
X118028838Y-66988799D01*
X118029162Y-66616833D01*
X117887117Y-66273057D01*
X117758165Y-66143880D01*
X118869460Y-66143880D01*
X119104777Y-66099602D01*
X119320901Y-65960530D01*
X119465891Y-65748330D01*
X119484386Y-65657000D01*
X119574258Y-65657000D01*
X119597838Y-65782317D01*
X119736910Y-65998441D01*
X119949110Y-66143431D01*
X120201000Y-66194440D01*
X121701000Y-66194440D01*
X121936317Y-66150162D01*
X122152441Y-66011090D01*
X122297431Y-65798890D01*
X122304191Y-65765510D01*
X122362673Y-65906699D01*
X122541302Y-66085327D01*
X122774691Y-66182000D01*
X123365250Y-66182000D01*
X123524000Y-66023250D01*
X123524000Y-65024000D01*
X123778000Y-65024000D01*
X123778000Y-66023250D01*
X123936750Y-66182000D01*
X124527309Y-66182000D01*
X124760698Y-66085327D01*
X124939327Y-65906699D01*
X125036000Y-65673310D01*
X125036000Y-65182750D01*
X124877250Y-65024000D01*
X123778000Y-65024000D01*
X123524000Y-65024000D01*
X123504000Y-65024000D01*
X123504000Y-64770000D01*
X123524000Y-64770000D01*
X123524000Y-63770750D01*
X123778000Y-63770750D01*
X123778000Y-64770000D01*
X124877250Y-64770000D01*
X125036000Y-64611250D01*
X125036000Y-64120690D01*
X124939327Y-63887301D01*
X124760698Y-63708673D01*
X124527309Y-63612000D01*
X123936750Y-63612000D01*
X123778000Y-63770750D01*
X123524000Y-63770750D01*
X123365250Y-63612000D01*
X122774691Y-63612000D01*
X122541302Y-63708673D01*
X122362673Y-63887301D01*
X122306346Y-64023287D01*
X122304162Y-64011683D01*
X122165090Y-63795559D01*
X121952890Y-63650569D01*
X121701000Y-63599560D01*
X120201000Y-63599560D01*
X119965683Y-63643838D01*
X119749559Y-63782910D01*
X119604569Y-63995110D01*
X119575836Y-64137000D01*
X119486689Y-64137000D01*
X119472622Y-64062243D01*
X119333550Y-63846119D01*
X119121350Y-63701129D01*
X118869460Y-63650120D01*
X117670580Y-63650120D01*
X117435263Y-63694398D01*
X117219139Y-63833470D01*
X117218457Y-63834467D01*
X117023310Y-63701129D01*
X116771420Y-63650120D01*
X115572540Y-63650120D01*
X115337223Y-63694398D01*
X115137000Y-63823238D01*
X115137000Y-61903388D01*
X115320650Y-62028871D01*
X115572540Y-62079880D01*
X115579120Y-62079880D01*
X115634579Y-62162881D01*
X116222378Y-62750680D01*
X116222338Y-62796167D01*
X116364383Y-63139943D01*
X116627173Y-63403192D01*
X116970701Y-63545838D01*
X117342667Y-63546162D01*
X117686443Y-63404117D01*
X117949692Y-63141327D01*
X118092338Y-62797799D01*
X118092662Y-62425833D01*
X117950617Y-62082057D01*
X117948444Y-62079880D01*
X118869460Y-62079880D01*
X119104777Y-62035602D01*
X119320901Y-61896530D01*
X119465891Y-61684330D01*
X119484386Y-61593000D01*
X119574258Y-61593000D01*
X119597838Y-61718317D01*
X119736910Y-61934441D01*
X119949110Y-62079431D01*
X120201000Y-62130440D01*
X121701000Y-62130440D01*
X121936317Y-62086162D01*
X122152441Y-61947090D01*
X122297431Y-61734890D01*
X122304191Y-61701510D01*
X122362673Y-61842699D01*
X122541302Y-62021327D01*
X122774691Y-62118000D01*
X123365250Y-62118000D01*
X123524000Y-61959250D01*
X123524000Y-60960000D01*
X123778000Y-60960000D01*
X123778000Y-61959250D01*
X123936750Y-62118000D01*
X124527309Y-62118000D01*
X124760698Y-62021327D01*
X124939327Y-61842699D01*
X124963019Y-61785500D01*
X126098560Y-61785500D01*
X126098560Y-62293500D01*
X126142838Y-62528817D01*
X126233604Y-62669871D01*
X126207673Y-62695802D01*
X126111000Y-62929191D01*
X126111000Y-63023750D01*
X126269750Y-63182500D01*
X127190500Y-63182500D01*
X127190500Y-63162500D01*
X127444500Y-63162500D01*
X127444500Y-63182500D01*
X127464500Y-63182500D01*
X127464500Y-63436500D01*
X127444500Y-63436500D01*
X127444500Y-63456500D01*
X127190500Y-63456500D01*
X127190500Y-63436500D01*
X126269750Y-63436500D01*
X126111000Y-63595250D01*
X126111000Y-63689809D01*
X126207673Y-63923198D01*
X126234209Y-63949735D01*
X126149569Y-64073610D01*
X126098560Y-64325500D01*
X126098560Y-64833500D01*
X126142838Y-65068817D01*
X126237166Y-65215407D01*
X126149569Y-65343610D01*
X126098560Y-65595500D01*
X126098560Y-66103500D01*
X126142838Y-66338817D01*
X126237166Y-66485407D01*
X126149569Y-66613610D01*
X126098560Y-66865500D01*
X126098560Y-67373500D01*
X126142838Y-67608817D01*
X126237166Y-67755407D01*
X126149569Y-67883610D01*
X126098560Y-68135500D01*
X126098560Y-68643500D01*
X126142838Y-68878817D01*
X126237166Y-69025407D01*
X126149569Y-69153610D01*
X126098560Y-69405500D01*
X126098560Y-69913500D01*
X126142838Y-70148817D01*
X126233604Y-70289871D01*
X126207673Y-70315802D01*
X126111000Y-70549191D01*
X126111000Y-70643750D01*
X126269750Y-70802500D01*
X127190500Y-70802500D01*
X127190500Y-70782500D01*
X127444500Y-70782500D01*
X127444500Y-70802500D01*
X127464500Y-70802500D01*
X127464500Y-71056500D01*
X127444500Y-71056500D01*
X127444500Y-71659750D01*
X127603250Y-71818500D01*
X128015310Y-71818500D01*
X128081500Y-71791083D01*
X128081500Y-79885698D01*
X127304820Y-80662378D01*
X127259333Y-80662338D01*
X126915557Y-80804383D01*
X126652308Y-81067173D01*
X126509662Y-81410701D01*
X126509338Y-81782667D01*
X126651383Y-82126443D01*
X126914173Y-82389692D01*
X127257701Y-82532338D01*
X127629667Y-82532662D01*
X127973443Y-82390617D01*
X128236692Y-82127827D01*
X128379338Y-81784299D01*
X128379379Y-81737423D01*
X129378901Y-80737901D01*
X129543648Y-80491340D01*
X129601500Y-80200500D01*
X129601500Y-76534603D01*
X129670701Y-76563338D01*
X130042667Y-76563662D01*
X130123183Y-76530394D01*
X130120650Y-76542900D01*
X130120650Y-78143100D01*
X130164928Y-78378417D01*
X130304000Y-78594541D01*
X130516200Y-78739531D01*
X130768090Y-78790540D01*
X134367270Y-78790540D01*
X134602587Y-78746262D01*
X134818711Y-78607190D01*
X134963701Y-78394990D01*
X135014710Y-78143100D01*
X135014710Y-77628750D01*
X135634730Y-77628750D01*
X135634730Y-78269410D01*
X135731403Y-78502799D01*
X135910032Y-78681427D01*
X136143421Y-78778100D01*
X137783570Y-78778100D01*
X137942320Y-78619350D01*
X137942320Y-77470000D01*
X135793480Y-77470000D01*
X135634730Y-77628750D01*
X135014710Y-77628750D01*
X135014710Y-76542900D01*
X134990944Y-76416590D01*
X135634730Y-76416590D01*
X135634730Y-77057250D01*
X135793480Y-77216000D01*
X137942320Y-77216000D01*
X137942320Y-76066650D01*
X137783570Y-75907900D01*
X136143421Y-75907900D01*
X135910032Y-76004573D01*
X135731403Y-76183201D01*
X135634730Y-76416590D01*
X134990944Y-76416590D01*
X134970432Y-76307583D01*
X134831360Y-76091459D01*
X134619160Y-75946469D01*
X134367270Y-75895460D01*
X133392680Y-75895460D01*
X133392680Y-74784046D01*
X136060541Y-72116185D01*
X136239379Y-71848536D01*
X136257984Y-71755000D01*
X136366250Y-71755000D01*
X136525000Y-71596250D01*
X136525000Y-70993000D01*
X136779000Y-70993000D01*
X136779000Y-71596250D01*
X136937750Y-71755000D01*
X137349810Y-71755000D01*
X137583199Y-71658327D01*
X137761827Y-71479698D01*
X137858500Y-71246309D01*
X137858500Y-71151750D01*
X137699750Y-70993000D01*
X136779000Y-70993000D01*
X136525000Y-70993000D01*
X136505000Y-70993000D01*
X136505000Y-70739000D01*
X136525000Y-70739000D01*
X136525000Y-70719000D01*
X136779000Y-70719000D01*
X136779000Y-70739000D01*
X137699750Y-70739000D01*
X137858500Y-70580250D01*
X137858500Y-70485691D01*
X137804780Y-70356000D01*
X137810495Y-70356000D01*
X137925701Y-70403838D01*
X138297667Y-70404162D01*
X138641443Y-70262117D01*
X138904692Y-69999327D01*
X139047338Y-69655799D01*
X139047662Y-69283833D01*
X138905617Y-68940057D01*
X138642827Y-68676808D01*
X138299299Y-68534162D01*
X137927333Y-68533838D01*
X137870940Y-68557139D01*
X137870940Y-68499362D01*
X139556402Y-66813900D01*
X139721149Y-66567338D01*
X139779001Y-66276499D01*
X139779001Y-64512103D01*
X139847943Y-64483617D01*
X140111192Y-64220827D01*
X140253838Y-63877299D01*
X140254162Y-63505333D01*
X140112117Y-63161557D01*
X139849327Y-62898308D01*
X139505799Y-62755662D01*
X139133833Y-62755338D01*
X138790057Y-62897383D01*
X138526808Y-63160173D01*
X138384162Y-63503701D01*
X138384079Y-63599049D01*
X138316853Y-63699660D01*
X138259001Y-63990499D01*
X138259001Y-65961697D01*
X137759064Y-66461634D01*
X137732334Y-66420093D01*
X137819931Y-66291890D01*
X137870940Y-66040000D01*
X137870940Y-65532000D01*
X137826662Y-65296683D01*
X137732334Y-65150093D01*
X137819931Y-65021890D01*
X137870940Y-64770000D01*
X137870940Y-64262000D01*
X137826662Y-64026683D01*
X137735896Y-63885629D01*
X137761827Y-63859698D01*
X137858500Y-63626309D01*
X137858500Y-63531750D01*
X137699750Y-63373000D01*
X136779000Y-63373000D01*
X136779000Y-63393000D01*
X136525000Y-63393000D01*
X136525000Y-63373000D01*
X136505000Y-63373000D01*
X136505000Y-63119000D01*
X136525000Y-63119000D01*
X136525000Y-63099000D01*
X136779000Y-63099000D01*
X136779000Y-63119000D01*
X137699750Y-63119000D01*
X137858500Y-62960250D01*
X137858500Y-62865691D01*
X137761827Y-62632302D01*
X137735291Y-62605765D01*
X137819931Y-62481890D01*
X137870940Y-62230000D01*
X137870940Y-61722000D01*
X137826662Y-61486683D01*
X137687590Y-61270559D01*
X137475390Y-61125569D01*
X137223500Y-61074560D01*
X136338002Y-61074560D01*
X136338002Y-60316800D01*
X136935401Y-59719401D01*
X137100148Y-59472840D01*
X137158000Y-59182000D01*
X137158000Y-58414400D01*
X137668000Y-58515845D01*
X138178000Y-58414400D01*
X138178000Y-61159537D01*
X138145808Y-61191673D01*
X138003162Y-61535201D01*
X138002838Y-61907167D01*
X138144883Y-62250943D01*
X138407673Y-62514192D01*
X138751201Y-62656838D01*
X139123167Y-62657162D01*
X139466943Y-62515117D01*
X139730192Y-62252327D01*
X139872838Y-61908799D01*
X139873000Y-61722000D01*
X141783060Y-61722000D01*
X141783060Y-62230000D01*
X141827338Y-62465317D01*
X141921666Y-62611907D01*
X141834069Y-62740110D01*
X141783060Y-62992000D01*
X141783060Y-63500000D01*
X141827338Y-63735317D01*
X141921666Y-63881907D01*
X141834069Y-64010110D01*
X141783060Y-64262000D01*
X141783060Y-64770000D01*
X141827338Y-65005317D01*
X141921666Y-65151907D01*
X141834069Y-65280110D01*
X141783060Y-65532000D01*
X141783060Y-66040000D01*
X141827338Y-66275317D01*
X141921666Y-66421907D01*
X141834069Y-66550110D01*
X141783060Y-66802000D01*
X141783060Y-67310000D01*
X141827338Y-67545317D01*
X141921666Y-67691907D01*
X141834069Y-67820110D01*
X141783060Y-68072000D01*
X141783060Y-68580000D01*
X141827338Y-68815317D01*
X141921666Y-68961907D01*
X141834069Y-69090110D01*
X141783060Y-69342000D01*
X141783060Y-69850000D01*
X141827338Y-70085317D01*
X141921666Y-70231907D01*
X141834069Y-70360110D01*
X141783060Y-70612000D01*
X141783060Y-71120000D01*
X141827338Y-71355317D01*
X141966410Y-71571441D01*
X142178610Y-71716431D01*
X142242000Y-71729268D01*
X142242000Y-72453500D01*
X142299852Y-72744339D01*
X142464599Y-72990901D01*
X144289378Y-74815680D01*
X144289338Y-74861167D01*
X144431383Y-75204943D01*
X144694173Y-75468192D01*
X145037701Y-75610838D01*
X145403818Y-75611157D01*
X145316673Y-75698301D01*
X145220000Y-75931690D01*
X145220000Y-76422250D01*
X145378750Y-76581000D01*
X146478000Y-76581000D01*
X146478000Y-75581750D01*
X146319250Y-75423000D01*
X145799641Y-75423000D01*
X146016692Y-75206327D01*
X146159338Y-74862799D01*
X146159662Y-74490833D01*
X146032468Y-74183000D01*
X146319250Y-74183000D01*
X146478000Y-74024250D01*
X146478000Y-73025000D01*
X145378750Y-73025000D01*
X145220000Y-73183750D01*
X145220000Y-73596698D01*
X143762000Y-72138698D01*
X143762000Y-71731971D01*
X143808817Y-71723162D01*
X143958221Y-71627023D01*
X144162378Y-71831180D01*
X144162338Y-71876667D01*
X144304383Y-72220443D01*
X144567173Y-72483692D01*
X144910701Y-72626338D01*
X145234370Y-72626620D01*
X145378750Y-72771000D01*
X146478000Y-72771000D01*
X146478000Y-71771750D01*
X146319250Y-71613000D01*
X146032569Y-71613000D01*
X146032662Y-71506333D01*
X145899117Y-71183129D01*
X146032338Y-70862299D01*
X146032662Y-70490333D01*
X145890617Y-70146557D01*
X145863108Y-70119000D01*
X146319250Y-70119000D01*
X146478000Y-69960250D01*
X146478000Y-68961000D01*
X146458000Y-68961000D01*
X146458000Y-68707000D01*
X146478000Y-68707000D01*
X146478000Y-67707750D01*
X146319250Y-67549000D01*
X145968903Y-67549000D01*
X145969162Y-67251833D01*
X145848768Y-66960457D01*
X145968838Y-66671299D01*
X145969162Y-66299333D01*
X145868206Y-66055000D01*
X146319250Y-66055000D01*
X146478000Y-65896250D01*
X146478000Y-64897000D01*
X146458000Y-64897000D01*
X146458000Y-64643000D01*
X146478000Y-64643000D01*
X146478000Y-63643750D01*
X146319250Y-63485000D01*
X145728691Y-63485000D01*
X145495302Y-63581673D01*
X145316673Y-63760301D01*
X145220000Y-63993690D01*
X145220000Y-64484250D01*
X145378748Y-64642998D01*
X145331184Y-64642998D01*
X145220799Y-64597162D01*
X145173923Y-64597121D01*
X144555401Y-63978599D01*
X144521989Y-63956274D01*
X144562839Y-63948148D01*
X144809401Y-63783401D01*
X144983180Y-63609622D01*
X145028667Y-63609662D01*
X145372443Y-63467617D01*
X145635692Y-63204827D01*
X145778338Y-62861299D01*
X145778662Y-62489333D01*
X145667178Y-62219520D01*
X145728691Y-62245000D01*
X146319250Y-62245000D01*
X146478000Y-62086250D01*
X146478000Y-61087000D01*
X145378750Y-61087000D01*
X145220000Y-61245750D01*
X145220000Y-61736310D01*
X145261083Y-61835492D01*
X145030299Y-61739662D01*
X144658333Y-61739338D01*
X144314557Y-61881383D01*
X144220940Y-61974837D01*
X144220940Y-61722000D01*
X144176662Y-61486683D01*
X144037590Y-61270559D01*
X143827000Y-61126669D01*
X143827000Y-60183690D01*
X145220000Y-60183690D01*
X145220000Y-60674250D01*
X145378750Y-60833000D01*
X146478000Y-60833000D01*
X146478000Y-59833750D01*
X146732000Y-59833750D01*
X146732000Y-60833000D01*
X146752000Y-60833000D01*
X146752000Y-61087000D01*
X146732000Y-61087000D01*
X146732000Y-62086250D01*
X146890750Y-62245000D01*
X147481309Y-62245000D01*
X147714698Y-62148327D01*
X147893327Y-61969699D01*
X147949654Y-61833713D01*
X147951838Y-61845317D01*
X148090910Y-62061441D01*
X148303110Y-62206431D01*
X148555000Y-62257440D01*
X150055000Y-62257440D01*
X150290317Y-62213162D01*
X150506441Y-62074090D01*
X150651431Y-61861890D01*
X150680164Y-61720000D01*
X150769311Y-61720000D01*
X150783378Y-61794757D01*
X150922450Y-62010881D01*
X151134650Y-62155871D01*
X151386540Y-62206880D01*
X152100130Y-62206880D01*
X152099838Y-62542167D01*
X152241883Y-62885943D01*
X152504673Y-63149192D01*
X152848201Y-63291838D01*
X153220167Y-63292162D01*
X153563943Y-63150117D01*
X153827192Y-62887327D01*
X153969838Y-62543799D01*
X153969879Y-62496923D01*
X154259922Y-62206880D01*
X154683460Y-62206880D01*
X154918777Y-62162602D01*
X155134901Y-62023530D01*
X155279891Y-61811330D01*
X155330900Y-61559440D01*
X155330900Y-60360560D01*
X155286622Y-60125243D01*
X155147550Y-59909119D01*
X154935350Y-59764129D01*
X154683460Y-59713120D01*
X153484580Y-59713120D01*
X153249263Y-59757398D01*
X153033139Y-59896470D01*
X153032457Y-59897467D01*
X152837310Y-59764129D01*
X152585420Y-59713120D01*
X151386540Y-59713120D01*
X151151223Y-59757398D01*
X150935099Y-59896470D01*
X150790109Y-60108670D01*
X150771614Y-60200000D01*
X150681742Y-60200000D01*
X150658162Y-60074683D01*
X150519090Y-59858559D01*
X150306890Y-59713569D01*
X150055000Y-59662560D01*
X148555000Y-59662560D01*
X148319683Y-59706838D01*
X148103559Y-59845910D01*
X147958569Y-60058110D01*
X147951809Y-60091490D01*
X147893327Y-59950301D01*
X147714698Y-59771673D01*
X147481309Y-59675000D01*
X146890750Y-59675000D01*
X146732000Y-59833750D01*
X146478000Y-59833750D01*
X146319250Y-59675000D01*
X145728691Y-59675000D01*
X145495302Y-59771673D01*
X145316673Y-59950301D01*
X145220000Y-60183690D01*
X143827000Y-60183690D01*
X143827000Y-59880554D01*
X143836855Y-59856821D01*
X143837145Y-59524637D01*
X143710292Y-59217628D01*
X143475607Y-58982534D01*
X143168821Y-58855145D01*
X142836637Y-58854855D01*
X142529628Y-58981708D01*
X142294534Y-59216393D01*
X142167145Y-59523179D01*
X142166855Y-59855363D01*
X142177000Y-59879916D01*
X142177000Y-61130538D01*
X141979059Y-61257910D01*
X141834069Y-61470110D01*
X141783060Y-61722000D01*
X139873000Y-61722000D01*
X139873162Y-61536833D01*
X139731117Y-61193057D01*
X139698000Y-61159882D01*
X139698000Y-58483500D01*
X139922250Y-58483500D01*
X140081000Y-58324750D01*
X140081000Y-56959500D01*
X140335000Y-56959500D01*
X140335000Y-58324750D01*
X140493750Y-58483500D01*
X141197910Y-58483500D01*
X141431299Y-58386827D01*
X141609927Y-58208198D01*
X141706600Y-57974809D01*
X141706600Y-57118250D01*
X141547850Y-56959500D01*
X140335000Y-56959500D01*
X140081000Y-56959500D01*
X140061000Y-56959500D01*
X140061000Y-56927750D01*
X145220000Y-56927750D01*
X145220000Y-57418310D01*
X145316673Y-57651699D01*
X145495302Y-57830327D01*
X145728691Y-57927000D01*
X146319250Y-57927000D01*
X146478000Y-57768250D01*
X146478000Y-56769000D01*
X145378750Y-56769000D01*
X145220000Y-56927750D01*
X140061000Y-56927750D01*
X140061000Y-56705500D01*
X140081000Y-56705500D01*
X140081000Y-55340250D01*
X140335000Y-55340250D01*
X140335000Y-56705500D01*
X141547850Y-56705500D01*
X141706600Y-56546750D01*
X141706600Y-55865690D01*
X145220000Y-55865690D01*
X145220000Y-56356250D01*
X145378750Y-56515000D01*
X146478000Y-56515000D01*
X146478000Y-55515750D01*
X146732000Y-55515750D01*
X146732000Y-56515000D01*
X146752000Y-56515000D01*
X146752000Y-56769000D01*
X146732000Y-56769000D01*
X146732000Y-57768250D01*
X146890750Y-57927000D01*
X147481309Y-57927000D01*
X147714698Y-57830327D01*
X147893327Y-57651699D01*
X147949654Y-57515713D01*
X147951838Y-57527317D01*
X148090910Y-57743441D01*
X148303110Y-57888431D01*
X148555000Y-57939440D01*
X150055000Y-57939440D01*
X150290317Y-57895162D01*
X150506441Y-57756090D01*
X150651431Y-57543890D01*
X150680164Y-57402000D01*
X150769311Y-57402000D01*
X150783378Y-57476757D01*
X150922450Y-57692881D01*
X151134650Y-57837871D01*
X151386540Y-57888880D01*
X151603299Y-57888880D01*
X151592162Y-57915701D01*
X151591838Y-58287667D01*
X151733883Y-58631443D01*
X151996673Y-58894692D01*
X152340201Y-59037338D01*
X152712167Y-59037662D01*
X153055943Y-58895617D01*
X153319192Y-58632827D01*
X153461838Y-58289299D01*
X153461879Y-58242423D01*
X153815422Y-57888880D01*
X154683460Y-57888880D01*
X154918777Y-57844602D01*
X155134901Y-57705530D01*
X155279891Y-57493330D01*
X155330900Y-57241440D01*
X155330900Y-56042560D01*
X155286622Y-55807243D01*
X155147550Y-55591119D01*
X154935350Y-55446129D01*
X154683460Y-55395120D01*
X153484580Y-55395120D01*
X153249263Y-55439398D01*
X153033139Y-55578470D01*
X153032457Y-55579467D01*
X152837310Y-55446129D01*
X152585420Y-55395120D01*
X151386540Y-55395120D01*
X151151223Y-55439398D01*
X150935099Y-55578470D01*
X150790109Y-55790670D01*
X150771614Y-55882000D01*
X150681742Y-55882000D01*
X150658162Y-55756683D01*
X150519090Y-55540559D01*
X150306890Y-55395569D01*
X150055000Y-55344560D01*
X148555000Y-55344560D01*
X148319683Y-55388838D01*
X148103559Y-55527910D01*
X147958569Y-55740110D01*
X147951809Y-55773490D01*
X147893327Y-55632301D01*
X147714698Y-55453673D01*
X147481309Y-55357000D01*
X146890750Y-55357000D01*
X146732000Y-55515750D01*
X146478000Y-55515750D01*
X146319250Y-55357000D01*
X145728691Y-55357000D01*
X145495302Y-55453673D01*
X145316673Y-55632301D01*
X145220000Y-55865690D01*
X141706600Y-55865690D01*
X141706600Y-55690191D01*
X141609927Y-55456802D01*
X141431299Y-55278173D01*
X141197910Y-55181500D01*
X140493750Y-55181500D01*
X140335000Y-55340250D01*
X140081000Y-55340250D01*
X139922250Y-55181500D01*
X139698000Y-55181500D01*
X139640148Y-54890661D01*
X139475401Y-54644099D01*
X138014901Y-53183599D01*
X137916351Y-53117750D01*
X145220000Y-53117750D01*
X145220000Y-53608310D01*
X145316673Y-53841699D01*
X145495302Y-54020327D01*
X145728691Y-54117000D01*
X146319250Y-54117000D01*
X146478000Y-53958250D01*
X146478000Y-52959000D01*
X145378750Y-52959000D01*
X145220000Y-53117750D01*
X137916351Y-53117750D01*
X137768339Y-53018852D01*
X137477500Y-52961000D01*
X129222500Y-52961000D01*
X128931661Y-53018852D01*
X128685099Y-53183599D01*
X126780099Y-55088599D01*
X126615352Y-55335161D01*
X126557500Y-55626000D01*
X126557500Y-61173529D01*
X126510683Y-61182338D01*
X126294559Y-61321410D01*
X126149569Y-61533610D01*
X126098560Y-61785500D01*
X124963019Y-61785500D01*
X125036000Y-61609310D01*
X125036000Y-61118750D01*
X124877250Y-60960000D01*
X123778000Y-60960000D01*
X123524000Y-60960000D01*
X123504000Y-60960000D01*
X123504000Y-60706000D01*
X123524000Y-60706000D01*
X123524000Y-59706750D01*
X123778000Y-59706750D01*
X123778000Y-60706000D01*
X124877250Y-60706000D01*
X125036000Y-60547250D01*
X125036000Y-60056690D01*
X124939327Y-59823301D01*
X124760698Y-59644673D01*
X124527309Y-59548000D01*
X123936750Y-59548000D01*
X123778000Y-59706750D01*
X123524000Y-59706750D01*
X123365250Y-59548000D01*
X122774691Y-59548000D01*
X122541302Y-59644673D01*
X122362673Y-59823301D01*
X122306346Y-59959287D01*
X122304162Y-59947683D01*
X122165090Y-59731559D01*
X121952890Y-59586569D01*
X121701000Y-59535560D01*
X120201000Y-59535560D01*
X119965683Y-59579838D01*
X119749559Y-59718910D01*
X119604569Y-59931110D01*
X119575836Y-60073000D01*
X119486689Y-60073000D01*
X119472622Y-59998243D01*
X119333550Y-59782119D01*
X119121350Y-59637129D01*
X118869460Y-59586120D01*
X117670580Y-59586120D01*
X117435263Y-59630398D01*
X117219139Y-59769470D01*
X117218457Y-59770467D01*
X117023310Y-59637129D01*
X116771420Y-59586120D01*
X115572540Y-59586120D01*
X115337223Y-59630398D01*
X115137000Y-59759238D01*
X115137000Y-57839388D01*
X115320650Y-57964871D01*
X115572540Y-58015880D01*
X115621549Y-58015880D01*
X115634579Y-58035381D01*
X116285878Y-58686680D01*
X116285838Y-58732167D01*
X116427883Y-59075943D01*
X116690673Y-59339192D01*
X117034201Y-59481838D01*
X117406167Y-59482162D01*
X117749943Y-59340117D01*
X118013192Y-59077327D01*
X118155838Y-58733799D01*
X118156162Y-58361833D01*
X118014117Y-58018057D01*
X118011944Y-58015880D01*
X118869460Y-58015880D01*
X119104777Y-57971602D01*
X119320901Y-57832530D01*
X119465891Y-57620330D01*
X119484386Y-57529000D01*
X119574258Y-57529000D01*
X119597838Y-57654317D01*
X119736910Y-57870441D01*
X119949110Y-58015431D01*
X120201000Y-58066440D01*
X121701000Y-58066440D01*
X121936317Y-58022162D01*
X122152441Y-57883090D01*
X122297431Y-57670890D01*
X122304191Y-57637510D01*
X122362673Y-57778699D01*
X122541302Y-57957327D01*
X122774691Y-58054000D01*
X123365250Y-58054000D01*
X123524000Y-57895250D01*
X123524000Y-56896000D01*
X123778000Y-56896000D01*
X123778000Y-57895250D01*
X123936750Y-58054000D01*
X124527309Y-58054000D01*
X124760698Y-57957327D01*
X124939327Y-57778699D01*
X125036000Y-57545310D01*
X125036000Y-57054750D01*
X124877250Y-56896000D01*
X123778000Y-56896000D01*
X123524000Y-56896000D01*
X123504000Y-56896000D01*
X123504000Y-56642000D01*
X123524000Y-56642000D01*
X123524000Y-55642750D01*
X123778000Y-55642750D01*
X123778000Y-56642000D01*
X124877250Y-56642000D01*
X125036000Y-56483250D01*
X125036000Y-55992690D01*
X124939327Y-55759301D01*
X124760698Y-55580673D01*
X124527309Y-55484000D01*
X123936750Y-55484000D01*
X123778000Y-55642750D01*
X123524000Y-55642750D01*
X123365250Y-55484000D01*
X122774691Y-55484000D01*
X122541302Y-55580673D01*
X122362673Y-55759301D01*
X122306346Y-55895287D01*
X122304162Y-55883683D01*
X122165090Y-55667559D01*
X121952890Y-55522569D01*
X121701000Y-55471560D01*
X120201000Y-55471560D01*
X119965683Y-55515838D01*
X119749559Y-55654910D01*
X119604569Y-55867110D01*
X119575836Y-56009000D01*
X119486689Y-56009000D01*
X119472622Y-55934243D01*
X119333550Y-55718119D01*
X119121350Y-55573129D01*
X118869460Y-55522120D01*
X117670580Y-55522120D01*
X117435263Y-55566398D01*
X117219139Y-55705470D01*
X117218457Y-55706467D01*
X117023310Y-55573129D01*
X116771420Y-55522120D01*
X115572540Y-55522120D01*
X115337223Y-55566398D01*
X115137000Y-55695238D01*
X115137000Y-54029388D01*
X115320650Y-54154871D01*
X115572540Y-54205880D01*
X115678578Y-54205880D01*
X116158878Y-54686180D01*
X116158838Y-54731667D01*
X116300883Y-55075443D01*
X116563673Y-55338692D01*
X116907201Y-55481338D01*
X117279167Y-55481662D01*
X117622943Y-55339617D01*
X117886192Y-55076827D01*
X118028838Y-54733299D01*
X118029162Y-54361333D01*
X117964930Y-54205880D01*
X118869460Y-54205880D01*
X119104777Y-54161602D01*
X119320901Y-54022530D01*
X119465891Y-53810330D01*
X119484386Y-53719000D01*
X119574258Y-53719000D01*
X119597838Y-53844317D01*
X119736910Y-54060441D01*
X119949110Y-54205431D01*
X120201000Y-54256440D01*
X121701000Y-54256440D01*
X121936317Y-54212162D01*
X122152441Y-54073090D01*
X122297431Y-53860890D01*
X122304191Y-53827510D01*
X122362673Y-53968699D01*
X122541302Y-54147327D01*
X122774691Y-54244000D01*
X123365250Y-54244000D01*
X123524000Y-54085250D01*
X123524000Y-53086000D01*
X123778000Y-53086000D01*
X123778000Y-54085250D01*
X123936750Y-54244000D01*
X124527309Y-54244000D01*
X124760698Y-54147327D01*
X124939327Y-53968699D01*
X125036000Y-53735310D01*
X125036000Y-53244750D01*
X124877250Y-53086000D01*
X123778000Y-53086000D01*
X123524000Y-53086000D01*
X123504000Y-53086000D01*
X123504000Y-52832000D01*
X123524000Y-52832000D01*
X123524000Y-51832750D01*
X123778000Y-51832750D01*
X123778000Y-52832000D01*
X124877250Y-52832000D01*
X125036000Y-52673250D01*
X125036000Y-52182690D01*
X124983395Y-52055690D01*
X145220000Y-52055690D01*
X145220000Y-52546250D01*
X145378750Y-52705000D01*
X146478000Y-52705000D01*
X146478000Y-51705750D01*
X146732000Y-51705750D01*
X146732000Y-52705000D01*
X146752000Y-52705000D01*
X146752000Y-52959000D01*
X146732000Y-52959000D01*
X146732000Y-53958250D01*
X146890750Y-54117000D01*
X147481309Y-54117000D01*
X147714698Y-54020327D01*
X147893327Y-53841699D01*
X147949654Y-53705713D01*
X147951838Y-53717317D01*
X148090910Y-53933441D01*
X148303110Y-54078431D01*
X148555000Y-54129440D01*
X150055000Y-54129440D01*
X150290317Y-54085162D01*
X150506441Y-53946090D01*
X150651431Y-53733890D01*
X150680164Y-53592000D01*
X150769311Y-53592000D01*
X150783378Y-53666757D01*
X150922450Y-53882881D01*
X151134650Y-54027871D01*
X151386540Y-54078880D01*
X152190402Y-54078880D01*
X152100162Y-54296201D01*
X152099838Y-54668167D01*
X152241883Y-55011943D01*
X152504673Y-55275192D01*
X152848201Y-55417838D01*
X153220167Y-55418162D01*
X153563943Y-55276117D01*
X153827192Y-55013327D01*
X153969838Y-54669799D01*
X153969879Y-54622923D01*
X154513922Y-54078880D01*
X154683460Y-54078880D01*
X154918777Y-54034602D01*
X155134901Y-53895530D01*
X155279891Y-53683330D01*
X155330900Y-53431440D01*
X155330900Y-52232560D01*
X155286622Y-51997243D01*
X155147550Y-51781119D01*
X154935350Y-51636129D01*
X154683460Y-51585120D01*
X153484580Y-51585120D01*
X153249263Y-51629398D01*
X153033139Y-51768470D01*
X153032457Y-51769467D01*
X152837310Y-51636129D01*
X152585420Y-51585120D01*
X151386540Y-51585120D01*
X151151223Y-51629398D01*
X150935099Y-51768470D01*
X150790109Y-51980670D01*
X150771614Y-52072000D01*
X150681742Y-52072000D01*
X150658162Y-51946683D01*
X150519090Y-51730559D01*
X150306890Y-51585569D01*
X150055000Y-51534560D01*
X148555000Y-51534560D01*
X148319683Y-51578838D01*
X148103559Y-51717910D01*
X147958569Y-51930110D01*
X147951809Y-51963490D01*
X147893327Y-51822301D01*
X147714698Y-51643673D01*
X147481309Y-51547000D01*
X146890750Y-51547000D01*
X146732000Y-51705750D01*
X146478000Y-51705750D01*
X146319250Y-51547000D01*
X145728691Y-51547000D01*
X145495302Y-51643673D01*
X145316673Y-51822301D01*
X145220000Y-52055690D01*
X124983395Y-52055690D01*
X124939327Y-51949301D01*
X124760698Y-51770673D01*
X124527309Y-51674000D01*
X123936750Y-51674000D01*
X123778000Y-51832750D01*
X123524000Y-51832750D01*
X123365250Y-51674000D01*
X122774691Y-51674000D01*
X122541302Y-51770673D01*
X122362673Y-51949301D01*
X122306346Y-52085287D01*
X122304162Y-52073683D01*
X122165090Y-51857559D01*
X121952890Y-51712569D01*
X121701000Y-51661560D01*
X120201000Y-51661560D01*
X119965683Y-51705838D01*
X119749559Y-51844910D01*
X119604569Y-52057110D01*
X119575836Y-52199000D01*
X119486689Y-52199000D01*
X119472622Y-52124243D01*
X119333550Y-51908119D01*
X119121350Y-51763129D01*
X118869460Y-51712120D01*
X117670580Y-51712120D01*
X117435263Y-51756398D01*
X117219139Y-51895470D01*
X117218457Y-51896467D01*
X117023310Y-51763129D01*
X116771420Y-51712120D01*
X115572540Y-51712120D01*
X115337223Y-51756398D01*
X115137000Y-51885238D01*
X115137000Y-50494000D01*
X155373000Y-50494000D01*
X155373000Y-67763612D01*
M02*
