G04 #@! TF.FileFunction,Soldermask,Top*
%FSLAX46Y46*%
G04 Gerber Fmt 4.6, Leading zero omitted, Abs format (unit mm)*
G04 Created by KiCad (PCBNEW 4.0.1-stable) date 2016 September 18, Sunday 15:01:05*
%MOMM*%
G01*
G04 APERTURE LIST*
%ADD10C,0.100000*%
%ADD11R,1.543000X0.908000*%
%ADD12R,3.999180X2.000200*%
%ADD13R,1.598880X1.598880*%
%ADD14R,2.127200X2.432000*%
%ADD15O,2.127200X2.432000*%
%ADD16R,1.900000X1.700000*%
G04 APERTURE END LIST*
D10*
D11*
X136652000Y-70866000D03*
X136652000Y-68326000D03*
X136652000Y-67056000D03*
X136652000Y-65786000D03*
X136652000Y-64516000D03*
X136652000Y-63246000D03*
X136652000Y-61976000D03*
X143002000Y-61976000D03*
X143002000Y-63246000D03*
X143002000Y-64516000D03*
X143002000Y-65786000D03*
X143002000Y-67056000D03*
X143002000Y-68326000D03*
X143002000Y-69596000D03*
X143002000Y-70866000D03*
X136652000Y-69596000D03*
D12*
X138069320Y-77343000D03*
X132567680Y-77343000D03*
D13*
X118270020Y-80645000D03*
X116171980Y-80645000D03*
X118270020Y-76581000D03*
X116171980Y-76581000D03*
X118270020Y-72517000D03*
X116171980Y-72517000D03*
X118270020Y-68961000D03*
X116171980Y-68961000D03*
X118270020Y-64897000D03*
X116171980Y-64897000D03*
X118270020Y-60833000D03*
X116171980Y-60833000D03*
X118270020Y-56769000D03*
X116171980Y-56769000D03*
X118270020Y-52959000D03*
X116171980Y-52959000D03*
X152239980Y-80518000D03*
X154338020Y-80518000D03*
X152239980Y-76708000D03*
X154338020Y-76708000D03*
X152239980Y-72898000D03*
X154338020Y-72898000D03*
X152239980Y-68834000D03*
X154338020Y-68834000D03*
X151985980Y-64770000D03*
X154084020Y-64770000D03*
X151985980Y-60960000D03*
X154084020Y-60960000D03*
X151985980Y-56642000D03*
X154084020Y-56642000D03*
X151985980Y-52832000D03*
X154084020Y-52832000D03*
D14*
X140208000Y-56832500D03*
D15*
X137668000Y-56832500D03*
X135128000Y-56832500D03*
X132588000Y-56832500D03*
X130048000Y-56832500D03*
D16*
X123651000Y-80645000D03*
X120951000Y-80645000D03*
X123651000Y-76581000D03*
X120951000Y-76581000D03*
X123651000Y-72517000D03*
X120951000Y-72517000D03*
X123651000Y-68961000D03*
X120951000Y-68961000D03*
X123651000Y-64897000D03*
X120951000Y-64897000D03*
X123651000Y-60833000D03*
X120951000Y-60833000D03*
X123651000Y-56769000D03*
X120951000Y-56769000D03*
X123651000Y-52959000D03*
X120951000Y-52959000D03*
X146605000Y-80518000D03*
X149305000Y-80518000D03*
X146605000Y-76708000D03*
X149305000Y-76708000D03*
X146605000Y-72898000D03*
X149305000Y-72898000D03*
X146605000Y-68834000D03*
X149305000Y-68834000D03*
X146605000Y-64770000D03*
X149305000Y-64770000D03*
X146605000Y-60960000D03*
X149305000Y-60960000D03*
X146605000Y-56642000D03*
X149305000Y-56642000D03*
X146605000Y-52832000D03*
X149305000Y-52832000D03*
D11*
X127317500Y-70929500D03*
X127317500Y-68389500D03*
X127317500Y-67119500D03*
X127317500Y-65849500D03*
X127317500Y-64579500D03*
X127317500Y-63309500D03*
X127317500Y-62039500D03*
X133667500Y-62039500D03*
X133667500Y-63309500D03*
X133667500Y-64579500D03*
X133667500Y-65849500D03*
X133667500Y-67119500D03*
X133667500Y-68389500D03*
X133667500Y-69659500D03*
X133667500Y-70929500D03*
X127317500Y-69659500D03*
M02*
