G04 #@! TF.FileFunction,Copper,L2,Bot,Signal*
%FSLAX46Y46*%
G04 Gerber Fmt 4.6, Leading zero omitted, Abs format (unit mm)*
G04 Created by KiCad (PCBNEW 4.0.1-stable) date 2016 September 18, Sunday 15:01:05*
%MOMM*%
G01*
G04 APERTURE LIST*
%ADD10C,0.100000*%
%ADD11R,1.727200X2.032000*%
%ADD12O,1.727200X2.032000*%
%ADD13C,0.400000*%
%ADD14C,0.600000*%
%ADD15C,0.380000*%
%ADD16C,0.250000*%
%ADD17C,0.254000*%
G04 APERTURE END LIST*
D10*
D11*
X140208000Y-56832500D03*
D12*
X137668000Y-56832500D03*
X135128000Y-56832500D03*
X132588000Y-56832500D03*
X130048000Y-56832500D03*
D13*
X134937500Y-66103500D03*
X143002000Y-59690000D03*
X133667500Y-59753500D03*
D14*
X127444500Y-81597500D03*
X117030500Y-82804000D03*
X129857500Y-75628500D03*
X117411500Y-78486000D03*
X129857500Y-74422000D03*
X117284500Y-74358500D03*
X134737177Y-71226296D03*
X117094000Y-70739000D03*
X132270500Y-68580000D03*
X117094000Y-66802000D03*
X131572000Y-66738500D03*
X117157500Y-62611000D03*
X130556000Y-65532000D03*
X117221000Y-58547000D03*
X131508500Y-61912500D03*
X117094000Y-54546500D03*
X138112500Y-69469000D03*
X140208000Y-69659500D03*
X145224500Y-74676000D03*
X153416000Y-74676000D03*
X153416000Y-71818500D03*
X145097500Y-71691500D03*
X145097500Y-70675500D03*
X153289000Y-70675500D03*
X145034000Y-67437000D03*
X152908000Y-66992500D03*
X153035000Y-62357000D03*
X145034000Y-66484500D03*
X152527000Y-58102500D03*
X145034000Y-65532000D03*
X144843500Y-62674500D03*
X153035000Y-54483000D03*
X129095500Y-68008500D03*
X129095500Y-59817000D03*
X139319000Y-63690500D03*
X138938000Y-61722000D03*
D15*
X134937500Y-66103500D02*
X134937500Y-58991500D01*
X136715500Y-58991500D02*
X142303500Y-58991500D01*
X142303500Y-58991500D02*
X143002000Y-59690000D01*
X137668000Y-56832500D02*
X137668000Y-58102500D01*
X134429500Y-58991500D02*
X133667500Y-59753500D01*
X136779000Y-58991500D02*
X136715500Y-58991500D01*
X136715500Y-58991500D02*
X134937500Y-58991500D01*
X134937500Y-58991500D02*
X134429500Y-58991500D01*
X137668000Y-58102500D02*
X136779000Y-58991500D01*
D16*
X127381000Y-81597500D02*
X127444500Y-81597500D01*
X126174500Y-82804000D02*
X127381000Y-81597500D01*
X117030500Y-82804000D02*
X126174500Y-82804000D01*
X129857500Y-77597000D02*
X129857500Y-75628500D01*
X128968500Y-78486000D02*
X129857500Y-77597000D01*
X117411500Y-78486000D02*
X128968500Y-78486000D01*
X117348000Y-74422000D02*
X129857500Y-74422000D01*
X117284500Y-74358500D02*
X117348000Y-74422000D01*
X134312913Y-71226296D02*
X134737177Y-71226296D01*
X117581296Y-71226296D02*
X134312913Y-71226296D01*
X117094000Y-70739000D02*
X117581296Y-71226296D01*
X130492500Y-70358000D02*
X132270500Y-68580000D01*
X120650000Y-70358000D02*
X130492500Y-70358000D01*
X117094000Y-66802000D02*
X120650000Y-70358000D01*
X131572000Y-68072000D02*
X131572000Y-66738500D01*
X130048000Y-69596000D02*
X131572000Y-68072000D01*
X124142500Y-69596000D02*
X130048000Y-69596000D01*
X117157500Y-62611000D02*
X124142500Y-69596000D01*
X130556000Y-68008500D02*
X130556000Y-65532000D01*
X129603500Y-68961000D02*
X130556000Y-68008500D01*
X127635000Y-68961000D02*
X129603500Y-68961000D01*
X117221000Y-58547000D02*
X127635000Y-68961000D01*
X131508500Y-60452000D02*
X131508500Y-61912500D01*
X130175000Y-59118500D02*
X131508500Y-60452000D01*
X121666000Y-59118500D02*
X130175000Y-59118500D01*
X117094000Y-54546500D02*
X121666000Y-59118500D01*
X140017500Y-69469000D02*
X138112500Y-69469000D01*
X140208000Y-69659500D02*
X140017500Y-69469000D01*
X153416000Y-74676000D02*
X145224500Y-74676000D01*
X153416000Y-71818500D02*
X153289000Y-71691500D01*
X153289000Y-71691500D02*
X145097500Y-71691500D01*
X153289000Y-70675500D02*
X145097500Y-70675500D01*
X152463500Y-67437000D02*
X145034000Y-67437000D01*
X152908000Y-66992500D02*
X152463500Y-67437000D01*
X153035000Y-62357000D02*
X148907500Y-66484500D01*
X148907500Y-66484500D02*
X145034000Y-66484500D01*
X152527000Y-58102500D02*
X145097500Y-65532000D01*
X145097500Y-65532000D02*
X145034000Y-65532000D01*
X153035000Y-54483000D02*
X144843500Y-62674500D01*
X129095500Y-59817000D02*
X129095500Y-68008500D01*
X138938000Y-62484000D02*
X139319000Y-62865000D01*
X139319000Y-62865000D02*
X139319000Y-63690500D01*
X138938000Y-61722000D02*
X138938000Y-62484000D01*
D17*
G36*
X155373000Y-83364000D02*
X126678079Y-83364000D01*
X126711901Y-83341401D01*
X127520735Y-82532567D01*
X127629667Y-82532662D01*
X127973443Y-82390617D01*
X128236692Y-82127827D01*
X128379338Y-81784299D01*
X128379662Y-81412333D01*
X128237617Y-81068557D01*
X127974827Y-80805308D01*
X127631299Y-80662662D01*
X127259333Y-80662338D01*
X126915557Y-80804383D01*
X126652308Y-81067173D01*
X126521496Y-81382202D01*
X125859698Y-82044000D01*
X117592963Y-82044000D01*
X117560827Y-82011808D01*
X117217299Y-81869162D01*
X116845333Y-81868838D01*
X116501557Y-82010883D01*
X116238308Y-82273673D01*
X116095662Y-82617201D01*
X116095338Y-82989167D01*
X116237383Y-83332943D01*
X116268386Y-83364000D01*
X115137000Y-83364000D01*
X115137000Y-74543667D01*
X116349338Y-74543667D01*
X116491383Y-74887443D01*
X116754173Y-75150692D01*
X117097701Y-75293338D01*
X117469667Y-75293662D01*
X117739910Y-75182000D01*
X129030500Y-75182000D01*
X128922662Y-75441701D01*
X128922338Y-75813667D01*
X129064383Y-76157443D01*
X129097500Y-76190618D01*
X129097500Y-77282198D01*
X128653698Y-77726000D01*
X117973963Y-77726000D01*
X117941827Y-77693808D01*
X117598299Y-77551162D01*
X117226333Y-77550838D01*
X116882557Y-77692883D01*
X116619308Y-77955673D01*
X116476662Y-78299201D01*
X116476338Y-78671167D01*
X116618383Y-79014943D01*
X116881173Y-79278192D01*
X117224701Y-79420838D01*
X117596667Y-79421162D01*
X117940443Y-79279117D01*
X117973618Y-79246000D01*
X128968500Y-79246000D01*
X129259339Y-79188148D01*
X129505901Y-79023401D01*
X130394901Y-78134401D01*
X130559648Y-77887839D01*
X130617500Y-77597000D01*
X130617500Y-76190963D01*
X130649692Y-76158827D01*
X130792338Y-75815299D01*
X130792662Y-75443333D01*
X130650617Y-75099557D01*
X130576540Y-75025351D01*
X130649692Y-74952327D01*
X130687545Y-74861167D01*
X144289338Y-74861167D01*
X144431383Y-75204943D01*
X144694173Y-75468192D01*
X145037701Y-75610838D01*
X145409667Y-75611162D01*
X145753443Y-75469117D01*
X145786618Y-75436000D01*
X152853537Y-75436000D01*
X152885673Y-75468192D01*
X153229201Y-75610838D01*
X153601167Y-75611162D01*
X153944943Y-75469117D01*
X154208192Y-75206327D01*
X154350838Y-74862799D01*
X154351162Y-74490833D01*
X154209117Y-74147057D01*
X153946327Y-73883808D01*
X153602799Y-73741162D01*
X153230833Y-73740838D01*
X152887057Y-73882883D01*
X152853882Y-73916000D01*
X145786963Y-73916000D01*
X145754827Y-73883808D01*
X145411299Y-73741162D01*
X145039333Y-73740838D01*
X144695557Y-73882883D01*
X144432308Y-74145673D01*
X144289662Y-74489201D01*
X144289338Y-74861167D01*
X130687545Y-74861167D01*
X130792338Y-74608799D01*
X130792662Y-74236833D01*
X130650617Y-73893057D01*
X130387827Y-73629808D01*
X130044299Y-73487162D01*
X129672333Y-73486838D01*
X129328557Y-73628883D01*
X129295382Y-73662000D01*
X117910352Y-73662000D01*
X117814827Y-73566308D01*
X117471299Y-73423662D01*
X117099333Y-73423338D01*
X116755557Y-73565383D01*
X116492308Y-73828173D01*
X116349662Y-74171701D01*
X116349338Y-74543667D01*
X115137000Y-74543667D01*
X115137000Y-54731667D01*
X116158838Y-54731667D01*
X116300883Y-55075443D01*
X116563673Y-55338692D01*
X116907201Y-55481338D01*
X116954077Y-55481379D01*
X121128599Y-59655901D01*
X121375160Y-59820648D01*
X121423414Y-59830246D01*
X121666000Y-59878500D01*
X128160446Y-59878500D01*
X128160338Y-60002167D01*
X128302383Y-60345943D01*
X128335500Y-60379118D01*
X128335500Y-67446037D01*
X128303308Y-67478173D01*
X128160662Y-67821701D01*
X128160338Y-68193667D01*
X128163368Y-68201000D01*
X127949802Y-68201000D01*
X118156122Y-58407320D01*
X118156162Y-58361833D01*
X118014117Y-58018057D01*
X117751327Y-57754808D01*
X117407799Y-57612162D01*
X117035833Y-57611838D01*
X116692057Y-57753883D01*
X116428808Y-58016673D01*
X116286162Y-58360201D01*
X116285838Y-58732167D01*
X116427883Y-59075943D01*
X116690673Y-59339192D01*
X117034201Y-59481838D01*
X117081077Y-59481879D01*
X126435198Y-68836000D01*
X124457302Y-68836000D01*
X118092622Y-62471320D01*
X118092662Y-62425833D01*
X117950617Y-62082057D01*
X117687827Y-61818808D01*
X117344299Y-61676162D01*
X116972333Y-61675838D01*
X116628557Y-61817883D01*
X116365308Y-62080673D01*
X116222662Y-62424201D01*
X116222338Y-62796167D01*
X116364383Y-63139943D01*
X116627173Y-63403192D01*
X116970701Y-63545838D01*
X117017577Y-63545879D01*
X123069698Y-69598000D01*
X120964802Y-69598000D01*
X118029122Y-66662320D01*
X118029162Y-66616833D01*
X117887117Y-66273057D01*
X117624327Y-66009808D01*
X117280799Y-65867162D01*
X116908833Y-65866838D01*
X116565057Y-66008883D01*
X116301808Y-66271673D01*
X116159162Y-66615201D01*
X116158838Y-66987167D01*
X116300883Y-67330943D01*
X116563673Y-67594192D01*
X116907201Y-67736838D01*
X116954077Y-67736879D01*
X119683494Y-70466296D01*
X117992993Y-70466296D01*
X117887117Y-70210057D01*
X117624327Y-69946808D01*
X117280799Y-69804162D01*
X116908833Y-69803838D01*
X116565057Y-69945883D01*
X116301808Y-70208673D01*
X116159162Y-70552201D01*
X116158838Y-70924167D01*
X116300883Y-71267943D01*
X116563673Y-71531192D01*
X116907201Y-71673838D01*
X116954077Y-71673879D01*
X117043895Y-71763697D01*
X117290457Y-71928444D01*
X117581296Y-71986296D01*
X134174714Y-71986296D01*
X134206850Y-72018488D01*
X134550378Y-72161134D01*
X134922344Y-72161458D01*
X135266120Y-72019413D01*
X135529369Y-71756623D01*
X135672015Y-71413095D01*
X135672339Y-71041129D01*
X135597774Y-70860667D01*
X144162338Y-70860667D01*
X144295883Y-71183871D01*
X144162662Y-71504701D01*
X144162338Y-71876667D01*
X144304383Y-72220443D01*
X144567173Y-72483692D01*
X144910701Y-72626338D01*
X145282667Y-72626662D01*
X145626443Y-72484617D01*
X145659618Y-72451500D01*
X152726759Y-72451500D01*
X152885673Y-72610692D01*
X153229201Y-72753338D01*
X153601167Y-72753662D01*
X153944943Y-72611617D01*
X154208192Y-72348827D01*
X154350838Y-72005299D01*
X154351162Y-71633333D01*
X154209117Y-71289557D01*
X154094218Y-71174457D01*
X154223838Y-70862299D01*
X154224162Y-70490333D01*
X154082117Y-70146557D01*
X153819327Y-69883308D01*
X153475799Y-69740662D01*
X153103833Y-69740338D01*
X152760057Y-69882383D01*
X152726882Y-69915500D01*
X145659963Y-69915500D01*
X145627827Y-69883308D01*
X145284299Y-69740662D01*
X144912333Y-69740338D01*
X144568557Y-69882383D01*
X144305308Y-70145173D01*
X144162662Y-70488701D01*
X144162338Y-70860667D01*
X135597774Y-70860667D01*
X135530294Y-70697353D01*
X135267504Y-70434104D01*
X134923976Y-70291458D01*
X134552010Y-70291134D01*
X134208234Y-70433179D01*
X134175059Y-70466296D01*
X131459006Y-70466296D01*
X132271135Y-69654167D01*
X137177338Y-69654167D01*
X137319383Y-69997943D01*
X137582173Y-70261192D01*
X137925701Y-70403838D01*
X138297667Y-70404162D01*
X138641443Y-70262117D01*
X138674618Y-70229000D01*
X139455369Y-70229000D01*
X139677673Y-70451692D01*
X140021201Y-70594338D01*
X140393167Y-70594662D01*
X140736943Y-70452617D01*
X141000192Y-70189827D01*
X141142838Y-69846299D01*
X141143162Y-69474333D01*
X141001117Y-69130557D01*
X140738327Y-68867308D01*
X140394799Y-68724662D01*
X140094924Y-68724401D01*
X140017500Y-68709000D01*
X138674963Y-68709000D01*
X138642827Y-68676808D01*
X138299299Y-68534162D01*
X137927333Y-68533838D01*
X137583557Y-68675883D01*
X137320308Y-68938673D01*
X137177662Y-69282201D01*
X137177338Y-69654167D01*
X132271135Y-69654167D01*
X132410180Y-69515122D01*
X132455667Y-69515162D01*
X132799443Y-69373117D01*
X133062692Y-69110327D01*
X133205338Y-68766799D01*
X133205662Y-68394833D01*
X133063617Y-68051057D01*
X132800827Y-67787808D01*
X132457299Y-67645162D01*
X132332000Y-67645053D01*
X132332000Y-67300963D01*
X132364192Y-67268827D01*
X132506838Y-66925299D01*
X132507162Y-66553333D01*
X132365117Y-66209557D01*
X132102327Y-65946308D01*
X131758799Y-65803662D01*
X131455709Y-65803398D01*
X131490838Y-65718799D01*
X131490839Y-65717167D01*
X144098838Y-65717167D01*
X144219232Y-66008543D01*
X144099162Y-66297701D01*
X144098838Y-66669667D01*
X144219232Y-66961043D01*
X144099162Y-67250201D01*
X144098838Y-67622167D01*
X144240883Y-67965943D01*
X144503673Y-68229192D01*
X144847201Y-68371838D01*
X145219167Y-68372162D01*
X145562943Y-68230117D01*
X145596118Y-68197000D01*
X152463500Y-68197000D01*
X152754339Y-68139148D01*
X153000901Y-67974401D01*
X153047680Y-67927622D01*
X153093167Y-67927662D01*
X153436943Y-67785617D01*
X153700192Y-67522827D01*
X153842838Y-67179299D01*
X153843162Y-66807333D01*
X153701117Y-66463557D01*
X153438327Y-66200308D01*
X153094799Y-66057662D01*
X152722833Y-66057338D01*
X152379057Y-66199383D01*
X152115808Y-66462173D01*
X152026604Y-66677000D01*
X149789802Y-66677000D01*
X153174680Y-63292122D01*
X153220167Y-63292162D01*
X153563943Y-63150117D01*
X153827192Y-62887327D01*
X153969838Y-62543799D01*
X153970162Y-62171833D01*
X153828117Y-61828057D01*
X153565327Y-61564808D01*
X153221799Y-61422162D01*
X152849833Y-61421838D01*
X152506057Y-61563883D01*
X152242808Y-61826673D01*
X152100162Y-62170201D01*
X152100121Y-62217077D01*
X148592698Y-65724500D01*
X145979802Y-65724500D01*
X152666680Y-59037622D01*
X152712167Y-59037662D01*
X153055943Y-58895617D01*
X153319192Y-58632827D01*
X153461838Y-58289299D01*
X153462162Y-57917333D01*
X153320117Y-57573557D01*
X153057327Y-57310308D01*
X152713799Y-57167662D01*
X152341833Y-57167338D01*
X151998057Y-57309383D01*
X151734808Y-57572173D01*
X151592162Y-57915701D01*
X151592121Y-57962577D01*
X144957765Y-64596933D01*
X144848833Y-64596838D01*
X144505057Y-64738883D01*
X144241808Y-65001673D01*
X144099162Y-65345201D01*
X144098838Y-65717167D01*
X131490839Y-65717167D01*
X131491162Y-65346833D01*
X131349117Y-65003057D01*
X131086327Y-64739808D01*
X130742799Y-64597162D01*
X130370833Y-64596838D01*
X130027057Y-64738883D01*
X129855500Y-64910141D01*
X129855500Y-60379463D01*
X129887692Y-60347327D01*
X130017181Y-60035483D01*
X130748500Y-60766802D01*
X130748500Y-61350037D01*
X130716308Y-61382173D01*
X130573662Y-61725701D01*
X130573338Y-62097667D01*
X130715383Y-62441443D01*
X130978173Y-62704692D01*
X131321701Y-62847338D01*
X131693667Y-62847662D01*
X132037443Y-62705617D01*
X132300692Y-62442827D01*
X132443338Y-62099299D01*
X132443505Y-61907167D01*
X138002838Y-61907167D01*
X138144883Y-62250943D01*
X138178000Y-62284118D01*
X138178000Y-62484000D01*
X138235852Y-62774839D01*
X138400599Y-63021401D01*
X138533095Y-63153897D01*
X138526808Y-63160173D01*
X138384162Y-63503701D01*
X138383838Y-63875667D01*
X138525883Y-64219443D01*
X138788673Y-64482692D01*
X139132201Y-64625338D01*
X139504167Y-64625662D01*
X139847943Y-64483617D01*
X140111192Y-64220827D01*
X140253838Y-63877299D01*
X140254162Y-63505333D01*
X140112117Y-63161557D01*
X140079000Y-63128382D01*
X140079000Y-62865000D01*
X140077940Y-62859667D01*
X143908338Y-62859667D01*
X144050383Y-63203443D01*
X144313173Y-63466692D01*
X144656701Y-63609338D01*
X145028667Y-63609662D01*
X145372443Y-63467617D01*
X145635692Y-63204827D01*
X145778338Y-62861299D01*
X145778379Y-62814423D01*
X153174680Y-55418122D01*
X153220167Y-55418162D01*
X153563943Y-55276117D01*
X153827192Y-55013327D01*
X153969838Y-54669799D01*
X153970162Y-54297833D01*
X153828117Y-53954057D01*
X153565327Y-53690808D01*
X153221799Y-53548162D01*
X152849833Y-53547838D01*
X152506057Y-53689883D01*
X152242808Y-53952673D01*
X152100162Y-54296201D01*
X152100121Y-54343077D01*
X144703820Y-61739378D01*
X144658333Y-61739338D01*
X144314557Y-61881383D01*
X144051308Y-62144173D01*
X143908662Y-62487701D01*
X143908338Y-62859667D01*
X140077940Y-62859667D01*
X140057187Y-62755338D01*
X140021148Y-62574160D01*
X139856401Y-62327599D01*
X139745137Y-62216335D01*
X139872838Y-61908799D01*
X139873162Y-61536833D01*
X139731117Y-61193057D01*
X139468327Y-60929808D01*
X139124799Y-60787162D01*
X138752833Y-60786838D01*
X138409057Y-60928883D01*
X138145808Y-61191673D01*
X138003162Y-61535201D01*
X138002838Y-61907167D01*
X132443505Y-61907167D01*
X132443662Y-61727333D01*
X132301617Y-61383557D01*
X132268500Y-61350382D01*
X132268500Y-60452000D01*
X132210648Y-60161161D01*
X132045901Y-59914599D01*
X130712401Y-58581099D01*
X130484729Y-58428974D01*
X130621489Y-58401771D01*
X131107670Y-58076915D01*
X131318000Y-57762134D01*
X131528330Y-58076915D01*
X132014511Y-58401771D01*
X132588000Y-58515845D01*
X133161489Y-58401771D01*
X133647670Y-58076915D01*
X133858000Y-57762134D01*
X134068330Y-58076915D01*
X134554511Y-58401771D01*
X135128000Y-58515845D01*
X135701489Y-58401771D01*
X136187670Y-58076915D01*
X136394461Y-57767431D01*
X136765964Y-58183232D01*
X137293209Y-58437209D01*
X137308974Y-58439858D01*
X137541000Y-58318717D01*
X137541000Y-56959500D01*
X137521000Y-56959500D01*
X137521000Y-56705500D01*
X137541000Y-56705500D01*
X137541000Y-55346283D01*
X137795000Y-55346283D01*
X137795000Y-56705500D01*
X137815000Y-56705500D01*
X137815000Y-56959500D01*
X137795000Y-56959500D01*
X137795000Y-58318717D01*
X138027026Y-58439858D01*
X138042791Y-58437209D01*
X138570036Y-58183232D01*
X138726907Y-58007655D01*
X138741238Y-58083817D01*
X138880310Y-58299941D01*
X139092510Y-58444931D01*
X139344400Y-58495940D01*
X141071600Y-58495940D01*
X141306917Y-58451662D01*
X141523041Y-58312590D01*
X141668031Y-58100390D01*
X141719040Y-57848500D01*
X141719040Y-55816500D01*
X141674762Y-55581183D01*
X141535690Y-55365059D01*
X141323490Y-55220069D01*
X141071600Y-55169060D01*
X139344400Y-55169060D01*
X139109083Y-55213338D01*
X138892959Y-55352410D01*
X138747969Y-55564610D01*
X138728768Y-55659427D01*
X138570036Y-55481768D01*
X138042791Y-55227791D01*
X138027026Y-55225142D01*
X137795000Y-55346283D01*
X137541000Y-55346283D01*
X137308974Y-55225142D01*
X137293209Y-55227791D01*
X136765964Y-55481768D01*
X136394461Y-55897569D01*
X136187670Y-55588085D01*
X135701489Y-55263229D01*
X135128000Y-55149155D01*
X134554511Y-55263229D01*
X134068330Y-55588085D01*
X133858000Y-55902866D01*
X133647670Y-55588085D01*
X133161489Y-55263229D01*
X132588000Y-55149155D01*
X132014511Y-55263229D01*
X131528330Y-55588085D01*
X131318000Y-55902866D01*
X131107670Y-55588085D01*
X130621489Y-55263229D01*
X130048000Y-55149155D01*
X129474511Y-55263229D01*
X128988330Y-55588085D01*
X128663474Y-56074266D01*
X128549400Y-56647755D01*
X128549400Y-57017245D01*
X128663474Y-57590734D01*
X128988330Y-58076915D01*
X129409751Y-58358500D01*
X121980802Y-58358500D01*
X118029122Y-54406820D01*
X118029162Y-54361333D01*
X117887117Y-54017557D01*
X117624327Y-53754308D01*
X117280799Y-53611662D01*
X116908833Y-53611338D01*
X116565057Y-53753383D01*
X116301808Y-54016173D01*
X116159162Y-54359701D01*
X116158838Y-54731667D01*
X115137000Y-54731667D01*
X115137000Y-50494000D01*
X155373000Y-50494000D01*
X155373000Y-83364000D01*
X155373000Y-83364000D01*
G37*
X155373000Y-83364000D02*
X126678079Y-83364000D01*
X126711901Y-83341401D01*
X127520735Y-82532567D01*
X127629667Y-82532662D01*
X127973443Y-82390617D01*
X128236692Y-82127827D01*
X128379338Y-81784299D01*
X128379662Y-81412333D01*
X128237617Y-81068557D01*
X127974827Y-80805308D01*
X127631299Y-80662662D01*
X127259333Y-80662338D01*
X126915557Y-80804383D01*
X126652308Y-81067173D01*
X126521496Y-81382202D01*
X125859698Y-82044000D01*
X117592963Y-82044000D01*
X117560827Y-82011808D01*
X117217299Y-81869162D01*
X116845333Y-81868838D01*
X116501557Y-82010883D01*
X116238308Y-82273673D01*
X116095662Y-82617201D01*
X116095338Y-82989167D01*
X116237383Y-83332943D01*
X116268386Y-83364000D01*
X115137000Y-83364000D01*
X115137000Y-74543667D01*
X116349338Y-74543667D01*
X116491383Y-74887443D01*
X116754173Y-75150692D01*
X117097701Y-75293338D01*
X117469667Y-75293662D01*
X117739910Y-75182000D01*
X129030500Y-75182000D01*
X128922662Y-75441701D01*
X128922338Y-75813667D01*
X129064383Y-76157443D01*
X129097500Y-76190618D01*
X129097500Y-77282198D01*
X128653698Y-77726000D01*
X117973963Y-77726000D01*
X117941827Y-77693808D01*
X117598299Y-77551162D01*
X117226333Y-77550838D01*
X116882557Y-77692883D01*
X116619308Y-77955673D01*
X116476662Y-78299201D01*
X116476338Y-78671167D01*
X116618383Y-79014943D01*
X116881173Y-79278192D01*
X117224701Y-79420838D01*
X117596667Y-79421162D01*
X117940443Y-79279117D01*
X117973618Y-79246000D01*
X128968500Y-79246000D01*
X129259339Y-79188148D01*
X129505901Y-79023401D01*
X130394901Y-78134401D01*
X130559648Y-77887839D01*
X130617500Y-77597000D01*
X130617500Y-76190963D01*
X130649692Y-76158827D01*
X130792338Y-75815299D01*
X130792662Y-75443333D01*
X130650617Y-75099557D01*
X130576540Y-75025351D01*
X130649692Y-74952327D01*
X130687545Y-74861167D01*
X144289338Y-74861167D01*
X144431383Y-75204943D01*
X144694173Y-75468192D01*
X145037701Y-75610838D01*
X145409667Y-75611162D01*
X145753443Y-75469117D01*
X145786618Y-75436000D01*
X152853537Y-75436000D01*
X152885673Y-75468192D01*
X153229201Y-75610838D01*
X153601167Y-75611162D01*
X153944943Y-75469117D01*
X154208192Y-75206327D01*
X154350838Y-74862799D01*
X154351162Y-74490833D01*
X154209117Y-74147057D01*
X153946327Y-73883808D01*
X153602799Y-73741162D01*
X153230833Y-73740838D01*
X152887057Y-73882883D01*
X152853882Y-73916000D01*
X145786963Y-73916000D01*
X145754827Y-73883808D01*
X145411299Y-73741162D01*
X145039333Y-73740838D01*
X144695557Y-73882883D01*
X144432308Y-74145673D01*
X144289662Y-74489201D01*
X144289338Y-74861167D01*
X130687545Y-74861167D01*
X130792338Y-74608799D01*
X130792662Y-74236833D01*
X130650617Y-73893057D01*
X130387827Y-73629808D01*
X130044299Y-73487162D01*
X129672333Y-73486838D01*
X129328557Y-73628883D01*
X129295382Y-73662000D01*
X117910352Y-73662000D01*
X117814827Y-73566308D01*
X117471299Y-73423662D01*
X117099333Y-73423338D01*
X116755557Y-73565383D01*
X116492308Y-73828173D01*
X116349662Y-74171701D01*
X116349338Y-74543667D01*
X115137000Y-74543667D01*
X115137000Y-54731667D01*
X116158838Y-54731667D01*
X116300883Y-55075443D01*
X116563673Y-55338692D01*
X116907201Y-55481338D01*
X116954077Y-55481379D01*
X121128599Y-59655901D01*
X121375160Y-59820648D01*
X121423414Y-59830246D01*
X121666000Y-59878500D01*
X128160446Y-59878500D01*
X128160338Y-60002167D01*
X128302383Y-60345943D01*
X128335500Y-60379118D01*
X128335500Y-67446037D01*
X128303308Y-67478173D01*
X128160662Y-67821701D01*
X128160338Y-68193667D01*
X128163368Y-68201000D01*
X127949802Y-68201000D01*
X118156122Y-58407320D01*
X118156162Y-58361833D01*
X118014117Y-58018057D01*
X117751327Y-57754808D01*
X117407799Y-57612162D01*
X117035833Y-57611838D01*
X116692057Y-57753883D01*
X116428808Y-58016673D01*
X116286162Y-58360201D01*
X116285838Y-58732167D01*
X116427883Y-59075943D01*
X116690673Y-59339192D01*
X117034201Y-59481838D01*
X117081077Y-59481879D01*
X126435198Y-68836000D01*
X124457302Y-68836000D01*
X118092622Y-62471320D01*
X118092662Y-62425833D01*
X117950617Y-62082057D01*
X117687827Y-61818808D01*
X117344299Y-61676162D01*
X116972333Y-61675838D01*
X116628557Y-61817883D01*
X116365308Y-62080673D01*
X116222662Y-62424201D01*
X116222338Y-62796167D01*
X116364383Y-63139943D01*
X116627173Y-63403192D01*
X116970701Y-63545838D01*
X117017577Y-63545879D01*
X123069698Y-69598000D01*
X120964802Y-69598000D01*
X118029122Y-66662320D01*
X118029162Y-66616833D01*
X117887117Y-66273057D01*
X117624327Y-66009808D01*
X117280799Y-65867162D01*
X116908833Y-65866838D01*
X116565057Y-66008883D01*
X116301808Y-66271673D01*
X116159162Y-66615201D01*
X116158838Y-66987167D01*
X116300883Y-67330943D01*
X116563673Y-67594192D01*
X116907201Y-67736838D01*
X116954077Y-67736879D01*
X119683494Y-70466296D01*
X117992993Y-70466296D01*
X117887117Y-70210057D01*
X117624327Y-69946808D01*
X117280799Y-69804162D01*
X116908833Y-69803838D01*
X116565057Y-69945883D01*
X116301808Y-70208673D01*
X116159162Y-70552201D01*
X116158838Y-70924167D01*
X116300883Y-71267943D01*
X116563673Y-71531192D01*
X116907201Y-71673838D01*
X116954077Y-71673879D01*
X117043895Y-71763697D01*
X117290457Y-71928444D01*
X117581296Y-71986296D01*
X134174714Y-71986296D01*
X134206850Y-72018488D01*
X134550378Y-72161134D01*
X134922344Y-72161458D01*
X135266120Y-72019413D01*
X135529369Y-71756623D01*
X135672015Y-71413095D01*
X135672339Y-71041129D01*
X135597774Y-70860667D01*
X144162338Y-70860667D01*
X144295883Y-71183871D01*
X144162662Y-71504701D01*
X144162338Y-71876667D01*
X144304383Y-72220443D01*
X144567173Y-72483692D01*
X144910701Y-72626338D01*
X145282667Y-72626662D01*
X145626443Y-72484617D01*
X145659618Y-72451500D01*
X152726759Y-72451500D01*
X152885673Y-72610692D01*
X153229201Y-72753338D01*
X153601167Y-72753662D01*
X153944943Y-72611617D01*
X154208192Y-72348827D01*
X154350838Y-72005299D01*
X154351162Y-71633333D01*
X154209117Y-71289557D01*
X154094218Y-71174457D01*
X154223838Y-70862299D01*
X154224162Y-70490333D01*
X154082117Y-70146557D01*
X153819327Y-69883308D01*
X153475799Y-69740662D01*
X153103833Y-69740338D01*
X152760057Y-69882383D01*
X152726882Y-69915500D01*
X145659963Y-69915500D01*
X145627827Y-69883308D01*
X145284299Y-69740662D01*
X144912333Y-69740338D01*
X144568557Y-69882383D01*
X144305308Y-70145173D01*
X144162662Y-70488701D01*
X144162338Y-70860667D01*
X135597774Y-70860667D01*
X135530294Y-70697353D01*
X135267504Y-70434104D01*
X134923976Y-70291458D01*
X134552010Y-70291134D01*
X134208234Y-70433179D01*
X134175059Y-70466296D01*
X131459006Y-70466296D01*
X132271135Y-69654167D01*
X137177338Y-69654167D01*
X137319383Y-69997943D01*
X137582173Y-70261192D01*
X137925701Y-70403838D01*
X138297667Y-70404162D01*
X138641443Y-70262117D01*
X138674618Y-70229000D01*
X139455369Y-70229000D01*
X139677673Y-70451692D01*
X140021201Y-70594338D01*
X140393167Y-70594662D01*
X140736943Y-70452617D01*
X141000192Y-70189827D01*
X141142838Y-69846299D01*
X141143162Y-69474333D01*
X141001117Y-69130557D01*
X140738327Y-68867308D01*
X140394799Y-68724662D01*
X140094924Y-68724401D01*
X140017500Y-68709000D01*
X138674963Y-68709000D01*
X138642827Y-68676808D01*
X138299299Y-68534162D01*
X137927333Y-68533838D01*
X137583557Y-68675883D01*
X137320308Y-68938673D01*
X137177662Y-69282201D01*
X137177338Y-69654167D01*
X132271135Y-69654167D01*
X132410180Y-69515122D01*
X132455667Y-69515162D01*
X132799443Y-69373117D01*
X133062692Y-69110327D01*
X133205338Y-68766799D01*
X133205662Y-68394833D01*
X133063617Y-68051057D01*
X132800827Y-67787808D01*
X132457299Y-67645162D01*
X132332000Y-67645053D01*
X132332000Y-67300963D01*
X132364192Y-67268827D01*
X132506838Y-66925299D01*
X132507162Y-66553333D01*
X132365117Y-66209557D01*
X132102327Y-65946308D01*
X131758799Y-65803662D01*
X131455709Y-65803398D01*
X131490838Y-65718799D01*
X131490839Y-65717167D01*
X144098838Y-65717167D01*
X144219232Y-66008543D01*
X144099162Y-66297701D01*
X144098838Y-66669667D01*
X144219232Y-66961043D01*
X144099162Y-67250201D01*
X144098838Y-67622167D01*
X144240883Y-67965943D01*
X144503673Y-68229192D01*
X144847201Y-68371838D01*
X145219167Y-68372162D01*
X145562943Y-68230117D01*
X145596118Y-68197000D01*
X152463500Y-68197000D01*
X152754339Y-68139148D01*
X153000901Y-67974401D01*
X153047680Y-67927622D01*
X153093167Y-67927662D01*
X153436943Y-67785617D01*
X153700192Y-67522827D01*
X153842838Y-67179299D01*
X153843162Y-66807333D01*
X153701117Y-66463557D01*
X153438327Y-66200308D01*
X153094799Y-66057662D01*
X152722833Y-66057338D01*
X152379057Y-66199383D01*
X152115808Y-66462173D01*
X152026604Y-66677000D01*
X149789802Y-66677000D01*
X153174680Y-63292122D01*
X153220167Y-63292162D01*
X153563943Y-63150117D01*
X153827192Y-62887327D01*
X153969838Y-62543799D01*
X153970162Y-62171833D01*
X153828117Y-61828057D01*
X153565327Y-61564808D01*
X153221799Y-61422162D01*
X152849833Y-61421838D01*
X152506057Y-61563883D01*
X152242808Y-61826673D01*
X152100162Y-62170201D01*
X152100121Y-62217077D01*
X148592698Y-65724500D01*
X145979802Y-65724500D01*
X152666680Y-59037622D01*
X152712167Y-59037662D01*
X153055943Y-58895617D01*
X153319192Y-58632827D01*
X153461838Y-58289299D01*
X153462162Y-57917333D01*
X153320117Y-57573557D01*
X153057327Y-57310308D01*
X152713799Y-57167662D01*
X152341833Y-57167338D01*
X151998057Y-57309383D01*
X151734808Y-57572173D01*
X151592162Y-57915701D01*
X151592121Y-57962577D01*
X144957765Y-64596933D01*
X144848833Y-64596838D01*
X144505057Y-64738883D01*
X144241808Y-65001673D01*
X144099162Y-65345201D01*
X144098838Y-65717167D01*
X131490839Y-65717167D01*
X131491162Y-65346833D01*
X131349117Y-65003057D01*
X131086327Y-64739808D01*
X130742799Y-64597162D01*
X130370833Y-64596838D01*
X130027057Y-64738883D01*
X129855500Y-64910141D01*
X129855500Y-60379463D01*
X129887692Y-60347327D01*
X130017181Y-60035483D01*
X130748500Y-60766802D01*
X130748500Y-61350037D01*
X130716308Y-61382173D01*
X130573662Y-61725701D01*
X130573338Y-62097667D01*
X130715383Y-62441443D01*
X130978173Y-62704692D01*
X131321701Y-62847338D01*
X131693667Y-62847662D01*
X132037443Y-62705617D01*
X132300692Y-62442827D01*
X132443338Y-62099299D01*
X132443505Y-61907167D01*
X138002838Y-61907167D01*
X138144883Y-62250943D01*
X138178000Y-62284118D01*
X138178000Y-62484000D01*
X138235852Y-62774839D01*
X138400599Y-63021401D01*
X138533095Y-63153897D01*
X138526808Y-63160173D01*
X138384162Y-63503701D01*
X138383838Y-63875667D01*
X138525883Y-64219443D01*
X138788673Y-64482692D01*
X139132201Y-64625338D01*
X139504167Y-64625662D01*
X139847943Y-64483617D01*
X140111192Y-64220827D01*
X140253838Y-63877299D01*
X140254162Y-63505333D01*
X140112117Y-63161557D01*
X140079000Y-63128382D01*
X140079000Y-62865000D01*
X140077940Y-62859667D01*
X143908338Y-62859667D01*
X144050383Y-63203443D01*
X144313173Y-63466692D01*
X144656701Y-63609338D01*
X145028667Y-63609662D01*
X145372443Y-63467617D01*
X145635692Y-63204827D01*
X145778338Y-62861299D01*
X145778379Y-62814423D01*
X153174680Y-55418122D01*
X153220167Y-55418162D01*
X153563943Y-55276117D01*
X153827192Y-55013327D01*
X153969838Y-54669799D01*
X153970162Y-54297833D01*
X153828117Y-53954057D01*
X153565327Y-53690808D01*
X153221799Y-53548162D01*
X152849833Y-53547838D01*
X152506057Y-53689883D01*
X152242808Y-53952673D01*
X152100162Y-54296201D01*
X152100121Y-54343077D01*
X144703820Y-61739378D01*
X144658333Y-61739338D01*
X144314557Y-61881383D01*
X144051308Y-62144173D01*
X143908662Y-62487701D01*
X143908338Y-62859667D01*
X140077940Y-62859667D01*
X140057187Y-62755338D01*
X140021148Y-62574160D01*
X139856401Y-62327599D01*
X139745137Y-62216335D01*
X139872838Y-61908799D01*
X139873162Y-61536833D01*
X139731117Y-61193057D01*
X139468327Y-60929808D01*
X139124799Y-60787162D01*
X138752833Y-60786838D01*
X138409057Y-60928883D01*
X138145808Y-61191673D01*
X138003162Y-61535201D01*
X138002838Y-61907167D01*
X132443505Y-61907167D01*
X132443662Y-61727333D01*
X132301617Y-61383557D01*
X132268500Y-61350382D01*
X132268500Y-60452000D01*
X132210648Y-60161161D01*
X132045901Y-59914599D01*
X130712401Y-58581099D01*
X130484729Y-58428974D01*
X130621489Y-58401771D01*
X131107670Y-58076915D01*
X131318000Y-57762134D01*
X131528330Y-58076915D01*
X132014511Y-58401771D01*
X132588000Y-58515845D01*
X133161489Y-58401771D01*
X133647670Y-58076915D01*
X133858000Y-57762134D01*
X134068330Y-58076915D01*
X134554511Y-58401771D01*
X135128000Y-58515845D01*
X135701489Y-58401771D01*
X136187670Y-58076915D01*
X136394461Y-57767431D01*
X136765964Y-58183232D01*
X137293209Y-58437209D01*
X137308974Y-58439858D01*
X137541000Y-58318717D01*
X137541000Y-56959500D01*
X137521000Y-56959500D01*
X137521000Y-56705500D01*
X137541000Y-56705500D01*
X137541000Y-55346283D01*
X137795000Y-55346283D01*
X137795000Y-56705500D01*
X137815000Y-56705500D01*
X137815000Y-56959500D01*
X137795000Y-56959500D01*
X137795000Y-58318717D01*
X138027026Y-58439858D01*
X138042791Y-58437209D01*
X138570036Y-58183232D01*
X138726907Y-58007655D01*
X138741238Y-58083817D01*
X138880310Y-58299941D01*
X139092510Y-58444931D01*
X139344400Y-58495940D01*
X141071600Y-58495940D01*
X141306917Y-58451662D01*
X141523041Y-58312590D01*
X141668031Y-58100390D01*
X141719040Y-57848500D01*
X141719040Y-55816500D01*
X141674762Y-55581183D01*
X141535690Y-55365059D01*
X141323490Y-55220069D01*
X141071600Y-55169060D01*
X139344400Y-55169060D01*
X139109083Y-55213338D01*
X138892959Y-55352410D01*
X138747969Y-55564610D01*
X138728768Y-55659427D01*
X138570036Y-55481768D01*
X138042791Y-55227791D01*
X138027026Y-55225142D01*
X137795000Y-55346283D01*
X137541000Y-55346283D01*
X137308974Y-55225142D01*
X137293209Y-55227791D01*
X136765964Y-55481768D01*
X136394461Y-55897569D01*
X136187670Y-55588085D01*
X135701489Y-55263229D01*
X135128000Y-55149155D01*
X134554511Y-55263229D01*
X134068330Y-55588085D01*
X133858000Y-55902866D01*
X133647670Y-55588085D01*
X133161489Y-55263229D01*
X132588000Y-55149155D01*
X132014511Y-55263229D01*
X131528330Y-55588085D01*
X131318000Y-55902866D01*
X131107670Y-55588085D01*
X130621489Y-55263229D01*
X130048000Y-55149155D01*
X129474511Y-55263229D01*
X128988330Y-55588085D01*
X128663474Y-56074266D01*
X128549400Y-56647755D01*
X128549400Y-57017245D01*
X128663474Y-57590734D01*
X128988330Y-58076915D01*
X129409751Y-58358500D01*
X121980802Y-58358500D01*
X118029122Y-54406820D01*
X118029162Y-54361333D01*
X117887117Y-54017557D01*
X117624327Y-53754308D01*
X117280799Y-53611662D01*
X116908833Y-53611338D01*
X116565057Y-53753383D01*
X116301808Y-54016173D01*
X116159162Y-54359701D01*
X116158838Y-54731667D01*
X115137000Y-54731667D01*
X115137000Y-50494000D01*
X155373000Y-50494000D01*
X155373000Y-83364000D01*
M02*
